<?xml version="1.0" encoding="UTF-8"?>
<!DOCTYPE svg PUBLIC "-//W3C//DTD SVG 1.1//EN" "http://www.w3.org/Graphics/SVG/1.1/DTD/svg11.dtd">
<!-- Creator: CorelDRAW 2017 -->
<svg xmlns="http://www.w3.org/2000/svg" xml:space="preserve" width="48mm" height="48mm" version="1.1" style="shape-rendering:geometricPrecision; text-rendering:geometricPrecision; image-rendering:optimizeQuality; fill-rule:evenodd; clip-rule:evenodd"
viewBox="0 0 4800 4800"
 xmlns:xlink="http://www.w3.org/1999/xlink"
 xmlns:dc="http://purl.org/dc/elements/1.1/"
 xmlns:cc="http://creativecommons.org/ns#"
 xmlns:rdf="http://www.w3.org/1999/02/22-rdf-syntax-ns#"
 xmlns:svg="http://www.w3.org/2000/svg">
 <defs>
  <style type="text/css">
   <![CDATA[
    .str1 {stroke:#252627;stroke-width:75;stroke-miterlimit:22.9256}
    .str2 {stroke:#757575;stroke-width:35;stroke-miterlimit:22.9256}
    .str0 {stroke:#252627;stroke-width:25;stroke-miterlimit:22.9256}
    .fil2 {fill:none}
    .fil0 {fill:#FEFEFE}
    .fil1 {fill:#252627}
    .fil3 {fill:#FA8D17;fill-rule:nonzero}
    .fil4 {fill:white;fill-rule:nonzero}
   ]]>
  </style>
 </defs>
 <g id="Слой_x0020_1">
  <metadata id="CorelCorpID_0Corel-Layer"/>
  <rect class="fil0 str0" transform="matrix(0.752701 -0.752701 0.664812 0.664812 40.0022 2400)" width="3122.08" height="3534.84"/>
  <rect class="fil1 str1" transform="matrix(0.696651 -0.696651 0.615306 0.615306 214.997 2400)" width="3122.08" height="3534.84"/>
  <rect class="fil2 str2" transform="matrix(0.687362 -0.687362 0.607102 0.607102 243.997 2400)" width="3122.08" height="3534.84"/>
  <path class="fil3" d="M1283.76 2373.72l-28.81 -16.57 0 -186.57c0,-20.89 2.88,-38.18 -16.57,-38.9 -22.33,-0.72 -49.71,-0.72 -82.12,0 -21.61,0 -19.45,15.13 -25.22,47.54 -2.88,12.97 -4.32,23.05 -5.76,30.98 -5.04,23.05 -10.8,54.75 -18.01,92.92l-17.29 93.65c0,2.88 -0.72,4.32 -1.44,5.76 -5.04,11.53 -15.12,10.09 -18.01,1.44 -2.88,-8.64 -5.04,-15.12 -5.76,-18.72l-37.46 -189.46 -10.08 -49.7c-2.16,-9.37 -7.93,-14.41 -15.85,-14.41l-87.88 0c-18.01,0.72 -15.85,18.73 -15.85,39.62l0 185.85 -28.82 16.57c-3.6,2.16 -5.76,5.76 -5.76,10.08 0,5.05 2.16,7.93 5.76,10.09l28.82 16.57 0 183.69c0,23.77 -2.16,38.9 15.12,41.06 18.01,1.44 36.02,1.44 53.31,0 18.01,-2.88 16.57,-20.17 16.57,-40.34l0 -122.46c0,-12.25 1.44,-20.89 3.6,-25.21 0.72,-2.89 7.93,-5.77 10.81,0 3.6,7.92 5.76,13.68 7.2,18.01 4.32,18.72 10.81,44.66 18.01,77.79 2.88,10.09 13.69,55.47 18.01,74.2 2.88,13.69 7.2,17.29 21.61,18.01 20.17,1.44 42.5,0.72 48.26,-4.32 2.88,-2.88 5.77,-8.65 7.93,-16.57 2.88,-12.97 7.2,-30.98 12.24,-55.47l15.13 -74.92c2.16,-10.8 5.04,-18 7.93,-21.61 1.44,-1.44 2.88,-2.16 5.04,-2.16 2.16,0 3.6,0.72 4.32,2.88 4.32,10.81 7.2,24.5 7.2,41.79l0 93.64c0,18.01 -1.44,34.58 12.97,36.02 19.45,2.16 38.18,2.16 56.91,0 16.57,-2.16 15.13,-20.89 15.13,-41.06l0 -182.97 28.81 -16.57c3.6,-2.16 5.76,-5.04 5.76,-10.09 0,-4.32 -2.16,-7.92 -5.76,-10.08z"/>
  <path id="1" class="fil3" d="M1628.1 2372.28l-28.82 -16.57 0 -95.81c0,-38.18 -9.36,-79.24 -39.62,-107.33 -30.25,-28.82 -66.27,-36.74 -123.18,-28.09 -9.36,1.44 -17.29,5.04 -25.93,11.52 -41.78,30.26 -61.95,66.27 -60.51,108.78 0,20.17 0.72,58.34 0,110.93l-28.82 16.57c-4.32,2.88 -5.76,5.76 -5.76,10.8 0,4.33 1.44,7.21 5.76,10.09l28.82 16.57 0 105.17c0,23.05 3.6,41.78 12.24,57.63 46.11,86.44 165.69,92.21 222.59,0.72 3.61,-6.48 6.49,-12.25 7.21,-18.73 5.76,-29.53 7.92,-48.26 7.92,-56.19l-0.72 -88.6 28.82 -16.57c4.32,-2.88 5.76,-5.76 5.76,-10.09 0,-5.04 -1.44,-8.64 -5.76,-10.8zm-123.19 155.6c-12.96,28.81 -54.74,28.09 -66.27,-1.44 -2.88,-5.77 -3.6,-16.57 -3.6,-30.98l0 -234.84c0,-11.52 0,-18.73 0.72,-23.05 5.04,-36.74 58.35,-41.06 69.88,-5.76 2.16,7.2 3.6,15.13 3.6,25.21l0 243.48c0,11.53 -1.44,20.89 -4.33,27.38z"/>
  <path id="2" class="fil3" d="M1921.28 2564.62c-2.16,-16.57 -16.57,-14.41 -38.18,-15.13l-70.59 0c-23.78,-0.72 -30.26,-7.93 -31.7,-30.98 -0.72,-22.33 -0.72,-41.78 0.72,-59.07 1.44,-30.97 8.64,-34.57 36.02,-34.57 20.89,0 37.46,0 48.26,-0.73 10.09,-0.72 15.85,-5.76 15.85,-15.84 1.44,-15.13 1.44,-30.26 0.72,-45.39 -0.72,-17.28 -5.04,-22.33 -22.33,-22.33 -5.04,-0.72 -13.69,-0.72 -25.21,-0.72 -22.33,0 -38.18,0.72 -46.83,-7.2 -3.6,-4.32 -6.48,-11.53 -6.48,-20.89 -1.44,-23.05 -1.44,-46.82 -0.72,-71.32 1.44,-22.33 7.92,-29.53 31.7,-30.25l71.31 0c20.89,0 36.02,1.44 37.46,-15.85 1.44,-16.57 2.16,-52.59 -4.32,-59.07 -3.6,-2.88 -12.97,-5.04 -29.54,-5.04l-155.59 0c-35.3,0 -36.02,1.44 -36.02,37.46l0 188.01 -28.82 16.57c-3.6,2.16 -5.76,5.76 -5.76,10.08 0,5.05 2.16,7.93 5.76,10.09l28.82 16.57 0 177.93c0,26.65 -0.72,36.01 5.76,41.78 6.48,5.76 18.73,5.76 28.81,5.76l156.32 0c15.13,0 32.42,1.44 33.86,-15.85 2.16,-17.29 2.16,-35.3 0.72,-54.02z"/>
  <path id="3" class="fil3" d="M2542.23 2373.72l-28.81 -16.57 0 -186.57c0,-20.89 2.88,-38.18 -16.57,-38.9 -22.33,-0.72 -49.71,-0.72 -82.12,0 -21.61,0 -19.45,15.13 -25.22,47.54 -2.88,12.97 -4.32,23.05 -5.76,30.98 -5.04,23.05 -10.8,54.75 -18.01,92.92l-17.29 93.65c0,2.88 -0.72,4.32 -1.44,5.76 -5.04,11.53 -15.12,10.09 -18.01,1.44 -2.88,-8.64 -5.04,-15.12 -5.76,-18.72l-37.46 -189.46 -10.08 -49.7c-2.16,-9.37 -7.93,-14.41 -15.85,-14.41l-87.88 0c-18.01,0.72 -15.85,18.73 -15.85,39.62l0 185.85 -28.82 16.57c-3.6,2.16 -5.76,5.76 -5.76,10.08 0,5.05 2.16,7.93 5.76,10.09l28.82 16.57 0 183.69c0,23.77 -2.16,38.9 15.12,41.06 18.01,1.44 36.02,1.44 53.31,0 18.01,-2.88 16.57,-20.17 16.57,-40.34l0 -122.46c0,-12.25 1.44,-20.89 3.6,-25.21 0.72,-2.89 7.93,-5.77 10.81,0 3.6,7.92 5.76,13.68 7.2,18.01 4.32,18.72 10.81,44.66 18.01,77.79 2.88,10.09 13.69,55.47 18.01,74.2 2.88,13.69 7.2,17.29 21.61,18.01 20.17,1.44 42.5,0.72 48.26,-4.32 2.88,-2.88 5.77,-8.65 7.93,-16.57 2.88,-12.97 7.2,-30.98 12.24,-55.47l15.13 -74.92c2.16,-10.8 5.04,-18 7.93,-21.61 1.44,-1.44 2.88,-2.16 5.04,-2.16 2.16,0 3.6,0.72 4.32,2.88 4.32,10.81 7.2,24.5 7.2,41.79l0 93.64c0,18.01 -1.44,34.58 12.97,36.02 19.45,2.16 38.18,2.16 56.91,0 16.57,-2.16 15.13,-20.89 15.13,-41.06l0 -182.97 28.81 -16.57c3.6,-2.16 5.76,-5.04 5.76,-10.09 0,-4.32 -2.16,-7.92 -5.76,-10.08z"/>
  <path id="4" class="fil3" d="M2834.7 2564.62c-2.16,-16.57 -16.57,-14.41 -38.18,-15.13l-70.59 0c-23.78,-0.72 -30.26,-7.93 -31.7,-30.98 -0.72,-22.33 -0.72,-41.78 0.72,-59.07 1.44,-30.97 8.64,-34.57 36.02,-34.57 20.89,0 37.46,0 48.26,-0.73 10.09,-0.72 15.85,-5.76 15.85,-15.84 1.44,-15.13 1.44,-30.26 0.72,-45.39 -0.72,-17.28 -5.04,-22.33 -22.33,-22.33 -5.04,-0.72 -13.69,-0.72 -25.21,-0.72 -22.33,0 -38.18,0.72 -46.83,-7.2 -3.6,-4.32 -6.48,-11.53 -6.48,-20.89 -1.44,-23.05 -1.44,-46.82 -0.72,-71.32 1.44,-22.33 7.92,-29.53 31.7,-30.25l71.31 0c20.89,0 36.02,1.44 37.46,-15.85 1.44,-16.57 2.16,-52.59 -4.32,-59.07 -3.6,-2.88 -12.97,-5.04 -29.54,-5.04l-155.59 0c-35.3,0 -36.02,1.44 -36.02,37.46l0 188.01 -28.82 16.57c-3.6,2.16 -5.76,5.76 -5.76,10.08 0,5.05 2.16,7.93 5.76,10.09l28.82 16.57 0 177.93c0,26.65 -0.72,36.01 5.76,41.78 6.48,5.76 18.73,5.76 28.81,5.76l156.32 0c15.13,0 32.42,1.44 33.86,-15.85 2.16,-17.29 2.16,-35.3 0.72,-54.02z"/>
  <path id="5" class="fil3" d="M3145.9 2461.6c0,-10.08 -5.76,-15.84 -15.85,-16.56 -16.57,-0.73 -33.14,-0.73 -48.26,0 -15.13,0 -18.73,5.04 -20.17,20.89l0 39.62c-0.72,26.65 -19.45,47.54 -41.78,46.1 -22.33,-1.44 -33.14,-21.61 -35.3,-39.62 -1.44,-8.65 -1.44,-18.01 -1.44,-28.1 -0.72,-56.18 -0.72,-125.34 0,-208.9 0,-18.01 -1.44,-34.58 12.96,-50.42 7.21,-7.93 15.85,-12.25 25.94,-12.25 20.17,0 38.18,18.73 39.62,46.1 0.72,45.38 -2.88,48.27 17.29,49.71 15.12,0.72 29.53,0.72 44.66,0 17.29,0 22.33,-4.33 23.05,-21.61 0.72,-21.61 4.32,-77.8 -17.29,-103.74 -23.77,-28.09 -44.66,-44.66 -61.95,-51.14 -5.76,-2.16 -12.97,-2.88 -19.45,-3.6 -9.36,0 -24.49,-0.72 -45.38,0 -7.21,0 -15.13,1.44 -24.49,5.04 -46.83,17.29 -77.08,64.83 -75.64,108.77 1.44,19.45 1.44,55.47 0.72,113.1l-28.82 16.57c-3.6,2.88 -5.76,5.76 -5.76,10.8 0,4.33 2.16,7.21 5.76,10.09l28.82 16.57 0 118.14c0,23.77 4.32,42.5 15.13,56.18 74.19,100.85 206.74,60.51 226.19,-40.34 2.88,-14.4 3.6,-41.06 1.44,-81.4z"/>
  <path id="6" class="fil3" d="M3414.6 2130.24l-172.89 0c-16.57,0 -25.21,-1.44 -30.97,3.6 -2.17,2.16 -4.33,6.48 -4.33,12.25 -0.72,16.56 -0.72,33.13 0,48.26 0.72,14.41 5.77,18.01 20.17,18.73 2.88,0.72 8.65,0.72 16.57,0.72 14.41,0 28.82,0 36.02,7.92 6.48,7.21 6.48,16.57 6.48,41.06l0 91.49 -33.13 18.73c-3.61,2.88 -5.05,5.76 -5.05,10.08 0,5.05 1.44,8.65 5.05,10.81l33.13 18.73 0 182.25c0,21.61 -2.88,38.9 15.85,39.62 17.29,0.72 35.3,0.72 54.03,0 17.29,-1.44 15.13,-18.01 15.13,-43.94l0 -178.65 31.69 -18.01c3.6,-2.16 5.76,-5.76 5.76,-10.81 0,-4.32 -2.16,-7.2 -5.76,-10.08l-31.69 -18.01 0 -85c0,-28.1 -0.73,-40.34 7.92,-48.27 8.64,-8.64 23.77,-7.92 38.18,-7.92 12.96,0 23.05,0 28.81,-5.04 2.16,-2.88 3.6,-7.21 3.6,-13.69 0.72,-5.76 0.72,-16.57 0.72,-30.98 0,-33.85 -1.44,-33.85 -35.29,-33.85z"/>
  <path id="7" class="fil3" d="M3788.47 2372.28l-28.82 -16.57 0 -95.81c0,-38.18 -9.36,-79.24 -39.62,-107.33 -30.25,-28.82 -66.27,-36.74 -123.18,-28.09 -9.36,1.44 -17.29,5.04 -25.93,11.52 -41.78,30.26 -61.95,66.27 -60.51,108.78 0,20.17 0.72,58.34 0,110.93l-28.82 16.57c-4.32,2.88 -5.76,5.76 -5.76,10.8 0,4.33 1.44,7.21 5.76,10.09l28.82 16.57 0 105.17c0,23.05 3.6,41.78 12.24,57.63 46.11,86.44 165.69,92.21 222.59,0.72 3.61,-6.48 6.49,-12.25 7.21,-18.73 5.76,-29.53 7.92,-48.26 7.92,-56.19l-0.72 -88.6 28.82 -16.57c4.32,-2.88 5.76,-5.76 5.76,-10.09 0,-5.04 -1.44,-8.64 -5.76,-10.8zm-123.19 155.6c-12.96,28.81 -54.74,28.09 -66.27,-1.44 -2.88,-5.77 -3.6,-16.57 -3.6,-30.98l0 -234.84c0,-11.52 0,-18.73 0.72,-23.05 5.04,-36.74 58.35,-41.06 69.88,-5.76 2.16,7.2 3.6,15.13 3.6,25.21l0 243.48c0,11.53 -1.44,20.89 -4.33,27.38z"/>
  <path id="8" class="fil3" d="M3914.53 2446.48l-5.05 64.83c-1.44,9.36 -5.76,14.41 -14.4,14.41 -11.53,0.72 -23.05,0.72 -36.74,0 -7.93,-0.72 -12.25,-5.05 -12.25,-13.69 -0.72,-4.32 -1.44,-13.69 -3.6,-28.82 -2.16,-12.24 -2.88,-22.33 -2.16,-29.53 0,-7.2 0,-44.66 0,-111.66l0 -182.97c0,-27.37 2.16,-28.81 30.25,-28.81l27.38 0c11.52,0.72 15.13,5.04 16.57,18.01 0,2.16 0,7.2 0,14.4l0 283.83zm-0.72 152.71c0,-30.97 2.88,-36.74 -12.25,-37.46 -15.85,-0.72 -30.98,-0.72 -46.82,0 -8.65,0 -12.97,4.33 -13.69,12.25 -1.44,16.57 -1.44,33.14 0.72,48.98 0,6.49 3.6,10.81 10.81,11.53 15.84,1.44 32.41,1.44 48.98,0 15.13,-1.44 12.25,-7.92 12.25,-35.3z"/>
  <polygon class="fil0" points="2365.91,2880.87 2390,2951.01 2468.43,2950.87 2404.89,2994.08 2429.27,3064.13 2365.91,3020.69 2302.55,3064.13 2326.93,2994.08 2263.39,2950.87 2341.82,2951.01 "/>
  <polygon class="fil0" points="3506.38,2974.61 3031.53,2962.42 2556.68,2950.23 2556.68,2974.61 2556.68,2998.99 3031.53,2986.8 "/>
  <polygon class="fil0" points="1232.35,2974.61 1707.19,2962.42 2182.04,2950.23 2182.04,2974.61 2182.04,2998.99 1707.19,2986.8 "/>
  <g>
   <path id="path166" class="fil4" d="M2964.72 1430.89c-4.44,20.63 -15.87,37.44 -34.55,49.26 -15.57,9.88 -31.98,18.6 -48.06,27.79 -25.19,14.41 -50.44,28.7 -75.61,43.13 -52.67,30.31 -105.29,60.68 -157.95,91.01 -31.81,18.34 -63.64,36.63 -95.46,54.92 -5.23,3 -10.5,5.93 -15.75,8.89 -0.34,-0.49 -0.7,-0.99 -1.05,-1.48 12.96,-7.86 25.92,-15.7 38.85,-23.6 13.13,-8.01 26.19,-16.11 39.33,-24.16 13.13,-8.03 26.28,-16.02 39.41,-24.06 12.89,-7.83 25.74,-15.71 38.66,-23.56 13.15,-7.96 26.38,-15.83 39.56,-23.82 13.15,-7.99 26.22,-16.1 39.39,-24.07 13.17,-7.99 26.47,-15.78 39.62,-23.79 12.77,-7.78 26.09,-14.89 37.59,-24.36 -2.61,0.44 -4.82,1.46 -7.01,2.49 -16.36,7.5 -32.53,15.38 -49.11,22.44 -26.65,11.33 -54.62,17.87 -84.41,16.97 -7.24,-0.22 -14.54,0.32 -21.78,0.84 -23.99,1.65 -46.35,8.48 -67.77,18.16 -2.96,1.33 -6.1,2.31 -9.17,3.45 37.4,-23.35 75.54,-45.21 113.75,-67.02 38.58,-22.04 77.47,-43.58 115.69,-66.16 23.99,-14.17 108.85,-62.66 115.72,-64.49 10.13,15.97 14,33.04 10.11,51.22l0 0zm-570.84 367.54c-7.39,0.05 -13.43,-5.91 -13.49,-13.3 -0.05,-7.41 5.91,-13.45 13.3,-13.49 7.41,-0.07 13.45,5.89 13.49,13.3 0.07,7.39 -5.89,13.43 -13.3,13.49l0 0zm-88.51 -78.98c-42.47,-20.76 -84,-43.03 -124.63,-66.66 -31.76,-18.5 -63.25,-37.48 -94,-57.35 -33.35,-21.57 -66.23,-43.78 -98.31,-66.89 -30.37,-21.87 -59.12,-45.58 -85.95,-71.19 -16.04,-15.3 -31.1,-31.29 -42.6,-50.49 7.21,5.49 14.6,10.82 21.67,16.49 32.19,25.79 64.02,51.99 96.51,77.43 28.64,22.45 57.76,44.32 87.02,66.06 39.84,29.6 81.5,56.99 124.4,82.7 38.4,23.02 77.43,45.1 116.17,67.64 1.33,0.74 2.53,1.69 3.79,2.55 -1.86,0.53 -3.02,0.23 -4.07,-0.28l0 -0.01zm-462.14 -258.57c-7.41,0.07 -13.45,-5.89 -13.52,-13.3 -0.04,-7.39 5.92,-13.43 13.31,-13.49 7.41,-0.05 13.44,5.91 13.51,13.32 0.04,7.38 -5.91,13.43 -13.3,13.47l0 0zm1163.73 -24.18c-5.06,-24.89 -16.78,-45.96 -38.69,-61.82 -2.5,-1.79 -5.27,-3.34 -8.05,-4.73 -2.21,-1.11 -4.65,-1.8 -7.32,-2.8 -133.94,76.52 -300.31,170.25 -435.12,247.29 9.66,23.07 10.41,74.41 -8.2,85.59 -10.22,5.96 -51.41,30.35 -90.69,53.03 -5.1,2.94 -8.82,2.68 -13.22,0.8 -24.2,-9.87 -47.85,-20.78 -71.09,-32.47 -58.02,-29.24 -113.54,-62.22 -167.47,-97.35 -32.49,-21.16 -64.02,-43.59 -95.61,-65.9 -19.3,-13.63 -37.98,-28 -56.76,-42.24 -20.24,-15.36 -40.63,-30.57 -60.31,-46.52 -26.56,-21.57 -52.65,-43.61 -78.63,-65.75 -13.45,-11.46 -26.19,-23.61 -39.37,-35.36 -2.93,-2.64 -5.99,-5.23 -9.44,-7.22 -6.86,-3.94 -13.64,-3.43 -20.46,0.9 -7.06,4.49 -11.8,10.66 -16.04,17.21 -9.49,14.55 -14.44,30.48 -16.92,47.15 -2.16,14.45 -0.88,28.5 4.39,42.26 3.15,8.2 8.29,15.01 15.51,20.53 10.68,8.19 21.11,16.71 32.06,24.59 17.67,12.72 35.44,25.34 53.61,37.45 24.59,16.36 49.22,32.68 74.45,48.17 34.45,21.14 69.19,41.87 104.29,62.09 27.59,15.87 55.71,31.01 83.94,45.92 28.21,14.91 56.46,29.84 85.42,43.44 33.18,15.59 67.12,29.83 100.83,44.44 4.72,2.01 9.71,3.88 14.5,5.78 -10.88,8.59 -26.21,19.79 -36.04,28.23 -18.55,15.91 -35,33.41 -46.2,54.7 -4.37,8.29 -6.73,17.05 -6.06,26.22 0.88,12.08 7.46,21.66 17.76,28.96 4.2,2.97 7.15,2.85 11.12,-0.58 3.15,-2.69 6.08,-6.01 7.88,-9.59 7.17,-14.24 13.62,-28.78 20.77,-43.03 8.78,-17.5 18.89,-34.31 33.52,-48.28 6.13,-5.84 16.71,-13.54 23.31,-18.93 3.23,-2.61 7.79,-4.03 12.14,-3.02 9.66,3.17 18.89,5.78 22.12,6.6 10.67,2.72 24.85,3.64 36.07,3.32 9.64,-0.28 18.14,-2.87 25.28,-8.82 6.1,-5.08 13.1,-9.34 17.11,-16.39 3.69,-6.49 3.38,-10.96 -2.69,-15.44 -5.12,-3.73 -10.95,-6.62 -17.42,-10.54 -3.25,-1.95 -8.14,-3.93 -13.4,-5.74 9.63,-5.61 24.7,-14.22 30.67,-17.65 38.55,-22.13 77.15,-44.16 115.7,-66.25 18.21,-10.43 36.37,-20.92 54.55,-31.37 57.75,-33.24 115.45,-66.53 173.26,-99.68 58.88,-33.78 117.8,-67.53 176.91,-101.01 7.19,-4.09 9.63,-8.2 8.03,-16.17l0 -0.02zm0 0l0 0 0 0z"/>
  </g>
 </g>
</svg>
