<?xml version="1.0" encoding="UTF-8"?>
<!DOCTYPE svg PUBLIC "-//W3C//DTD SVG 1.1//EN" "http://www.w3.org/Graphics/SVG/1.1/DTD/svg11.dtd">
<!-- Creator: CorelDRAW X6 -->
<svg xmlns="http://www.w3.org/2000/svg" xml:space="preserve" width="51.252mm" height="23.061mm" version="1.1" style="shape-rendering:geometricPrecision; text-rendering:geometricPrecision; image-rendering:optimizeQuality; fill-rule:evenodd; clip-rule:evenodd"
viewBox="0 0 5125 2306"
 xmlns:xlink="http://www.w3.org/1999/xlink">
 <defs>
  <style type="text/css">
   <![CDATA[
    .str0 {stroke:#FA8D17;stroke-width:20}
    .fil0 {fill:none}
    .fil1 {fill:#FA8D17}
   ]]>
  </style>
 </defs>
 <g id="Слой_x0020_1">
  <metadata id="CorelCorpID_0Corel-Layer"/>
  <path class="fil0 str0" d="M4135 2243c917,-189 1086,-1425 318,-2070"/>
  <path class="fil1 str0" d="M5092 850c9,193 -41,301 -149,324 3,-161 53,-269 149,-324z"/>
  <path class="fil1 str0" d="M4937 1175c-33,-166 -114,-273 -257,-320 70,192 155,299 257,320z"/>
  <path class="fil1 str0" d="M4981 523c-102,57 -131,175 -85,355 98,1 126,-117 85,-355z"/>
  <path class="fil1 str0" d="M4620 619c50,142 142,228 276,259 -39,-139 -131,-225 -276,-259z"/>
  <path class="fil1 str0" d="M4824 265c-95,103 -102,216 -20,339 75,-64 81,-177 20,-339z"/>
  <path class="fil1 str0" d="M4500 461c115,124 228,125 254,96 -39,-94 -124,-126 -254,-96z"/>
  <path class="fil1 str0" d="M4581 46c-36,74 -14,184 66,331 84,-86 62,-197 -66,-331z"/>
  <path class="fil1 str0" d="M4361 285c65,91 160,122 286,92 -57,-86 -152,-117 -286,-92z"/>
  <path class="fil1 str0" d="M4263 0c21,156 92,223 215,199 0,-113 -72,-180 -215,-199z"/>
  <path class="fil1 str0" d="M4721 1420c-63,127 -41,247 67,359 44,-136 22,-256 -67,-359z"/>
  <path class="fil1 str0" d="M4612 1984c-98,-101 -97,-210 3,-328 88,96 86,205 -3,328z"/>
  <path class="fil1 str0" d="M4921 1982c-72,-77 -185,-61 -340,48 108,91 221,75 340,-48z"/>
  <path class="fil1 str0" d="M4484 1846c50,123 1,232 -148,327 -34,-95 15,-204 148,-327z"/>
  <path class="fil1 str0" d="M4697 2239c-161,98 -268,75 -321,-69 141,-37 247,-14 321,69z"/>
  <path class="fil1 str0" d="M4730 1139c42,235 102,336 181,303 17,-119 -43,-220 -181,-303z"/>
  <path class="fil1 str0" d="M5125 1208c-46,204 -114,283 -206,235 14,-98 82,-177 206,-235z"/>
  <path class="fil1 str0" d="M4800 1773c63,99 149,43 258,-168 -102,-13 -188,42 -258,168z"/>
  <path class="fil0 str0" d="M990 2251c-917,-189 -1086,-1425 -318,-2071"/>
  <path class="fil1 str0" d="M33 857c-9,194 41,302 149,325 -3,-161 -53,-269 -149,-325z"/>
  <path class="fil1 str0" d="M188 1182c33,-165 114,-273 257,-320 -70,193 -155,299 -257,320z"/>
  <path class="fil1 str0" d="M144 531c103,57 131,175 85,354 -98,1 -126,-117 -85,-354z"/>
  <path class="fil1 str0" d="M505 627c-50,141 -141,227 -276,258 39,-139 131,-225 276,-258z"/>
  <path class="fil1 str0" d="M301 273c95,103 102,216 20,339 -74,-64 -81,-177 -20,-339z"/>
  <path class="fil1 str0" d="M626 468c-116,124 -229,125 -255,96 40,-93 124,-125 255,-96z"/>
  <path class="fil1 str0" d="M545 53c35,74 13,185 -67,332 -84,-87 -62,-198 67,-332z"/>
  <path class="fil1 str0" d="M764 293c-64,91 -160,122 -286,92 57,-87 152,-117 286,-92z"/>
  <path class="fil1 str0" d="M862 7c-20,157 -92,223 -215,200 1,-114 72,-180 215,-200z"/>
  <path class="fil1 str0" d="M404 1427c63,127 41,247 -67,360 -44,-136 -22,-256 67,-360z"/>
  <path class="fil1 str0" d="M513 1991c98,-100 97,-210 -3,-327 -87,95 -86,204 3,327z"/>
  <path class="fil1 str0" d="M204 1989c72,-77 186,-61 340,48 -107,92 -221,76 -340,-48z"/>
  <path class="fil1 str0" d="M642 1854c-51,122 -2,231 147,327 34,-96 -15,-205 -147,-327z"/>
  <path class="fil1 str0" d="M429 2246c160,99 267,76 320,-69 -141,-37 -247,-14 -320,69z"/>
  <path class="fil1 str0" d="M395 1146c-42,235 -102,336 -181,303 -17,-119 43,-220 181,-303z"/>
  <path class="fil1 str0" d="M0 1215c46,205 115,283 206,236 -13,-99 -82,-177 -206,-236z"/>
  <path class="fil1 str0" d="M325 1780c-62,99 -148,44 -258,-167 102,-14 188,42 258,167z"/>
 </g>
</svg>
