<?xml version="1.0" encoding="UTF-8" standalone="no"?>
<svg
   xmlns:dc="http://purl.org/dc/elements/1.1/"
   xmlns:cc="http://creativecommons.org/ns#"
   xmlns:rdf="http://www.w3.org/1999/02/22-rdf-syntax-ns#"
   xmlns:svg="http://www.w3.org/2000/svg"
   xmlns="http://www.w3.org/2000/svg"
   xmlns:sodipodi="http://sodipodi.sourceforge.net/DTD/sodipodi-0.dtd"
   xmlns:inkscape="http://www.inkscape.org/namespaces/inkscape"
   inkscape:version="1.0beta1 (32d4812, 2019-09-19)"
   sodipodi:docname="24.svg"
   id="svg34"
   viewBox="0 0 1018.9558 1014"
   style="clip-rule:evenodd;fill-rule:evenodd;image-rendering:optimizeQuality;shape-rendering:geometricPrecision;text-rendering:geometricPrecision"
   version="1.1"
   height="10.14mm"
   width="10.189558mm"
   xml:space="preserve"><metadata
   id="metadata38">
  <rdf:RDF>
    <cc:Work
       rdf:about="">
      <dc:format>image/svg+xml</dc:format>
      <dc:type
         rdf:resource="http://purl.org/dc/dcmitype/StillImage" />
    </cc:Work>
  </rdf:RDF>
</metadata>
<sodipodi:namedview
   inkscape:current-layer="svg34"
   inkscape:window-maximized="0"
   inkscape:window-y="23"
   inkscape:window-x="0"
   inkscape:cy="26.992156"
   inkscape:cx="37.059084"
   inkscape:zoom="6.4567273"
   showgrid="false"
   id="namedview36"
   inkscape:window-height="786"
   inkscape:window-width="1440"
   inkscape:pageshadow="2"
   inkscape:pageopacity="0"
   guidetolerance="10"
   gridtolerance="10"
   objecttolerance="10"
   borderopacity="1"
   inkscape:document-rotation="0"
   bordercolor="#666666"
   pagecolor="#ffffff" />

 <defs
   id="defs12">
  <style
   id="style10"
   type="text/css">
   <![CDATA[
    .str0 {stroke:#FF8A00;stroke-width:120;stroke-dasharray:120.000000 120.000000}
    .fil1 {fill:none}
    .fil0 {fill:#FF8A00;fill-rule:nonzero}
   ]]>
  </style>

 </defs>

 <g
   transform="translate(-93,-89)"
   id="Слой_x0020_1">
  <metadata
   id="CorelCorpID_0Corel-Layer" />

  <g
   id="g17">
   <path
   inkscape:connector-curvature="0"
   id="path15"
   d="m 603,1103 v -120 0 h 15 l 15,-1 15,-1 15,-2 15,-3 14,-3 15,-4 14,-4 14,-5 14,-5 13,-6 14,-6 13,-7 13,-7 12,-8 12,-8 12,-9 12,-9 11,-9 11,-10 10,-11 10,-10 10,-12 9,-11 9,-12 8,-12 8,-13 8,-13 7,-13 6,-14 7,-14 5,-14 113,41 -7,18 -8,19 -9,18 -9,17 -10,17 -10,17 -11,16 -12,15 -12,15 -13,15 -13,14 -14,14 -14,13 -14,12 -15,12 -16,11 -16,11 -16,10 -17,9 -17,9 -17,9 -18,7 -18,7 -18,6 -19,6 -19,5 -19,4 -19,3 -20,3 -20,2 -19,1 z M 93,593 h 120 v 0 21 l 2,19 2,20 3,19 5,19 5,18 6,18 7,18 8,17 9,17 9,17 10,15 11,16 12,14 12,15 13,13 13,13 15,12 14,12 16,11 15,10 17,9 17,9 17,8 17,7 19,6 18,5 19,4 19,4 20,2 19,2 h 21 v 120 h -27 l -25,-2 -26,-3 -25,-5 -25,-6 -24,-7 -24,-8 -23,-9 -23,-10 -22,-11 -21,-12 -21,-14 -20,-14 -19,-15 -18,-16 -18,-17 -17,-18 -16,-18 -15,-19 -14,-20 -14,-21 -12,-21 -11,-22 -10,-23 -9,-23 -8,-24 -7,-24 -6,-25 -5,-25 -3,-26 -2,-25 z m 327,-476 43,112 -14,6 -14,6 -13,7 -13,7 -13,8 -12,8 -12,8 -12,9 -11,9 -11,10 -11,10 -10,10 -9,11 -10,11 -8,12 -9,11 -8,13 -7,12 -7,13 -7,13 -6,13 -6,13 -5,14 -5,14 -4,14 -3,14 -3,14 -3,15 -2,14 -1,15 -1,15 v 15 H 93 v -19 l 1,-20 2,-19 3,-20 3,-19 4,-18 5,-19 5,-18 6,-19 7,-17 7,-18 8,-17 9,-17 9,-17 10,-16 10,-15 11,-16 12,-15 12,-14 13,-15 13,-13 14,-13 14,-13 15,-12 15,-12 15,-11 17,-10 16,-10 17,-10 18,-8 18,-8 z M 605,89 354,400 v -11 l -1,-10 -1,-11 -1,-11 -2,-10 -1,-10 -2,-10 -3,-10 -2,-10 -3,-10 -3,-9 -4,-9 -3,-10 -4,-9 -5,-9 -4,-8 -5,-9 -5,-8 -5,-9 -6,-8 -6,-8 -6,-8 -6,-8 -7,-7 -7,-8 -7,-7 -7,-7 -8,-7 -8,-7 -8,-7 -9,-6 -9,-7 v 0 z"
   class="fil0" />

  </g>

  <path
   inkscape:connector-curvature="0"
   id="path19"
   d="m 1052,617 c -1,26 -5,52 -11,78"
   class="fil1 str0" />

  <path
   inkscape:connector-curvature="0"
   id="path21"
   d="m 1041,492 c 6,26 10,52 11,78"
   class="fil1 str0" />

  <path
   inkscape:connector-curvature="0"
   id="path23"
   d="m 987,377 c 14,23 25,46 35,70"
   class="fil1 str0" />

  <path
   inkscape:connector-curvature="0"
   id="path25"
   d="m 906,281 c 20,18 38,37 54,58"
   class="fil1 str0" />

  <path
   inkscape:connector-curvature="0"
   id="path27"
   d="m 797,207 c 24,10 47,22 69,37"
   class="fil1 str0" />

  <path
   inkscape:connector-curvature="0"
   id="path29"
   d="m 676,174 c 26,4 51,9 76,17"
   class="fil1 str0" />

  <path
   inkscape:connector-curvature="0"
   id="path31"
   d="m 583,718 v 38 H 369 c -1,-10 1,-19 4,-28 6,-14 15,-29 27,-43 12,-14 29,-30 52,-49 35,-28 59,-51 71,-68 13,-17 19,-33 19,-48 0,-16 -6,-29 -17,-40 -11,-11 -26,-16 -44,-16 -20,0 -35,6 -46,17 -12,11 -18,27 -18,47 l -41,-4 c 3,-30 14,-53 32,-69 18,-16 43,-24 74,-24 31,0 55,8 73,26 19,17 28,38 28,64 0,13 -3,26 -8,38 -6,13 -15,26 -27,40 -12,13 -33,33 -61,57 -24,20 -39,33 -46,40 -7,8 -12,15 -17,22 z m 170,38 V 679 H 612 V 642 L 760,432 h 33 v 210 h 44 v 37 h -44 v 77 z m 0,-114 V 496 L 652,642 Z"
   class="fil0" />

 </g>

</svg>
