<svg width="0" height="0" class="hidden">
  <symbol xmlns="http://www.w3.org/2000/svg" viewBox="0 0 172.2 115.1" id="ico1">
    <path d="M161.8 95.6v15c0 3.6-.8 4.5-4.4 4.5h-35.6c-2.8 0-3.8-1.1-3.9-4V95.3c-.5-.4-1.1-.8-1.7-1.4-1.5-1.5-2.4-3.4-2.6-5.6-.6-7.6-1.1-15.3-1.6-22.9-.6-8.4-1.3-16.8-1.9-25.3-.4-5.8-.8-11.6-1.2-17.5-.4-5.8-.8-11.6-1.3-17.5-.3-3.6 1.1-5.3 4.6-5.3h55.2c3.4 0 4.9 1.7 4.7 5.1l-2.4 31.8c-.6 8.5-1.1 17-1.7 25.5-.6 8.7-1.3 17.4-2 26-.2 3.2-1.9 5.4-4.2 7.4zM120 67.1h8.2c2.7 0 5.4-.1 8.1 0 2.1.1 3.1.9 3.2 2.7.1 2.8.2 5.6-.3 8.3-.8 4.7-5.8 7.6-10.5 6.7-2.3-.5-4.1-1.9-5.9-3.7l-1.7 1.7c.2 2.1.4 3.8.6 5.8 1 .2 1.9.5 2.8.5h30.8c.9 0 1.8-.4 2.9-.6 2-27 3.9-53.8 5.8-80.7h-48.3c.1 1.2.1 2.3.2 3.6h19c.8 0 1.6 0 2.3.1 1.5.3 2.4 1.4 2.3 2.8-.1 1.4-.9 2.2-2.3 2.5-.8.2-1.6.1-2.3.1h-5.1v6.9h6.6c2 .1 3.2 1.2 3.2 2.8 0 1.6-1.2 2.6-3.2 2.7H120c-.8 0-1.6.1-2.6.1.1 1.4.1 2.4.2 3.5 1.8.6 3.4 1.2 5 1.8 4.5 1.5 9 3.1 13.6 4.6 1.6.5 3.3 1 3.4 3 .1 2.1-1.7 2.6-3.3 3.1-1.3.4-2.6.8-4 1.3-4.4 1.5-8.9 3-13.5 4.5.2 1.8.3 3.4.5 5.2h15.6c.7 0 1.4 0 2.1.1 1.5.2 2.5 1.2 2.6 2.5.1 1.4-.9 2.6-2.5 2.8-.6.1-1.2 0-1.8 0h-15.5c0 2.2.1 3.6.2 5.3zm35.4 30h-31v4.8h11.2c3.2-3.5 5.2-3.5 8.6-.1h11.2v-4.7zm0 9.7h-31v1.9h31v-1.9zm-34.8-31.2c.6-.4.8-.5 1-.7 2.8-2.4 4.5-1.9 5.5 1.7 0 .2.1.3.1.5.6 1.8 1.9 2.6 3.8 2.5 1.8-.2 3-1.4 3.1-3.3.1-1.2 0-2.3 0-3.5h-13.6c0 1 0 1.7.1 2.8zm-3.7-51.7h7.2v-6.5h-7.7c.2 2.2.3 4.2.5 6.5zm1.6 22c.6-.3 1.1-.4 1.2-.6.1-1.6.2-3.1.1-4.7 0-.9-.8-1-1.7-.7.1 1.9.2 3.7.4 6zm6.8-2.2c.9-.4 1.6-.6 2.7-1.1-1.2-.3-1.9-.5-2.7-.7v1.8zM88 19.3c4.3 1 7.1 3.6 8.4 7.7.5 1.5.6 3.1.6 4.6v79.5c-.3 2.7-1.5 4-4.2 4H55.2c-2.7 0-4-1.3-4.1-4V29.8c.2-5.2 3.8-9.4 8.9-10.5 1.2-.3 2.4-.4 3.7-.6v-7.6c0-3.4 1.4-4.7 4.8-4.8h11c3.4 0 4.7 1.4 4.7 4.8v7.6c1.5.2 2.7.3 3.8.6zm1.2 88.1V65H59.1c-.5 1.8-.7 39-.1 42.4h30.2zm0-50.9c.1-.7.2-1.4.2-2V31.8c0-3.7-1.3-5-5-5H63.5c-3.2 0-4.6 1.3-4.6 4.3-.1 8.1 0 16.2 0 24.3 0 .3.1.7.2 1.1h30.1zM71.8 14.2v4.6h4.5v-4.6h-4.5zM0 19.6c0 2 1.8 3.8 3.8 3.9 2.1.1 4-1.8 4-3.9-.1-2-1.9-3.8-3.9-3.8S0 17.6 0 19.6zM10.4 0C8.2-.1 6.3 1.8 6.3 3.9c0 1.9 2 3.8 3.9 3.8C12.3 7.7 14 6 14 3.9c.1-2.1-1.5-3.9-3.6-3.9zm15.2 19.6c0 2.1 1.6 3.8 3.7 3.9 2.1.1 4.1-1.8 4-3.9 0-2-1.9-3.8-3.9-3.8s-3.8 1.7-3.8 3.8zm12.6-9.4c0 1.9 1.9 3.8 3.9 3.9 2.1 0 4-1.9 3.9-4-.1-2.1-1.9-3.8-3.9-3.7-2 0-3.9 1.8-3.9 3.8zM42.3 33c2.1-.1 3.8-1.8 3.7-3.8 0-2.1-1.8-3.8-3.8-3.8-2.1 0-4 2-3.9 4 .1 2 1.9 3.6 4 3.6zm-16-22.1c2-.1 3.8-1.9 3.8-3.9 0-2.1-2-3.9-4.1-3.8-2.1.1-3.6 1.9-3.6 4 .1 2 1.9 3.8 3.9 3.7zm0 17.6c-2.1-.1-3.8 1.6-3.9 3.7-.1 2.1 1.5 3.8 3.6 4 2.2.1 4.1-1.6 4.1-3.8 0-2.1-1.8-3.9-3.8-3.9zm-16 10.8c2.1 0 3.8-1.7 3.7-3.8 0-2.1-1.6-3.8-3.8-3.8-2.1 0-4 1.9-3.9 3.9.2 2.1 1.9 3.7 4 3.7zm2.6-19.6c0 2.1 1.7 3.8 3.7 3.9 2.2 0 3.9-1.8 3.8-4-.1-2.1-1.8-3.8-3.8-3.7-2-.1-3.7 1.7-3.7 3.8z"></path>
  </symbol>
  <symbol xmlns="http://www.w3.org/2000/svg" viewBox="0 0 95.9 115.1" id="ico2">
    <path d="M47.1 21.6v-6.9H18.7c-5 0-8.8 2.8-10 7.2-.4 1.3-.3 2.8-.3 4.1v1.2l-.1 81.4v2.4c-.2 2.5-1.9 4.1-4.2 4.1-2.3 0-4-1.6-4-4.2V25.1C0 17 4.7 10.2 12.2 7.8c2-.7 4.3-.9 6.4-1 8.5-.1 16.9 0 25.4 0h3.1c.1-1 .1-1.8.2-2.6.3-2.7 1.8-4 4.5-4.1h12.5C67.4 0 69 1.6 69 4.7v16.8s1.3.6 1.9.8c13.8 5.4 22 15.4 24.6 30 .1.5.1 1 .1 1.6.1 5.6.2 11.2.1 16.7 0 3-1.4 4.4-4.3 4.4H71.9c-3 0-4.4-1.6-4.4-4.6v-8.5H48.7c0 2.8-.2 5.5 0 8.1.2 3-1.6 5.1-4.9 5-6.2-.1-12.4-.1-18.6 0-3.4.1-5.1-2.1-5-4.9.2-4.2.1-8.4 0-12.5-.2-15 9.4-29.4 24.4-35 .9-.4 2.5-1 2.5-1zm40.1 31.7C86.4 42 74.9 27.6 56.7 28.2c-13.7.5-27.4 12.7-27.6 25.1h58.1zm.5 8.6H76v4.9h11.7v-4.9zm-59 0v4.9h11.7v-4.9H28.7zm32-42V8.3h-5.1v11.6h5.1z"></path>
    <path d="M37.8 51.3c-1.8 0-3.3-1.7-3.2-3.4.1-1.7 1.6-3 3.4-3 1.8 0 3.2 1.4 3.2 3.1 0 1.8-1.6 3.3-3.4 3.3zm8.6 0c-1.8 0-3.4-1.5-3.4-3.3 0-1.7 1.4-3.1 3.2-3.1 1.9-.1 3.4 1.4 3.4 3.2 0 1.6-1.5 3.1-3.2 3.2z"></path>
  </symbol>
  <symbol xmlns="http://www.w3.org/2000/svg" viewBox="0 0 187.9 117.5" id="ico3">
    <path d="M16.9 5.7c4.5-4 9.4-5.9 15.3-4.6 4.2.9 7.5 3.2 9.8 6.8 5.2 8.2 2.5 17.2-7.1 23.4 2.6 3.9 5.2 7.9 7.8 11.8 2.8 0 5.4-.1 8.3-.1 2.5-3.8 5.2-7.7 7.8-11.7-1.6-1.2-3.1-2.2-4.4-3.4-5.9-5.2-6.7-14.1-2.3-20.4 4.8-6.9 13.5-9 20.8-5 5.6 3 8.7 9.1 8.1 15.5-.6 6.3-5.1 11.8-11.4 13.5-1.8.5-3 1.4-4 3-2.5 4-5.4 7.9-7.9 11.9-.8 1.2-1.2 2.7-1.4 4.1l-6 62.4c-.1 1.1-.6 2.4-1.2 3.3-.8 1.2-2.1 1.4-3.5 1.1-1.4-.4-2.3-1.3-2.6-2.6-.2-1.2-.3-2.4-.4-3.6-1.8-20.3-3.5-40.6-5.3-60.9-.1-1.2-.6-2.6-1.2-3.6-2.7-4.3-5.6-8.4-8.3-12.6-.7-1.1-1.6-1.7-2.8-2-7.5-2-11.9-7.7-12-15.4 0-1.1-.1-2.3-.4-3.4-.6-2.7-2.4-4.4-5-5.2-1.4-.4-2.6-.4-3.8-.6-2.1-.4-3.5-2-3.3-4C.6 1.3 2.1-.1 4.3 0c4.1.2 7.9 1.2 11 4.1.5.4.9.9 1.6 1.6zm17.8 4.8c-3.2-3.3-8.7-3.2-12 0-3.3 3.3-3.4 8.7-.2 12 3.2 3.2 8.8 3.2 12 0 3.3-3.1 3.4-8.8.2-12zm24.6-.2c-3.5 3.4-3.6 8.5-.3 11.9 3.3 3.4 8.6 3.5 11.9.3 3.4-3.2 3.5-8.6.2-11.9-3.3-3.5-8.3-3.6-11.8-.3zm-13 59.1h.6c.6-6.2 1.2-12.5 1.7-18.5-1.5-.1-2.6-.2-4-.3.6 6.5 1.2 12.7 1.7 18.8zm65.6-15v25.4c1-.7 1.7-1.3 2.4-1.8 17.9-15 33.8-32 47.5-51 2.4-3.4 5.4-5.9 9.6-6.6 5.7-1 10.4.9 13.8 5.4 3.4 4.5 3.4 9.5.9 14.5-.7 1.3-1.6 2.5-2.5 3.7-19.6 26.9-43 50-70.2 69.2-4.1 2.9-8.5 4-13.3 2.4-5.4-1.8-8.3-5.8-9.1-11.4-.2-1.5-.2-3.1-.2-4.7v-85c0-3.7.7-7.1 3.4-9.8 1.6-1.6 3.4-2.7 5.6-3.2 3.3-.7 6.6-.8 9.8 0 4.7 1.2 8.1 5.2 8.7 10 .1 1 .2 2.1.2 3.1v29.5c0 2.4-.6 4.4-2.5 6-1.5 1.5-2.8 2.9-4.1 4.3zm68.3-19.9c-.2-2.5-.7-3.9-2.1-5.1-3-2.6-7.4-1.7-9.9 1.8C149.8 56.8 127.7 78.7 102 97c-.7.5-1.4 1-2 1.7-2 2.2-2.2 5.2-.4 7.7 1.7 2.5 4.5 3.3 7.4 2 1.1-.5 2.1-1.2 3.1-1.9 19.5-13.9 37-29.8 52.5-48 5.5-6.4 10.5-13.2 15.7-19.9.9-1.5 1.4-3.2 1.9-4.1zM104.1 86v-3.1c0-9.4.1-18.8 0-28.2 0-2.3.6-4 2.3-5.5 1.6-1.4 3-2.9 4.5-4.4V13.4c0-.4-.1-.9-.2-1.3-.8-2.6-2.6-3.4-7.1-3.2-2.9.1-4.5 1.2-5 3.6-.2.8-.1 1.7-.1 2.6v75.1c1.9-1.6 3.7-2.9 5.6-4.2z"></path>
    <path d="M172.8 31.7c2 0 3.8 1.9 3.8 3.9s-1.9 3.8-3.9 3.7c-2 0-3.8-1.8-3.8-3.9 0-1.9 1.9-3.7 3.9-3.7zm-65.2 72.6c-2.1 0-3.9-1.6-3.9-3.7s1.7-3.8 3.9-3.8c2 0 3.7 1.6 3.8 3.6 0 2.1-1.7 3.9-3.8 3.9z"></path>
  </symbol>
  <symbol xmlns="http://www.w3.org/2000/svg" viewBox="0 0 80.9 122.2" id="ico4">
    <path d="M77.8 103.6h-4.1s0-.1-.1-.2c-.2-.8-.6-1.4-.9-2.1-.1-.2-.2-.5-.4-.7-.6-1.3-1.3-2.6-1.9-3.8-1.4-2.8-2.8-5.6-4.1-8.4 0 0 0-.1-.1-.1l.2-.2c2.7-2 3.8-4.6 3.8-7.7v-4.5c0-2.2-.8-4.3-2.3-6-1.7-1.7-3.9-2.7-6.4-2.7H30.9c1.5-2.1 2.8-5 1.2-8.7-.1-.2-.1-.4-.2-.7h31.6c1.1 0 1.4.3 1.5.4.5.3.8.6 1 .9.8 1 1.4 1.8 1.5 2.9 0 .5.2.9.3 1.2.3.9 1.1 1.6 2 2 .9.4 2 .4 2.8 0 1.2-.5 1.9-1.8 1.7-3.2 0-.2-.1-.4-.1-.5 0-.1 0-.2-.1-.3-.9-5-3.3-8.1-7.5-9.6-.4-.2-.6-.3-.8-.7-.7-1.5-2.1-2.3-4-2.3H39.9c-2.1 0-3.5.9-4.3 2.6h-5.5c0-.2-.1-.4-.2-.6 0-.1-.1-.2-.1-.3l-4.2-15.9c-.3-1.3-.7-2.5-1-3.8-.7-2.6-1.4-5.3-2.1-8-.5-1.9-1.6-3.5-3.5-4.7-.2-.1-.3-.2-.5-.3.5-1.6.5-3.1.5-4.6V7.6c0-.8-.2-1.7-.6-2.5C17.3 2.3 15 .5 11.7-.1c-2.3-.2-5 .6-7 2.4C2.8 3.9 1.8 6.1 2 8.4v5.3c0 .9 0 1.9.2 2.9.2.9.6 1.6 1 2.4-.1.1-.2.2-.3.2C1.1 20.5.2 22.3.1 24.8c0 1.1.1 2.1.2 3.1l.1.4c.3 2 .5 3.9.8 5.9l.9 6.3c.5 3.4.9 6.9 1.3 10.4.4 3.6.9 7.5 1.4 12 .5 4.8 4 8.5 8.4 9.2 1.5.2 3 .2 4.6.1h1.6c.1.1.2.2.3.4.7.8 1.5 1.7 2.3 2.6v5.7c.2 3.7 1.7 6.2 4.5 7.8 1.5.8 3 1 4.2.9h12.2v4H40c-2.3 0-3.1 1.7-3.1 3.5v.3c-.3.1-.6.2-.8.2l-1 .2c-2.7.5-5.5 1-8.2 1.5l-1.8.3c-2.6.5-5.1.9-7.7.7-1-.1-2.1 0-3 0-.6 0-1.2.1-1.8.3-1.5.4-1.4 4.3.4 4.7 3.4.7 6.7.3 10-.2h.3c2.9-.4 5.8-1 8.6-1.6 1.4-.3 5.1-1 5.1-1v3.8h-9.5c-4.2 0-7.6 3.5-7.7 7.7v4.5c0 2.4 1.1 3.5 3.4 3.7h48.7c2.2-.2 3.2-1.4 3.3-3.5v-3.1c.1-1.6 0-3.6-1.1-5.3H78c1.9-.1 3-1.3 3-3.3-.1-2.1-1.2-3.3-3.2-3.4zM12.7 13.1v1.3c0 1.1-.9 1.9-2 2-.4 0-1-.2-1.4-.6-.4-.4-.7-.9-.7-1.3V8.6c0-.4.2-.9.6-1.2.4-.3.8-.5 1.3-.5h.1c.8.1 1.9.4 2 1.8.1.7 0 1.4 0 2.2V12l.1 1.1zM8.5 24h.4c1.8-.2 3.6-.5 5.3-.5h.4c1 0 1.3.2 1.7 1.7.6 2 1.1 4.1 1.7 6.1 1.1 4 2.3 8.2 3.4 12.3.5 2 1 4 1.5 6.1.1.6.3 1.1.4 1.7h-4.4c-2.1 0-3.5 1.3-3.5 3.1S17.1 58 19 58h6c.1.5.3.9.5 1.4.4 1.2.8 2.1.5 3.1-.3 1-1 1.6-2.7 2.1-.6.2-1.2.2-1.9.3-.3 0-.6.1-.9.1l-2.7.3c-.6.1-1.1.1-1.7.2-.9.1-1.9-.2-3.2-.9-1.1-.7-1.5-1.8-1.6-2.6-.2-1.4-.3-2.9-.5-4.3-.1-1.3-.3-2.7-.5-4-.2-1.7-.5-3.5-.7-5.2-.2-1.2-.3-2.3-.5-3.5l-.3-2.4c-.1-.6-.1-1.1-.2-1.7-.2-1.2-.3-2.4-.5-3.6-.3-2.2-.6-4.4-.8-6.6-.1-1.1-.2-2.2-.3-3.2-.1-.8-.1-1.3-.2-2.1-.1-1 1.5-1.4 1.7-1.4zm60 90.7v.7s-33 .1-42.1.1v-.2c0-.7 0-1.2.4-1.7s.7-.7 1.1-.7H66c1.1 0 1.6.1 1.9.6.5.5.6.8.6 1.2zM31 82.8c-1.8 0-2.3-.5-2.3-2.5v-4.6c0-1.5 1.3-1.8 2.4-1.8h30.4c1.3.1 2.1.8 2.1 2.1v4.8c0 1.2-.8 2-2 2-2.8.1-27.1 0-30.6 0zm12.6 17.3h6.7v6.2h-6.7v-6.2zm12.8-3.3c-.1-2.1-1.2-3.3-3.2-3.3h-2.7v-3.9H56s2 .1 3.1 0c.4 0 .4.1.5.3 1.5 3.2 3 6.3 4.6 9.5l3.3 6.9h-11c-.1-.1-.1-9.2-.1-9.5z"></path>
  </symbol>
  <symbol xmlns="http://www.w3.org/2000/svg" viewBox="0 0 117.4 135" id="ico5">
    <path d="M61.8 44c-.4-3.9-2.3-6.7-5.2-8.9-2.9-2.2-6.1-3.6-9.6-4.6-3.9-1.1-4.9-2.7-4.1-6.7 1.6-8.3 8.5-13.7 17.8-13.9 6.5-.1 13.1-.1 19.6-.1 9.5 0 19 0 28.5.1.6 0 1.2 0 1.8.1 2.3.3 3.7 1.6 3.7 3.9.1 4.1.1 8.2 0 12.3 0 2.3-1.2 3.5-3.4 4-1.2.3-2.4.5-3.5.8-.1 0-.1.1-.3.3.1.4.1.9.3 1.3 2.1 6.9 5 13.5 9 19.6 1.4 2 1.3 3.5 0 5-1.2 1.4-2.9 1.7-5 .8-.9-.4-1.8-.8-2.5-1.4-3.5-2.7-7-5.4-10.4-8.3-2.3-2-4.3-4.4-6.5-6.7-.8 1.1-1.7 2.1-2.6 3.3 2.8 3.7 5.5 7.4 8.2 11l8.7 11.4c1.2 1.5 1.6 3.1 1.3 5.1-1.7 12.4-3.2 24.8-4.7 37.3-.4 3.5-.8 6.9-1.2 10.4-.5 4-1.7 5.1-5.7 5.1H54.4c-3.9 0-5.1-1.2-5.5-5-.9-7.7-2-15.4-2.9-23-1-7.6-1.9-15.2-2.8-22.8-.1-.5-.1-1.1-.2-1.5-.7-2.2.1-4 1.5-5.8C50 60 55.3 52.8 60.7 45.7c.4-.6.7-1.1 1.1-1.7zm32.5 73.3c1.3-10.2 2.5-20 3.8-30.1H52.7c1.3 10.1 2.5 20.1 3.8 30.1h37.8zm-42.6-38H99c.3-1.9.5-3.7.7-5.5.2-1.5-.1-2.7-1.1-3.8-1.4-1.7-2.6-3.5-4-5.2-3.9-5.1-7.8-10.3-11.6-15.3H67.5C61.8 57 56.2 64.4 50.6 71.8c.4 2.4.7 4.8 1.1 7.5zm-.6-55.7c8.5 3.2 15.7 7.8 18.2 17.4h13.4c5.9-8.8 13.4-15.3 23.6-17.9v-5.5H60.7c-4.6 0-8.1 2.2-9.6 6zm50.2 16.6l.3-.3c-.6-1.8-1.2-3.5-1.9-5.5-.9.7-1.4 1.1-2.1 1.7 1.3 1.4 2.5 2.8 3.7 4.1zm-68.1 89.4c0-5.4-.1-113.8-.1-119.8S29.4 0 23.2 0H5S3.9 0 3.3.1C1.4.3 0 1.7 0 3.6c0 2.1 1.6 4 3.7 4h8.8v5.2H4.4c-3 0-4.5 1.5-4.5 3.8 0 2 1.8 3.9 4.2 3.9h8.4v5.1H4.1C1.9 25.5 0 27 0 29.3 0 31.6 1.9 33 4.2 33h8.3v5.1H4.4c-2.5 0-4.4 1.3-4.4 3.7 0 2.4 1.7 3.9 4 3.9h8.6v5.1H3.9c-2.4 0-3.9 1.8-3.9 4s1.6 3.7 4.2 3.7l8.3-.1v5.1H4.1c-2.5 0-4.2 1.7-4.1 3.9.1 2.1 1.8 3.7 4.1 3.7h8.4c0 2.5 0 5.6-1 7.2-1.1 1.8-2.7 3.2-4.8 4.1-2.5 1-3.3 2.5-3.3 5.1v41.9c0 3.5 1.5 5.5 3.9 5.5 2.3 0 3.8-1.9 3.8-5.6V90.4h3.2s.1 27.3.1 39c0 3.5 1 5.5 3.8 5.5 2.5 0 3.9-1.7 3.9-5.4V90.3h3.8v38.9s0 1.8.1 2.6c.4 1.8 1.7 3 3.5 3s3.1-1.2 3.5-3c.2-.6.2-1.5.2-2.2zM18 82.8c2.1-4.1 2.6-8.2 2.6-12.4 0-20.6-.1-62.8-.1-62.8h5.1v75.1c0 .1-4.6.1-7.6.1z"></path>
  </symbol>
  <symbol xmlns="http://www.w3.org/2000/svg" viewBox="0 0 120 120" id="ico6">
    <path d="M120 47.4v10.3c-.1.5-.2 1.1-.2 1.6-.4 7.5-1.6 15-3.8 22.2-1.9 6-4.3 11.7-8.5 16.6-3.7 4.3-8.3 7.1-14.2 7-4.7-.1-8.5-2.2-11.8-5.3-2.7-2.6-4.5-5.9-6.5-9-2.1-3.2-4.1-6.6-6.6-9.5-4.2-5-9.3-8.5-15.9-9.5-1.6-.3-3.1.6-3.6 2.3-.2.7-.3 1.4-.3 2.1v24.3c0 1.3.3 2.4 1.2 3.3 2 2 2.9 4.5 2.6 7.3-.1.6 0 1.2 0 1.8-.1 3.2-2 5.9-5 6.9-.4.1-.7.3-1 .4H28.6c-.4-.2-.8-.3-1.2-.5-2.3-.9-3.8-2.4-4.5-4.7-.3-.9-.4-1.9-.4-2.9V79.2c0-4.4-3.2-7.7-7.4-7.8-4.7-.1-8.3-2.2-11.1-5.8-5.3-7-5.4-18.2-.3-25.4 2.9-4.1 6.9-6.3 12-6.2 10.9.1 21.8 0 32.7 0 5.5 0 10.3-1.6 14.7-4.9 5.1-3.8 8.8-8.9 11.9-14.4 1.6-2.7 3.3-5.4 5.3-7.8C87.8-2 98.7-2.2 106.6 6c2.5 2.6 4.4 5.6 5.9 8.8 4.2 8.7 6.1 17.9 7 27.4.2 1.7.3 3.4.5 5.2zM76.7 71.2c1.7 7.8 3.7 15.3 8.8 21.6.4.5.9 1.1 1.4 1.5 4.4 4.1 9.2 4.2 13.6.1 2.3-2.1 3.9-4.7 5.2-7.4 3.8-7.8 5.4-16.1 6.3-24.6.7-7.4.6-14.7-.2-22.1-.9-7.2-2.4-14.3-5.4-21-1.6-3.6-3.6-6.9-6.7-9.5-3.9-3.2-8.3-3.3-12.1.1-1.6 1.5-3 3.3-4.3 5.1-2.5 3.7-4 7.9-5.2 12.2-.6 2.1-1 4.2-1.6 6.5 3 0 5.8.1 8.5 0 6-.2 10.4 2.6 13.2 7.7 3.7 6.7 3.9 13.8.7 20.7-2.8 6-7.4 9.3-14.2 9.1h-8zm-35.4-7.4c-2.7-3.5-3.8-7.2-3.8-11.3 0-4.1 1.1-7.8 3.7-11.2H15.6c-2.4 0-4.2 1-5.6 2.8-3.3 4.5-3.4 12.2 0 16.7 1.4 1.9 3.3 3 5.8 3 4.2-.1 8.4 0 12.6 0h12.9zM69.1 34h-.3c-.3.2-.7.5-1 .8-5.4 4-11.4 6.6-18.3 6.5-2.5 0-4.3 1-5.8 3-3.3 4.5-3.3 12.1 0 16.6 1.3 1.9 3.1 3 5.5 3 6.7 0 12.6 2.2 18 6.1.6.4 1.2.9 2 1.4-2.2-12.6-2.2-25-.1-37.4zm-41 37.3c.1.2.1.4.2.5 1.3 2.6 1.7 5.3 1.7 8.1v32.6h14.9c.3-1.8.1-3.4-1.2-4.8-1.6-1.8-2.4-4-2.4-6.4V74.9c0-1.2.3-2.3.4-3.6H28.1zm47.5-7.5c3.4 0 6.6-.1 9.8 0 2.5.1 4.4-1 5.8-2.9 3.4-4.6 3.3-12.5-.2-16.9-1.1-1.4-2.5-2.6-4.3-2.6-3.7-.1-7.4 0-11.2 0-.7 7.4-.7 14.8.1 22.4z"></path>
  </symbol>
  <symbol xmlns="http://www.w3.org/2000/svg" viewBox="0 0 37.1 120" id="ico7">
    <path d="M33.5 39.4H3.6c-2 0-3.6-1.6-3.6-3.6s1.6-3.6 3.6-3.6h29.9c2 0 3.6 1.6 3.6 3.6 0 1.9-1.6 3.6-3.6 3.6zm0 48.5H3.6c-2 0-3.6-1.6-3.6-3.6s1.6-3.6 3.6-3.6h29.9c2 0 3.6 1.6 3.6 3.6s-1.6 3.6-3.6 3.6z"></path>
    <path d="M31.3 80.7L5.8 64v23.7h25.5v-7zm0-24.7V33.9H5.8v5.5zm0 19V61.7L5.8 45.1v13.2zm-.1-46.5c2.7-3 4.4-7 4.4-11.4C35.6 7.6 28 0 18.6 0S1.5 7.6 1.5 17.1c0 4.4 1.7 8.4 4.4 11.4h25.3zm-25.3 63c-2.7 3-4.4 7-4.4 11.4 0 9.4 7.6 17.1 17.1 17.1s17.1-7.6 17.1-17.1c0-4.4-1.7-8.4-4.4-11.4H5.9z"></path>
  </symbol>
</svg>