<svg width="0" height="0" class="hidden">
  <symbol xmlns="http://www.w3.org/2000/svg" viewBox="0 0 117.1 180.1" id="barber">
    <path d="M3.9 34.2L1.8 33c1.6-2.2 2.9-4.4 4.6-6.4C15.8 15 27.4 6.4 42 2.5c9.5-2.6 19.2-3.6 28.9-.7 5.1 1.5 9.9 4 14 7.4 2.5 2 4.8 4.2 7.3 6 5.4 3.9 8.4 8.8 7.9 15.6 0 .4.1.7.3 1 1.9 1.2 4 2.3 5.9 3.6 7 4.7 10.5 11.4 10.7 19.7.1 7.1-.5 14.3-1.9 21.3-.3.9-.6 1.8-1 2.7-.4 1.2-.8 2.4-1.2 3.7-.5 1.7-.7 3.7-1.7 5.1-1.4 2.1-2.2 4.5-2.2 7-.8 12.2-2.9 24.3-6.2 36.2-3.2 11.4-7.5 22.3-15 31.8-5.8 7.3-12.4 13.6-21.6 16.1-6.6 1.8-13.5 1.8-19.9-1.3-9.2-4.5-16.1-11.5-21.6-20.1-6.4-10.1-10.2-21.2-12.7-32.7-1.8-8.1-2.8-16.3-4.1-24.5-.4-2.6-.7-5.3-1.1-7.9 0-.2 0-.4-.1-.5-2.6-4-3.3-8.7-4.7-13.2-1-3-1.5-6.1-1.7-9.2C0 63 .1 56.3 0 49.7c-.2-5.5 1.2-10.8 3.9-15.5zm92.4 14.6C85.7 58.4 76 59.7 64.9 59.9c-8.3.1-16.5-1.5-24.3-4.5-4.8-1.8-9.5-3.9-14.2-5.9-5.9-2.4-10.6-.4-12.9 5.4-1.3 3.3-1.7 6.8-1 10.3.8 4.2 1.6 8.5 2.4 12.7.6 3.4.2 6.8-2.2 9.4-1.6 1.7-1.6 3.5-1.7 5.5-.4 7.4 1.3 14.5 2.5 21.7.8 5.4 2.4 10.7 4.8 15.6.7 1.6 2 3 3.5 4 2.4 1.3 3 3.2 3.3 5.6.3 2.3.9 4.5 1.9 6.6.9 2.2 2.8 2.2 4.2.2 1.1-1.6 2.1-3.4 3-5.2 2-4 5.1-6 9.6-5.7 1.7.1 3.5.6 4.9 0 2.9-1.3 5.1-.2 7.4 1.2.9.4 1.8.8 2.7 1.1 1.3-.9 2.6-1.6 4-2.4.9-.4 2.1-.9 2.8-.6 2.7 1.3 5.6.7 8.4.7 2.9-.1 5.6 1.3 7.3 3.7 1.2 1.8 2.2 3.7 3.3 5.5.8 1.4 1.4 3.1 3.7 2.9 2.9-2 3.1-5.4 3.6-8.4.4-2.5.7-4.4 3.4-5.5 1.2-.6 2.1-1.6 2.7-2.8 1.7-3.4 3.1-6.9 4.1-10.6 1.6-6.6 2.9-13.3 3.8-20 .7-4.9 1.2-9.9-2.8-14.1-2.1-2.3-2.1-5.5-1.5-8.5.9-4.4 1.7-8.8 2.4-13.2.8-5.1-.2-9.6-4.4-13.1-1.1-.6-2-1.5-3.3-2.7zM62 159.4c.4 1.9.7 3.3 1.1 4.7 1.2 3.6 3.3 4.6 6.3 2.5 3.1-2.2 6.1-4.6 8.8-7.3 3.5-3.3 4.2-8.5 1.9-12.7-1.3-2.5-2.5-3.1-5.3-2.5-2.3.5-4.5 1.1-6.7 1.7-6.8 1.9-13.9 1.8-20.6-.3-2-.7-4.1-1.2-6.2-1.5-1.1-.2-2.3.1-3.2.7-2.3 1.6-3.7 8.8-2.2 11.1 3.1 4.8 7.4 8.6 12.5 11.1 2.5 1.2 4.2.6 5.1-1.9.5-1.9.8-3.8.9-5.7-3.6-1-6.1-2.7-7.1-6.5 7.2 1.5 14.6 1.6 21.9.2-.7 4-3.5 5.3-7.2 6.4z"></path>
  </symbol>
  <symbol xmlns="http://www.w3.org/2000/svg" viewBox="0 0 123.9 174.4" id="beginner">
    <path d="M39.4 28.6C27 30.8 17.4 39.9 15 51.4c-1.2 5.6 1.9 16.5 4.2 22.1 0-.4.2-13 1.1-16.6 2-7.8 8.5-13.6 20.5-12.5 10 1 20.1 1.8 30.1 2.3 4.1.3 8.4-.4 12.6-.7-5-6.6-15.8-12.9-25.4-16-6-2-12.4-2.5-18.7-1.4zm61.3 11.8c1.7-2 2.9-3.5 5.3-6.3C96 24 84.8 14.6 72.7 7.5 68.4 5 63.9 2.4 59.2 1.3c-11-2.7-24.9 3.3-29.8 7.5 24.4-4.5 51.5 11.4 71.3 31.6zm8-9.9c1.3-1.5 3-5-.4-9.5C97.8 7.4 83.5.7 67.2 0c18.5 8 30 17.5 41.5 30.5z"></path>
    <path d="M123.2 78.7c-.9-5.9-2.5-8-8-9.6-.1-1.2-.1-2.4 0-3.5 1.4-5.9 1.2-11.9.9-17.9-.2-5.2-2-10.2-5.3-14.3-4.1 5.1-8 10-11.8 14.6 1.5 2.4 3.5 4.2 3.8 6.4.8 5 1.6 10.2.8 15.3-.4 2.2-.4 4.4-.2 6.6.6 5.2 1.6 10.4 2.4 15.7 1.4-1.3 1.7-3.3 2.2-5.2.8-3 1.3-6 2.3-8.9.4-2.1 2.4-3.5 4.5-3.1h.1c2.5.3 4.1 1.7 4.2 4.2.4 8.4.1 16.8-3.9 24.5-.9 1.8-1.9 3.8-3.4 4.9-1.3 1-3.3.9-5.5 1.4-3 8-6.3 16.2-9.1 24.6a66.31 66.31 0 0 1-19.7 29.2c-3 2.5-6.7 4-10.5 4.2-2.5.2-5 .2-7.5.1-9.4-.3-18.1-4.9-23.6-12.5-6.1-8-10.9-16.9-14.2-26.4-2.2-6.4-4.1-12.9-6.2-19.4-5.3.5-6.7-.3-9-5.6C3.8 97.9 3 91.2 2.4 84.6c-.2-2.2.9-4.6 1.6-6.9.4-1.7 1.9-3 3.7-2.9 1.9 0 2.7 1.3 3.2 2.7.9 2.7 1.6 5.5 2.4 8.3.6 2.2.8 4.6 3 6.6.3-1.5.5-2.6.8-3.7.3-1.7.3-3.5 1-5 1.2-2.4 1.2-4.3 1.3-6.4-.2-.1-.4-.2-.7-.3.2.1.5.2.7.3-2.4-2.2-4.6-6.8-5.4-8.3-5.9-11.3-4.4-23.6 4-33 10.5-12 23.6-15 38.4-11.8C67.3 26.5 83 38 91.6 45.1c1.8 0 5.1-1.3 7.1-2.4-5.2-4.3-13.4-11-18.5-14.7-17.9-12.8-36.5-18.3-53-14.3C17.3 16 7.9 25.2 5.3 31.4c-2.9 7.2-3.4 13.9-3 20.6.4 5.7 2.1 11.3 5.1 16.2-5.2 2.7-5.5 2.7-6.6 8.4-2 11.2-.1 22.8 5.5 32.7.7 1.5 1.9 2.8 3.4 3.7 3 1.4 3.8 3.8 4.7 6.7 4.4 14.6 10.5 28.3 19.6 40.7 9.2 12.6 25.8 16.9 39.8 11.9 2.5-.9 4.8-2.3 6.8-4.1 9.8-8.8 17-20 21-32.5 2-6.3 4.5-12.5 6.7-18.7.5-1.4 1.1-2.5 2.7-2.6 2.7-.1 4.3-2 5.5-4 2-3 3.6-6.1 5-9.5 2.3-7.1 3-14.8 1.7-22.2z"></path>
  </symbol>
  <symbol xmlns="http://www.w3.org/2000/svg" viewBox="0 0 108.9 191.3" id="topbarber">
    <path d="M104.9 68.2c.1-.4.2-.8.2-1.2l.6-3.3c.3-1.5.6-3 1-4.5.2-.7.3-1.3.4-2 0-.2.1-.4.1-.6.1-.5.2-1.1.3-1.6 0-.2.1-.3.1-.5.1-.7.3-1.4.4-2.1v-.2l.3-1.8c0-.2 0-.3.1-.5.1-.6.1-1.2.2-1.8v-.3c.1-.7.1-1.4.1-2.1v-2.6c-.1-3.6-.8-7.2-2.1-10.5-.1-.4-.7-.5-1.3-.9-1.2 1.4-2.4 2.8-4.4 5.2.5-7.4-1.8-13-4.9-18.2-3-5-6.6-9.6-13.5-11 5.6 9.8 6.2 11.7 5.7 17.3C82.7 8.4 74 .9 61.3 1.7c2.8 3.1 6.9 5.2 7.8 9.8C62.7 5.4 55.4 1.4 47.3 0c-4 .6-7.5.9-10.9 1.7-3.3.8-6.5 2-11.2 3.5 12.4 1.7 19 4.6 25.5 11-2.9-1.1-5.6-2.7-8.5-3.8-6.1-2.2-12-4.8-18.9-2.6C7.1 15.2-2.1 30.1.4 47.4c7.6-15 17.5-21.7 28.9-19.7-.4.2-.9.4-1.4.6C11.8 30.2 0 44.2 4.9 62.5c2.6 10 4 20.3 4 30.7H9v3.3c-.1 5.8-.1 11.6-.1 17.5 0 4.8.1 9.6.1 14.4.9 1.4 1.9 2.9 2 3.1 0 10.7 3.3 19.6 3.7 28.9.5 10.4 6.2 17.2 14.6 22.3.8.5 1.7 1 2.9 1.8.7-1.4 1.1-2 1.7-3.1 1.3 1.8 2.5 3.5 3.8 5.2 11.3 6.1 25 6.1 36.3 0 1.3-1.7 2.5-3.4 3.8-5.2.6 1.1 1 1.8 1.7 3.1 1.2-.8 2-1.3 2.9-1.8 8.4-5.2 14.1-12 14.6-22.3.4-9.3 3.7-18.3 3.7-28.9.2-.3 1.1-1.7 2-3.1 0-4.8 0-9.6.1-14.4 0-5.8 0-11.7-.1-17.5v-.9c-.2-9.2.6-18.3 2.2-27.4zM90.6 80.7c-.4-.2-.8-.4-1.3-.5-.1 0-.2-.1-.3-.1-.5-.2-.9-.3-1.4-.4-.5-.1-1-.2-1.6-.3-.1 0-.3 0-.4-.1-5.1-.6-10.2-.5-15.2.5-2.3.5-4.6 1.2-6.8 2.3-2.2 1-4 2.8-5 5.1h-6c-1-2.3-2.7-4.1-5-5.1-2.1-1.1-4.4-1.8-6.8-2.3-6.8-1.3-15.5-1.4-20.2.9-2.6 1.2-5.5 1.3-8.2.2.7-7.6 1.5-14.8 1.9-22 .3-4.7 1.5-8.8 5.1-12 1-.8 2.2-1.5 3.4-2 10.4 4.2 21.4 6.3 32.6 6.3 5.5 0 11-.6 16.3-1.6h.2c1.3-.3 2.6-.5 3.9-.9.2-.1.5-.1.7-.2 1.1-.3 2.3-.6 3.4-.9.5-.1 1-.3 1.5-.5.9-.3 1.8-.5 2.6-.8 1.4-.5 2.8-1 4.1-1.5 6.2 3.4 7.9 8.3 8.3 14.2.5 7.2 1.2 14.4 1.9 22-2.1 1-5.1.9-7.7-.3zm-20.3 65.6c-2.7.4-5.5.2-8.1-.4-4.1-1.2-8.5-1.2-12.7 0-2.7.6-5.4.7-8.1.4-1.3-.1-2.6-1.6-4.2-2.7 2.2-1.7 4.7-3 7.3-4h.2c3.7-1.4 7.7-2.2 11.1-3.8 3.4 1.6 7.4 2.4 11.1 3.8h.2c2.6 1 5.1 2.3 7.3 4-1.6 1.1-2.8 2.5-4.1 2.7zm27.2-38.7c-1.2 2.3-2.6 4.4-4.3 6.3-5.5 6-8.6 12.8-10.5 20.8.8 1.1 1.6 2.3 2.5 3.6-7.9-4.3-13.7-11.9-23.5-12.6-1.9.8-4 1.7-6 2.7-2-.9-4.1-1.8-6-2.7-9.8.8-15.6 8.4-23.5 12.6.9-1.2 1.8-2.5 2.5-3.6-1.9-8-5-14.7-10.5-20.8-1.7-1.9-3.2-4-4.3-6.3-1.5-2.9-2.4-6.1-2.7-9.3-.4-4.1-.8-5.8 1.3-9.3 2.3 5.7 2.7 10.7 6.2 14.4 5.7 6.2 15.1 4.2 21.5 3.6 6.5-.6 8.4-6.3 11.1-11.4 1.2-2.1 1.4-5.5 4.3-5.7 2.9.3 3.1 3.6 4.3 5.7 2.8 5.1 4.6 10.7 11.1 11.4 6.5.6 15.8 2.6 21.5-3.6 2-2.2 3-4.8 4-7.8.4-1.3.8-2.7 1.3-4.2 0-.1.1-.3.1-.4.2-.7.5-1.3.7-2 .2.4.4.8.6 1.1.1.1.1.2.2.3.1.3.2.5.3.7 0 .1.1.2.1.3l.3.9c.1.3.1.6.1.9v1.3c0 1.1-.2 2.2-.3 3.7 0 3.4-.9 6.5-2.4 9.4z"></path>
  </symbol>
  <symbol xmlns="http://www.w3.org/2000/svg" stroke='none' viewBox="0 0 12167.3 12785.7" shape-rendering="geometricPrecision" text-rendering="geometricPrecision" image-rendering="optimizeQuality" fill-rule="evenodd" clip-rule="evenodd" id="girl">
    <path d="M4265.95 8560.28c-158.75-21.17-317.5-39.69-476.25-63.5-431.27-60.85-859.9-121.71-1270-275.17-190.5-71.44-381-148.17-510.65-312.21-71.44-89.96-129.65-198.44-166.69-309.56-44.98-129.65 2.65-240.77 89.96-351.9 79.38-103.19 145.52-227.54 174.63-354.54 71.44-325.44 129.65-656.16 169.33-989.53 89.96-754.06 134.94-1516.06 275.17-2264.83 113.77-613.83 277.81-1211.79 563.56-1770.06C3644.18 839.75 4482.91 241.79 5623.26 61.88c240.77-37.04 486.83-44.98 727.6-60.85 153.45-10.58 259.28 58.21 325.43 198.44C6734.5 318.53 6798 437.6 6853.56 559.3c23.81 50.27 52.92 71.44 108.48 74.08 388.94 23.81 764.65 92.6 1129.77 232.83 767.29 298.98 1256.77 862.54 1547.81 1613.96 219.6 566.21 317.5 1161.52 354.54 1762.13 37.04 574.15 42.33 1150.94 74.08 1727.73 18.52 317.5 58.21 632.34 97.9 947.2 15.88 129.65 74.08 246.06 166.69 346.6 97.9 105.83 84.67 235.48 42.33 362.48-44.98 129.65-134.94 222.25-243.42 298.98-256.65 182.56-542.4 301.63-846.67 370.42-436.56 95.25-881.06 166.69-1320.27 248.71-21.17 5.29-42.33 7.94-66.15 13.23-2.65 100.54 52.92 169.33 111.13 235.48 161.4 187.85 367.77 322.79 592.67 420.69 439.21 190.5 883.71 370.42 1325.56 558.27 428.63 182.56 846.67 388.94 1214.44 679.98 642.94 510.65 973.67 1182.69 1023.94 1997.6 13.23 195.79-119.06 330.73-322.79 333.38-359.83 2.65-722.31 2.65-1082.15 2.65l-10400.75-.03c-259.29 0-383.65-132.29-357.19-388.94 15.88-148.17 34.4-298.98 68.79-444.5 174.62-777.88 645.58-1336.15 1314.98-1743.6 433.92-264.58 904.88-447.15 1373.19-635 301.63-121.71 603.25-248.71 899.58-383.65 187.85-84.67 354.54-201.08 492.13-357.19 66.15-82.02 124.35-158.75 113.77-272.52v.01zm-1817.69-1050.4c37.04 23.81 76.73 55.56 119.06 71.44 158.75 58.21 317.5 132.29 481.54 164.04 518.58 95.25 1039.81 177.27 1561.04 256.65 216.96 31.75 325.44 145.52 314.85 365.13-5.29 97.9-21.17 198.44-21.17 296.33 0 44.98 15.88 108.48 47.63 132.29 108.48 76.73 219.6 156.1 341.31 201.08 473.6 171.98 957.79 185.21 1439.32 39.69 153.46-44.98 293.69-132.29 433.92-209.02 79.38-42.33 119.06-116.42 103.19-214.31-10.58-76.73-13.23-153.46-21.17-227.54-29.1-214.31 82.02-351.9 298.98-381 346.6-47.63 690.56-95.25 1034.52-156.1 357.19-63.5 709.08-158.75 1037.17-320.15 52.92-26.46 100.54-55.56 158.75-89.96-148.17-195.79-232.83-404.81-259.29-637.65-18.52-179.92-42.33-362.47-50.27-542.39-31.75-682.63-47.63-1367.9-89.96-2050.52-37.04-574.15-140.23-1137.71-381-1669.52-246.06-547.69-635-949.85-1209.15-1153.58-333.38-119.06-677.33-166.69-1029.23-161.4-179.92 2.65-304.27-66.15-373.05-235.48-39.69-95.25-95.25-187.85-137.58-283.1-21.17-50.27-52.92-66.15-105.83-60.85-187.85 23.81-378.35 37.04-566.21 68.79-582.08 105.83-1095.38 349.25-1494.9 801.69-261.94 296.33-449.79 640.29-595.31 1005.42-259.29 653.52-378.35 1336.15-457.73 2029.35-68.79 590.02-124.35 1180.04-190.5 1770.06-47.63 415.39-111.13 830.78-386.29 1172.09 0 0 0 5.29-2.65 18.52h.01zm9030.22 4659.31c0-23.81 2.65-44.98-2.65-63.5-68.79-201.08-121.71-410.1-214.31-597.96-171.98-357.19-478.9-592.67-806.98-796.4-391.58-240.77-817.56-407.46-1240.9-576.79-568.85-227.54-1150.94-428.63-1606.02-867.83-449.79 341.31-963.08 470.96-1513.41 470.96s-1068.92-111.13-1500.19-433.92c-209.02 137.58-391.58 283.1-597.96 386.29-296.33 150.81-603.25 277.81-910.17 402.17-465.67 190.5-936.62 362.48-1370.54 621.77-502.71 301.63-867.83 709.08-1002.77 1293.81-10.58 50.27-21.17 103.19-31.75 158.75 3606.27 2.65 7199.3 2.65 10797.64 2.65h.01z"></path>
  </symbol>
</svg>