<svg xmlns="http://www.w3.org/2000/svg" stroke='none' fill='#fff' viewBox="0 0 12167.3 12785.7" shape-rendering="geometricPrecision" text-rendering="geometricPrecision" image-rendering="optimizeQuality" fill-rule="evenodd" clip-rule="evenodd" id="girl">
    <path d="M4265.95 8560.28c-158.75-21.17-317.5-39.69-476.25-63.5-431.27-60.85-859.9-121.71-1270-275.17-190.5-71.44-381-148.17-510.65-312.21-71.44-89.96-129.65-198.44-166.69-309.56-44.98-129.65 2.65-240.77 89.96-351.9 79.38-103.19 145.52-227.54 174.63-354.54 71.44-325.44 129.65-656.16 169.33-989.53 89.96-754.06 134.94-1516.06 275.17-2264.83 113.77-613.83 277.81-1211.79 563.56-1770.06C3644.18 839.75 4482.91 241.79 5623.26 61.88c240.77-37.04 486.83-44.98 727.6-60.85 153.45-10.58 259.28 58.21 325.43 198.44C6734.5 318.53 6798 437.6 6853.56 559.3c23.81 50.27 52.92 71.44 108.48 74.08 388.94 23.81 764.65 92.6 1129.77 232.83 767.29 298.98 1256.77 862.54 1547.81 1613.96 219.6 566.21 317.5 1161.52 354.54 1762.13 37.04 574.15 42.33 1150.94 74.08 1727.73 18.52 317.5 58.21 632.34 97.9 947.2 15.88 129.65 74.08 246.06 166.69 346.6 97.9 105.83 84.67 235.48 42.33 362.48-44.98 129.65-134.94 222.25-243.42 298.98-256.65 182.56-542.4 301.63-846.67 370.42-436.56 95.25-881.06 166.69-1320.27 248.71-21.17 5.29-42.33 7.94-66.15 13.23-2.65 100.54 52.92 169.33 111.13 235.48 161.4 187.85 367.77 322.79 592.67 420.69 439.21 190.5 883.71 370.42 1325.56 558.27 428.63 182.56 846.67 388.94 1214.44 679.98 642.94 510.65 973.67 1182.69 1023.94 1997.6 13.23 195.79-119.06 330.73-322.79 333.38-359.83 2.65-722.31 2.65-1082.15 2.65l-10400.75-.03c-259.29 0-383.65-132.29-357.19-388.94 15.88-148.17 34.4-298.98 68.79-444.5 174.62-777.88 645.58-1336.15 1314.98-1743.6 433.92-264.58 904.88-447.15 1373.19-635 301.63-121.71 603.25-248.71 899.58-383.65 187.85-84.67 354.54-201.08 492.13-357.19 66.15-82.02 124.35-158.75 113.77-272.52v.01zm-1817.69-1050.4c37.04 23.81 76.73 55.56 119.06 71.44 158.75 58.21 317.5 132.29 481.54 164.04 518.58 95.25 1039.81 177.27 1561.04 256.65 216.96 31.75 325.44 145.52 314.85 365.13-5.29 97.9-21.17 198.44-21.17 296.33 0 44.98 15.88 108.48 47.63 132.29 108.48 76.73 219.6 156.1 341.31 201.08 473.6 171.98 957.79 185.21 1439.32 39.69 153.46-44.98 293.69-132.29 433.92-209.02 79.38-42.33 119.06-116.42 103.19-214.31-10.58-76.73-13.23-153.46-21.17-227.54-29.1-214.31 82.02-351.9 298.98-381 346.6-47.63 690.56-95.25 1034.52-156.1 357.19-63.5 709.08-158.75 1037.17-320.15 52.92-26.46 100.54-55.56 158.75-89.96-148.17-195.79-232.83-404.81-259.29-637.65-18.52-179.92-42.33-362.47-50.27-542.39-31.75-682.63-47.63-1367.9-89.96-2050.52-37.04-574.15-140.23-1137.71-381-1669.52-246.06-547.69-635-949.85-1209.15-1153.58-333.38-119.06-677.33-166.69-1029.23-161.4-179.92 2.65-304.27-66.15-373.05-235.48-39.69-95.25-95.25-187.85-137.58-283.1-21.17-50.27-52.92-66.15-105.83-60.85-187.85 23.81-378.35 37.04-566.21 68.79-582.08 105.83-1095.38 349.25-1494.9 801.69-261.94 296.33-449.79 640.29-595.31 1005.42-259.29 653.52-378.35 1336.15-457.73 2029.35-68.79 590.02-124.35 1180.04-190.5 1770.06-47.63 415.39-111.13 830.78-386.29 1172.09 0 0 0 5.29-2.65 18.52h.01zm9030.22 4659.31c0-23.81 2.65-44.98-2.65-63.5-68.79-201.08-121.71-410.1-214.31-597.96-171.98-357.19-478.9-592.67-806.98-796.4-391.58-240.77-817.56-407.46-1240.9-576.79-568.85-227.54-1150.94-428.63-1606.02-867.83-449.79 341.31-963.08 470.96-1513.41 470.96s-1068.92-111.13-1500.19-433.92c-209.02 137.58-391.58 283.1-597.96 386.29-296.33 150.81-603.25 277.81-910.17 402.17-465.67 190.5-936.62 362.48-1370.54 621.77-502.71 301.63-867.83 709.08-1002.77 1293.81-10.58 50.27-21.17 103.19-31.75 158.75 3606.27 2.65 7199.3 2.65 10797.64 2.65h.01z"></path>
  </svg>