<?xml version="1.0" encoding="UTF-8" standalone="no"?>
<svg
   xmlns:dc="http://purl.org/dc/elements/1.1/"
   xmlns:cc="http://creativecommons.org/ns#"
   xmlns:rdf="http://www.w3.org/1999/02/22-rdf-syntax-ns#"
   xmlns:svg="http://www.w3.org/2000/svg"
   xmlns="http://www.w3.org/2000/svg"
   xmlns:sodipodi="http://sodipodi.sourceforge.net/DTD/sodipodi-0.dtd"
   xmlns:inkscape="http://www.inkscape.org/namespaces/inkscape"
   inkscape:version="1.0beta1 (32d4812, 2019-09-19)"
   height="483.24008"
   width="459.86633"
   sodipodi:docname="girl.svg"
   id="svg12"
   version="1.1"
   viewBox="0 0 459.86634 483.24009">
  <metadata
     id="metadata18">
    <rdf:RDF>
      <cc:Work
         rdf:about="">
        <dc:format>image/svg+xml</dc:format>
        <dc:type
           rdf:resource="http://purl.org/dc/dcmitype/StillImage" />
      </cc:Work>
    </rdf:RDF>
  </metadata>
  <defs
     id="defs16" />
  <sodipodi:namedview
     inkscape:current-layer="svg12"
     inkscape:window-maximized="0"
     inkscape:window-y="23"
     inkscape:window-x="0"
     inkscape:cy="368.51662"
     inkscape:cx="290.89419"
     inkscape:zoom="0.90732807"
     showgrid="false"
     id="namedview14"
     inkscape:window-height="786"
     inkscape:window-width="1440"
     inkscape:pageshadow="2"
     inkscape:pageopacity="0"
     guidetolerance="10"
     gridtolerance="10"
     objecttolerance="10"
     borderopacity="1"
     inkscape:document-rotation="0"
     bordercolor="#fff"
     pagecolor="#fff" />
  <path
     inkscape:connector-curvature="0"
     id="path10"
     fill='#fff'
     d="m 161.23198,323.54009 c -6,-0.8 -12,-1.5 -18,-2.4 -16.3,-2.3 -32.5,-4.6 -47.999994,-10.4 -7.2,-2.7 -14.4,-5.6 -19.3,-11.8 -2.7,-3.4 -4.9,-7.5 -6.3,-11.7 -1.7,-4.9 0.1,-9.1 3.4,-13.3 3,-3.9 5.5,-8.6 6.6,-13.4 2.7,-12.3 4.9,-24.8 6.4,-37.4 3.4,-28.5 5.1,-57.3 10.4,-85.6 4.299994,-23.2 10.499994,-45.8 21.299994,-66.9 20,-38.9 51.7,-61.5000006 94.8,-68.3000006 9.1,-1.40000003 18.4,-1.70000006 27.5,-2.30000006 5.8,-0.4 9.8,2.20000006 12.3,7.50000006 2.2,4.5000006 4.6,9.0000006 6.7,13.6000006 0.9,1.9 2,2.7 4.1,2.8 14.7,0.9 28.9,3.5 42.7,8.8 29,11.3 47.5,32.6 58.5,61 8.3,21.4 12,43.9 13.4,66.6 1.4,21.7 1.6,43.5 2.8,65.3 0.7,12 2.2,23.9 3.7,35.8 0.6,4.9 2.8,9.3 6.3,13.1 3.7,4 3.2,8.9 1.6,13.7 -1.7,4.9 -5.1,8.4 -9.2,11.3 -9.7,6.9 -20.5,11.4 -32,14 -16.5,3.6 -33.3,6.3 -49.9,9.4 -0.8,0.2 -1.6,0.3 -2.5,0.5 -0.1,3.8 2,6.4 4.2,8.9 6.1,7.1 13.9,12.2 22.4,15.9 16.6,7.2 33.4,14 50.1,21.1 16.2,6.9 32,14.7 45.9,25.7 24.3,19.3 36.8,44.7 38.7,75.5 0.5,7.4 -4.5,12.5 -12.2,12.6 -13.6,0.1 -27.3,0.1 -40.9,0.1 H 13.631986 c -9.7999992,0 -14.49999924,-5 -13.49999924,-14.7 0.6,-5.6 1.30000004,-11.3 2.60000004,-16.8 6.5999997,-29.4 24.3999992,-50.5 49.6999992,-65.9 16.4,-10 34.2,-16.9 51.899994,-24 11.4,-4.6 22.8,-9.4 34,-14.5 7.1,-3.2 13.4,-7.6 18.6,-13.5 2.5,-3.1 4.7,-6 4.3,-10.3 z m -68.699994,-39.7 c 1.4,0.9 2.9,2.1 4.5,2.7 5.999994,2.2 11.999994,5 18.199994,6.2 19.6,3.6 39.3,6.7 59,9.7 8.2,1.2 12.3,5.5 11.9,13.8 -0.2,3.7 -0.8,7.5 -0.8,11.2 0,1.7 0.6,4.1 1.8,5 4.1,2.9 8.3,5.9 12.9,7.6 17.9,6.5 36.2,7 54.4,1.5 5.8,-1.7 11.1,-5 16.4,-7.9 3,-1.6 4.5,-4.4 3.9,-8.1 -0.4,-2.9 -0.5,-5.8 -0.8,-8.6 -1.1,-8.1 3.1,-13.3 11.3,-14.4 13.1,-1.8 26.1,-3.6 39.1,-5.9 13.5,-2.4 26.8,-6 39.2,-12.1 2,-1 3.8,-2.1 6,-3.4 -5.6,-7.4 -8.8,-15.3 -9.8,-24.1 -0.7,-6.8 -1.6,-13.7 -1.9,-20.5 -1.2,-25.8 -1.8,-51.7 -3.4,-77.5 -1.4,-21.7 -5.3,-43 -14.4,-63.1 -9.3,-20.7 -24,-35.9 -45.7,-43.6 -12.6,-4.5 -25.6,-6.3 -38.9,-6.1 -6.8,0.1 -11.5,-2.5 -14.1,-8.9 -1.5,-3.6 -3.6,-7.1 -5.2,-10.7 -0.8,-1.9 -2,-2.5 -4,-2.3 -7.1,0.9 -14.3,1.4 -21.4,2.6 -22,4 -41.4,13.2 -56.5,30.3 -9.9,11.2 -17,24.2 -22.5,38 -9.8,24.7 -14.3,50.5 -17.3,76.7 -2.6,22.3 -4.7,44.6 -7.2,66.9 -1.8,15.7 -4.2,31.4 -14.599994,44.3 0,0 0,0.2 -0.1,0.7 z m 341.299994,176.1 c 0,-0.9 0.1,-1.7 -0.1,-2.4 -2.6,-7.6 -4.6,-15.5 -8.1,-22.6 -6.5,-13.5 -18.1,-22.4 -30.5,-30.1 -14.8,-9.1 -30.9,-15.4 -46.9,-21.8 -21.5,-8.6 -43.5,-16.2 -60.7,-32.8 -17,12.9 -36.4,17.8 -57.2,17.8 -20.8,0 -40.4,-4.2 -56.7,-16.4 -7.9,5.2 -14.8,10.7 -22.6,14.6 -11.2,5.7 -22.8,10.5 -34.4,15.2 -17.599998,7.2 -35.399994,13.7 -51.799994,23.5 -19,11.4 -32.8,26.8 -37.9,48.9 -0.4,1.9 -0.8,3.9 -1.2,6 136.299994,0.1 272.099994,0.1 408.099994,0.1 z" />
</svg>
