<svg width="0" height="0" class="hidden">
  <symbol xmlns="http://www.w3.org/2000/svg" viewBox="0 0 117.1 180.1" id="barber">
    <path d="M3.9 34.2L1.8 33c1.6-2.2 2.9-4.4 4.6-6.4C15.8 15 27.4 6.4 42 2.5c9.5-2.6 19.2-3.6 28.9-.7 5.1 1.5 9.9 4 14 7.4 2.5 2 4.8 4.2 7.3 6 5.4 3.9 8.4 8.8 7.9 15.6 0 .4.1.7.3 1 1.9 1.2 4 2.3 5.9 3.6 7 4.7 10.5 11.4 10.7 19.7.1 7.1-.5 14.3-1.9 21.3-.3.9-.6 1.8-1 2.7-.4 1.2-.8 2.4-1.2 3.7-.5 1.7-.7 3.7-1.7 5.1-1.4 2.1-2.2 4.5-2.2 7-.8 12.2-2.9 24.3-6.2 36.2-3.2 11.4-7.5 22.3-15 31.8-5.8 7.3-12.4 13.6-21.6 16.1-6.6 1.8-13.5 1.8-19.9-1.3-9.2-4.5-16.1-11.5-21.6-20.1-6.4-10.1-10.2-21.2-12.7-32.7-1.8-8.1-2.8-16.3-4.1-24.5-.4-2.6-.7-5.3-1.1-7.9 0-.2 0-.4-.1-.5-2.6-4-3.3-8.7-4.7-13.2-1-3-1.5-6.1-1.7-9.2C0 63 .1 56.3 0 49.7c-.2-5.5 1.2-10.8 3.9-15.5zm92.4 14.6C85.7 58.4 76 59.7 64.9 59.9c-8.3.1-16.5-1.5-24.3-4.5-4.8-1.8-9.5-3.9-14.2-5.9-5.9-2.4-10.6-.4-12.9 5.4-1.3 3.3-1.7 6.8-1 10.3.8 4.2 1.6 8.5 2.4 12.7.6 3.4.2 6.8-2.2 9.4-1.6 1.7-1.6 3.5-1.7 5.5-.4 7.4 1.3 14.5 2.5 21.7.8 5.4 2.4 10.7 4.8 15.6.7 1.6 2 3 3.5 4 2.4 1.3 3 3.2 3.3 5.6.3 2.3.9 4.5 1.9 6.6.9 2.2 2.8 2.2 4.2.2 1.1-1.6 2.1-3.4 3-5.2 2-4 5.1-6 9.6-5.7 1.7.1 3.5.6 4.9 0 2.9-1.3 5.1-.2 7.4 1.2.9.4 1.8.8 2.7 1.1 1.3-.9 2.6-1.6 4-2.4.9-.4 2.1-.9 2.8-.6 2.7 1.3 5.6.7 8.4.7 2.9-.1 5.6 1.3 7.3 3.7 1.2 1.8 2.2 3.7 3.3 5.5.8 1.4 1.4 3.1 3.7 2.9 2.9-2 3.1-5.4 3.6-8.4.4-2.5.7-4.4 3.4-5.5 1.2-.6 2.1-1.6 2.7-2.8 1.7-3.4 3.1-6.9 4.1-10.6 1.6-6.6 2.9-13.3 3.8-20 .7-4.9 1.2-9.9-2.8-14.1-2.1-2.3-2.1-5.5-1.5-8.5.9-4.4 1.7-8.8 2.4-13.2.8-5.1-.2-9.6-4.4-13.1-1.1-.6-2-1.5-3.3-2.7zM62 159.4c.4 1.9.7 3.3 1.1 4.7 1.2 3.6 3.3 4.6 6.3 2.5 3.1-2.2 6.1-4.6 8.8-7.3 3.5-3.3 4.2-8.5 1.9-12.7-1.3-2.5-2.5-3.1-5.3-2.5-2.3.5-4.5 1.1-6.7 1.7-6.8 1.9-13.9 1.8-20.6-.3-2-.7-4.1-1.2-6.2-1.5-1.1-.2-2.3.1-3.2.7-2.3 1.6-3.7 8.8-2.2 11.1 3.1 4.8 7.4 8.6 12.5 11.1 2.5 1.2 4.2.6 5.1-1.9.5-1.9.8-3.8.9-5.7-3.6-1-6.1-2.7-7.1-6.5 7.2 1.5 14.6 1.6 21.9.2-.7 4-3.5 5.3-7.2 6.4z"></path>
  </symbol>
  <symbol xmlns="http://www.w3.org/2000/svg" viewBox="0 0 123.9 174.4" id="beginner">
    <path d="M39.4 28.6C27 30.8 17.4 39.9 15 51.4c-1.2 5.6 1.9 16.5 4.2 22.1 0-.4.2-13 1.1-16.6 2-7.8 8.5-13.6 20.5-12.5 10 1 20.1 1.8 30.1 2.3 4.1.3 8.4-.4 12.6-.7-5-6.6-15.8-12.9-25.4-16-6-2-12.4-2.5-18.7-1.4zm61.3 11.8c1.7-2 2.9-3.5 5.3-6.3C96 24 84.8 14.6 72.7 7.5 68.4 5 63.9 2.4 59.2 1.3c-11-2.7-24.9 3.3-29.8 7.5 24.4-4.5 51.5 11.4 71.3 31.6zm8-9.9c1.3-1.5 3-5-.4-9.5C97.8 7.4 83.5.7 67.2 0c18.5 8 30 17.5 41.5 30.5z"></path>
    <path d="M123.2 78.7c-.9-5.9-2.5-8-8-9.6-.1-1.2-.1-2.4 0-3.5 1.4-5.9 1.2-11.9.9-17.9-.2-5.2-2-10.2-5.3-14.3-4.1 5.1-8 10-11.8 14.6 1.5 2.4 3.5 4.2 3.8 6.4.8 5 1.6 10.2.8 15.3-.4 2.2-.4 4.4-.2 6.6.6 5.2 1.6 10.4 2.4 15.7 1.4-1.3 1.7-3.3 2.2-5.2.8-3 1.3-6 2.3-8.9.4-2.1 2.4-3.5 4.5-3.1h.1c2.5.3 4.1 1.7 4.2 4.2.4 8.4.1 16.8-3.9 24.5-.9 1.8-1.9 3.8-3.4 4.9-1.3 1-3.3.9-5.5 1.4-3 8-6.3 16.2-9.1 24.6a66.31 66.31 0 0 1-19.7 29.2c-3 2.5-6.7 4-10.5 4.2-2.5.2-5 .2-7.5.1-9.4-.3-18.1-4.9-23.6-12.5-6.1-8-10.9-16.9-14.2-26.4-2.2-6.4-4.1-12.9-6.2-19.4-5.3.5-6.7-.3-9-5.6C3.8 97.9 3 91.2 2.4 84.6c-.2-2.2.9-4.6 1.6-6.9.4-1.7 1.9-3 3.7-2.9 1.9 0 2.7 1.3 3.2 2.7.9 2.7 1.6 5.5 2.4 8.3.6 2.2.8 4.6 3 6.6.3-1.5.5-2.6.8-3.7.3-1.7.3-3.5 1-5 1.2-2.4 1.2-4.3 1.3-6.4-.2-.1-.4-.2-.7-.3.2.1.5.2.7.3-2.4-2.2-4.6-6.8-5.4-8.3-5.9-11.3-4.4-23.6 4-33 10.5-12 23.6-15 38.4-11.8C67.3 26.5 83 38 91.6 45.1c1.8 0 5.1-1.3 7.1-2.4-5.2-4.3-13.4-11-18.5-14.7-17.9-12.8-36.5-18.3-53-14.3C17.3 16 7.9 25.2 5.3 31.4c-2.9 7.2-3.4 13.9-3 20.6.4 5.7 2.1 11.3 5.1 16.2-5.2 2.7-5.5 2.7-6.6 8.4-2 11.2-.1 22.8 5.5 32.7.7 1.5 1.9 2.8 3.4 3.7 3 1.4 3.8 3.8 4.7 6.7 4.4 14.6 10.5 28.3 19.6 40.7 9.2 12.6 25.8 16.9 39.8 11.9 2.5-.9 4.8-2.3 6.8-4.1 9.8-8.8 17-20 21-32.5 2-6.3 4.5-12.5 6.7-18.7.5-1.4 1.1-2.5 2.7-2.6 2.7-.1 4.3-2 5.5-4 2-3 3.6-6.1 5-9.5 2.3-7.1 3-14.8 1.7-22.2z"></path>
  </symbol>
  <symbol xmlns="http://www.w3.org/2000/svg" viewBox="0 0 108.9 191.3" id="topbarber">
    <path d="M104.9 68.2c.1-.4.2-.8.2-1.2l.6-3.3c.3-1.5.6-3 1-4.5.2-.7.3-1.3.4-2 0-.2.1-.4.1-.6.1-.5.2-1.1.3-1.6 0-.2.1-.3.1-.5.1-.7.3-1.4.4-2.1v-.2l.3-1.8c0-.2 0-.3.1-.5.1-.6.1-1.2.2-1.8v-.3c.1-.7.1-1.4.1-2.1v-2.6c-.1-3.6-.8-7.2-2.1-10.5-.1-.4-.7-.5-1.3-.9-1.2 1.4-2.4 2.8-4.4 5.2.5-7.4-1.8-13-4.9-18.2-3-5-6.6-9.6-13.5-11 5.6 9.8 6.2 11.7 5.7 17.3C82.7 8.4 74 .9 61.3 1.7c2.8 3.1 6.9 5.2 7.8 9.8C62.7 5.4 55.4 1.4 47.3 0c-4 .6-7.5.9-10.9 1.7-3.3.8-6.5 2-11.2 3.5 12.4 1.7 19 4.6 25.5 11-2.9-1.1-5.6-2.7-8.5-3.8-6.1-2.2-12-4.8-18.9-2.6C7.1 15.2-2.1 30.1.4 47.4c7.6-15 17.5-21.7 28.9-19.7-.4.2-.9.4-1.4.6C11.8 30.2 0 44.2 4.9 62.5c2.6 10 4 20.3 4 30.7H9v3.3c-.1 5.8-.1 11.6-.1 17.5 0 4.8.1 9.6.1 14.4.9 1.4 1.9 2.9 2 3.1 0 10.7 3.3 19.6 3.7 28.9.5 10.4 6.2 17.2 14.6 22.3.8.5 1.7 1 2.9 1.8.7-1.4 1.1-2 1.7-3.1 1.3 1.8 2.5 3.5 3.8 5.2 11.3 6.1 25 6.1 36.3 0 1.3-1.7 2.5-3.4 3.8-5.2.6 1.1 1 1.8 1.7 3.1 1.2-.8 2-1.3 2.9-1.8 8.4-5.2 14.1-12 14.6-22.3.4-9.3 3.7-18.3 3.7-28.9.2-.3 1.1-1.7 2-3.1 0-4.8 0-9.6.1-14.4 0-5.8 0-11.7-.1-17.5v-.9c-.2-9.2.6-18.3 2.2-27.4zM90.6 80.7c-.4-.2-.8-.4-1.3-.5-.1 0-.2-.1-.3-.1-.5-.2-.9-.3-1.4-.4-.5-.1-1-.2-1.6-.3-.1 0-.3 0-.4-.1-5.1-.6-10.2-.5-15.2.5-2.3.5-4.6 1.2-6.8 2.3-2.2 1-4 2.8-5 5.1h-6c-1-2.3-2.7-4.1-5-5.1-2.1-1.1-4.4-1.8-6.8-2.3-6.8-1.3-15.5-1.4-20.2.9-2.6 1.2-5.5 1.3-8.2.2.7-7.6 1.5-14.8 1.9-22 .3-4.7 1.5-8.8 5.1-12 1-.8 2.2-1.5 3.4-2 10.4 4.2 21.4 6.3 32.6 6.3 5.5 0 11-.6 16.3-1.6h.2c1.3-.3 2.6-.5 3.9-.9.2-.1.5-.1.7-.2 1.1-.3 2.3-.6 3.4-.9.5-.1 1-.3 1.5-.5.9-.3 1.8-.5 2.6-.8 1.4-.5 2.8-1 4.1-1.5 6.2 3.4 7.9 8.3 8.3 14.2.5 7.2 1.2 14.4 1.9 22-2.1 1-5.1.9-7.7-.3zm-20.3 65.6c-2.7.4-5.5.2-8.1-.4-4.1-1.2-8.5-1.2-12.7 0-2.7.6-5.4.7-8.1.4-1.3-.1-2.6-1.6-4.2-2.7 2.2-1.7 4.7-3 7.3-4h.2c3.7-1.4 7.7-2.2 11.1-3.8 3.4 1.6 7.4 2.4 11.1 3.8h.2c2.6 1 5.1 2.3 7.3 4-1.6 1.1-2.8 2.5-4.1 2.7zm27.2-38.7c-1.2 2.3-2.6 4.4-4.3 6.3-5.5 6-8.6 12.8-10.5 20.8.8 1.1 1.6 2.3 2.5 3.6-7.9-4.3-13.7-11.9-23.5-12.6-1.9.8-4 1.7-6 2.7-2-.9-4.1-1.8-6-2.7-9.8.8-15.6 8.4-23.5 12.6.9-1.2 1.8-2.5 2.5-3.6-1.9-8-5-14.7-10.5-20.8-1.7-1.9-3.2-4-4.3-6.3-1.5-2.9-2.4-6.1-2.7-9.3-.4-4.1-.8-5.8 1.3-9.3 2.3 5.7 2.7 10.7 6.2 14.4 5.7 6.2 15.1 4.2 21.5 3.6 6.5-.6 8.4-6.3 11.1-11.4 1.2-2.1 1.4-5.5 4.3-5.7 2.9.3 3.1 3.6 4.3 5.7 2.8 5.1 4.6 10.7 11.1 11.4 6.5.6 15.8 2.6 21.5-3.6 2-2.2 3-4.8 4-7.8.4-1.3.8-2.7 1.3-4.2 0-.1.1-.3.1-.4.2-.7.5-1.3.7-2 .2.4.4.8.6 1.1.1.1.1.2.2.3.1.3.2.5.3.7 0 .1.1.2.1.3l.3.9c.1.3.1.6.1.9v1.3c0 1.1-.2 2.2-.3 3.7 0 3.4-.9 6.5-2.4 9.4z"></path>
  </symbol>
</svg>