<?xml version="1.0" encoding="UTF-8"?>
<!DOCTYPE svg PUBLIC "-//W3C//DTD SVG 1.1//EN" "http://www.w3.org/Graphics/SVG/1.1/DTD/svg11.dtd">
<!-- Creator: CorelDRAW 2017 -->
<svg xmlns="http://www.w3.org/2000/svg" xml:space="preserve" width="38.801mm" height="67.921mm" version="1.1" style="shape-rendering:geometricPrecision; text-rendering:geometricPrecision; image-rendering:optimizeQuality; fill-rule:evenodd; clip-rule:evenodd"
viewBox="0 0 3880.1 6792.1"
 xmlns:xlink="http://www.w3.org/1999/xlink">
 <defs>
  <style type="text/css">
   <![CDATA[
    .fil0 {fill:white}
    .fil1 {fill:white;fill-rule:nonzero}
   ]]>
  </style>
 </defs>
 <g id="Слой_x0020_1">
  <metadata id="CorelCorpID_0Corel-Layer"/>
  <path class="fil0" d="M535.95 902.33l-54.87 -31.34c41.81,-57.47 75.75,-114.95 120.16,-167.18 245.56,-303.03 548.57,-527.67 929.95,-629.54 248.16,-67.92 501.54,-94.05 754.92,-18.29 133.23,39.18 258.6,104.48 365.72,193.29 65.29,52.25 125.38,109.71 190.68,156.74 141.07,101.87 219.42,229.86 206.35,407.51 0,10.44 2.62,18.28 7.85,26.12 49.63,31.35 104.5,60.06 154.12,94.03 182.86,122.78 274.28,297.79 279.51,514.6 2.61,185.48 -13.05,373.55 -49.64,556.41 -7.83,23.51 -15.68,47.02 -26.12,70.52 -10.45,31.35 -20.9,62.7 -31.35,96.65 -13.06,44.4 -18.28,96.66 -44.4,133.23 -36.57,54.86 -57.46,117.55 -57.46,182.85 -20.91,318.68 -75.77,634.75 -161.97,945.61 -83.59,297.79 -195.91,582.53 -391.84,830.69 -151.49,190.68 -323.91,355.25 -564.23,420.57 -172.39,47 -352.64,47 -519.82,-33.97 -240.32,-117.56 -420.56,-300.4 -564.24,-525.05 -167.18,-263.83 -266.44,-553.79 -331.74,-854.19 -47.01,-211.59 -73.13,-425.78 -107.1,-640 -10.45,-67.92 -18.29,-138.44 -28.74,-206.36 0,-5.22 0,-10.44 -2.61,-13.06 -67.92,-104.47 -86.19,-227.25 -122.77,-344.81 -26.13,-78.36 -39.19,-159.34 -44.41,-240.31 -7.85,-172.41 -5.22,-347.42 -7.85,-519.83 -5.21,-143.66 31.36,-282.11 101.9,-404.89l0 0zm2413.65 381.38c-276.89,250.78 -530.26,284.73 -820.22,289.95 -216.82,2.61 -431.01,-39.17 -634.76,-117.54 -125.39,-47.04 -248.17,-101.89 -370.93,-154.12 -154.12,-62.7 -276.89,-10.45 -336.98,141.05 -33.96,86.2 -44.42,177.64 -26.11,269.05 20.88,109.73 41.78,222.04 62.68,331.76 15.68,88.81 5.23,177.62 -57.48,245.54 -41.79,44.42 -41.79,91.43 -44.39,143.68 -10.46,193.29 33.95,378.77 65.3,566.84 20.91,141.07 62.69,279.52 125.38,407.5 18.29,41.8 52.24,78.37 91.43,104.5 62.69,33.94 78.37,83.59 86.2,146.28 7.84,60.08 23.51,117.54 49.64,172.4 23.51,57.47 73.13,57.47 109.71,5.23 28.74,-41.8 54.86,-88.83 78.37,-135.83 52.25,-104.49 133.22,-156.74 250.77,-148.9 44.39,2.6 91.42,15.67 128,0 75.75,-33.94 133.22,-5.23 193.3,31.34 23.51,10.44 47.01,20.9 70.52,28.75 33.97,-23.52 67.93,-41.81 104.49,-62.71 23.51,-10.45 54.86,-23.5 73.14,-15.67 70.53,33.96 146.29,18.29 219.43,18.29 75.75,-2.62 146.3,33.96 190.68,96.64 31.35,47.04 57.48,96.66 86.22,143.68 20.89,36.57 36.57,80.98 96.64,75.76 75.76,-52.26 80.99,-141.06 94.05,-219.44 10.46,-65.3 18.28,-114.93 88.81,-143.66 31.34,-15.68 54.86,-41.8 70.53,-73.15 44.41,-88.8 80.96,-180.24 107.1,-276.89 41.78,-172.4 75.76,-347.43 99.26,-522.44 18.28,-128 31.35,-258.6 -73.13,-368.32 -54.87,-60.08 -54.87,-143.67 -39.2,-222.03 23.52,-114.95 44.42,-229.88 62.7,-344.8 20.9,-133.25 -5.22,-250.78 -114.94,-342.22 -28.72,-15.66 -52.23,-39.18 -86.21,-70.52l0 0zm-895.99 2889.09c10.45,49.63 18.31,86.2 28.75,122.77 31.34,94.03 86.2,120.16 164.56,65.31 81,-57.47 159.35,-120.17 229.88,-190.69 91.43,-86.21 109.71,-222.03 49.63,-331.75 -33.95,-65.3 -65.3,-80.98 -138.45,-65.3 -60.06,13.05 -117.54,28.72 -175.01,44.4 -177.63,49.64 -363.08,47.02 -538.11,-7.84 -52.26,-18.28 -107.1,-31.34 -161.95,-39.19 -28.75,-5.2 -60.09,2.63 -83.61,18.3 -60.07,41.79 -96.63,229.87 -57.46,289.94 80.98,125.39 193.3,224.66 326.53,289.97 65.3,31.33 109.71,15.67 133.21,-49.64 13.07,-49.62 20.91,-99.27 23.52,-148.89 -94.05,-26.13 -159.33,-70.53 -185.47,-169.79 188.08,39.17 381.38,41.79 572.07,5.22 -18.29,104.48 -91.42,138.44 -188.09,167.17l0 0.01z"/>
  <g>
   <path id="path166" class="fil1" d="M3708.97 5073.14c-13.43,62.47 -48.08,113.42 -104.66,149.23 -47.17,29.91 -96.87,56.32 -145.59,84.16 -76.31,43.67 -152.8,86.94 -229.04,130.68 -159.55,91.82 -318.98,183.81 -478.51,275.7 -96.36,55.55 -192.77,110.95 -289.19,166.36 -15.83,9.09 -31.8,17.97 -47.69,26.93 -1.03,-1.49 -2.13,-2.98 -3.18,-4.47 39.25,-23.82 78.52,-47.56 117.69,-71.51 39.79,-24.26 79.35,-48.8 119.13,-73.18 39.78,-24.34 79.62,-48.54 119.38,-72.87 39.07,-23.75 77.99,-47.62 117.13,-71.39 39.84,-24.13 79.93,-47.94 119.84,-72.15 39.84,-24.2 79.42,-48.79 119.33,-72.92 39.91,-24.21 80.19,-47.82 120.03,-72.08 38.68,-23.56 79.03,-45.1 113.87,-73.78 -7.91,1.31 -14.61,4.42 -21.23,7.53 -49.57,22.71 -98.56,46.59 -148.77,67.99 -80.73,34.32 -165.46,54.11 -255.71,51.39 -21.93,-0.64 -44.05,0.98 -65.99,2.54 -72.67,5 -140.41,25.69 -205.3,55.03 -8.96,4.03 -18.48,7.01 -27.77,10.45 113.28,-70.72 228.84,-136.97 344.6,-203.02 116.86,-66.76 234.68,-132.04 350.44,-200.42 72.67,-42.95 329.74,-189.84 350.58,-195.36 30.66,48.37 42.41,100.07 30.61,155.16l0 0zm-1729.29 1113.41c-22.38,0.13 -40.68,-17.91 -40.87,-40.3 -0.13,-22.45 17.92,-40.73 40.3,-40.86 22.46,-0.21 40.74,17.84 40.87,40.29 0.2,22.39 -17.84,40.69 -40.3,40.87l0 0zm-268.1 -239.28c-128.68,-62.87 -254.48,-130.35 -377.56,-201.91 -96.23,-56.06 -191.61,-113.56 -284.77,-173.76 -101.03,-65.33 -200.62,-132.62 -297.81,-202.62 -92,-66.25 -179.09,-138.08 -260.38,-215.67 -48.59,-46.33 -94.21,-94.8 -129.06,-152.93 21.87,16.6 44.25,32.77 65.66,49.95 97.52,78.11 193.95,157.47 292.37,234.56 86.75,67.99 174.98,134.24 263.61,200.1 120.69,89.67 246.88,172.65 376.84,250.53 116.34,69.74 234.56,136.63 351.94,204.91 4.03,2.26 7.65,5.13 11.48,7.72 -5.65,1.62 -9.14,0.72 -12.32,-0.85l0 -0.03zm-1400.01 -783.3c-22.46,0.21 -40.74,-17.84 -40.94,-40.29 -0.13,-22.39 17.91,-40.69 40.3,-40.87 22.45,-0.13 40.73,17.91 40.94,40.35 0.13,22.39 -17.92,40.69 -40.3,40.81l0 0zm3525.35 -73.25c-15.32,-75.39 -50.82,-139.23 -117.18,-187.25 -7.59,-5.45 -15.96,-10.12 -24.4,-14.33 -6.68,-3.39 -14.07,-5.46 -22.18,-8.5 -405.74,231.82 -909.74,515.76 -1318.13,749.14 29.26,69.87 31.53,225.4 -24.85,259.28 -30.95,18.04 -155.72,91.94 -274.72,160.65 -15.45,8.89 -26.73,8.11 -40.04,2.41 -73.31,-29.9 -144.95,-62.94 -215.36,-98.36 -175.77,-88.56 -343.95,-188.48 -507.33,-294.9 -98.44,-64.1 -193.95,-132.04 -289.65,-199.65 -58.46,-41.27 -115.04,-84.81 -171.95,-127.96 -61.32,-46.51 -123.08,-92.58 -182.7,-140.92 -80.45,-65.33 -159.48,-132.11 -238.19,-199.19 -40.73,-34.7 -79.34,-71.51 -119.25,-107.11 -8.89,-7.99 -18.17,-15.84 -28.62,-21.87 -20.76,-11.94 -41.33,-10.38 -61.96,2.72 -21.41,13.63 -35.76,32.31 -48.6,52.16 -28.74,44.05 -43.73,92.33 -51.26,142.82 -6.54,43.79 -2.66,86.35 13.3,128.01 9.55,24.84 25.11,45.48 46.98,62.22 32.37,24.79 63.96,50.61 97.13,74.49 53.52,38.53 107.37,76.75 162.4,113.42 74.49,49.57 149.11,99.01 225.55,145.93 104.34,64.04 209.58,126.85 315.92,188.1 83.58,48.07 168.77,93.94 254.27,139.12 85.46,45.15 171.04,90.38 258.77,131.57 100.51,47.24 203.34,90.38 305.48,134.64 14.27,6.1 29.39,11.75 43.92,17.51 -32.96,26.02 -79.42,59.95 -109.2,85.52 -56.19,48.21 -106.01,101.21 -139.95,165.71 -13.24,25.11 -20.38,51.65 -18.35,79.42 2.66,36.6 22.58,65.61 53.8,87.73 12.7,9.02 21.66,8.63 33.67,-1.74 9.55,-8.17 18.43,-18.23 23.87,-29.06 21.74,-43.15 41.28,-87.2 62.94,-130.35 26.6,-53.01 57.22,-103.93 101.55,-146.25 18.56,-17.72 50.61,-41.02 70.59,-57.37 9.8,-7.91 23.61,-12.19 36.78,-9.14 29.26,9.6 57.22,17.51 67.02,19.99 32.32,8.24 75.27,11.04 109.27,10.06 29.19,-0.84 54.96,-8.7 76.57,-26.72 18.48,-15.38 39.71,-28.29 51.85,-49.64 11.16,-19.67 10.24,-33.22 -8.17,-46.79 -15.5,-11.3 -33.16,-20.05 -52.75,-31.93 -9.86,-5.91 -24.66,-11.88 -40.61,-17.38 29.19,-17 74.82,-43.08 92.92,-53.47 116.79,-67.02 233.71,-133.79 350.5,-200.68 55.16,-31.6 110.17,-63.4 165.26,-95.05 174.93,-100.7 349.73,-201.53 524.84,-301.97 178.37,-102.31 356.87,-204.57 535.94,-305.99 21.79,-12.4 29.19,-24.85 24.33,-48.98l-0.02 -0.07zm0 0l0 0 0 0z"/>
  </g>
 </g>
</svg>
