<?xml version="1.0" encoding="UTF-8" standalone="no"?>
<svg
   xmlns:dc="http://purl.org/dc/elements/1.1/"
   xmlns:cc="http://creativecommons.org/ns#"
   xmlns:rdf="http://www.w3.org/1999/02/22-rdf-syntax-ns#"
   xmlns:svg="http://www.w3.org/2000/svg"
   xmlns="http://www.w3.org/2000/svg"
   xmlns:sodipodi="http://sodipodi.sourceforge.net/DTD/sodipodi-0.dtd"
   xmlns:inkscape="http://www.inkscape.org/namespaces/inkscape"
   inkscape:version="1.0beta1 (32d4812, 2019-09-19)"
   sodipodi:docname="ico-haircut.svg"
   id="svg27"
   viewBox="0 0 3492.0599 6515.2649"
   style="clip-rule:evenodd;fill-rule:evenodd;image-rendering:optimizeQuality;shape-rendering:geometricPrecision;text-rendering:geometricPrecision"
   version="1.1"
   height="65.152649mm"
   width="34.920601mm"
   xml:space="preserve"><metadata
   id="metadata31">
  <rdf:RDF>
    <cc:Work
       rdf:about="">
      <dc:format>image/svg+xml</dc:format>
      <dc:type
         rdf:resource="http://purl.org/dc/dcmitype/StillImage" />
    </cc:Work>
  </rdf:RDF>
</metadata>
<sodipodi:namedview
   inkscape:current-layer="svg27"
   inkscape:window-maximized="0"
   inkscape:window-y="23"
   inkscape:window-x="0"
   inkscape:cy="559.99924"
   inkscape:cx="400"
   inkscape:zoom="0.35"
   showgrid="false"
   id="namedview29"
   inkscape:window-height="786"
   inkscape:window-width="1440"
   inkscape:pageshadow="2"
   inkscape:pageopacity="0"
   guidetolerance="10"
   gridtolerance="10"
   objecttolerance="10"
   borderopacity="1"
   inkscape:document-rotation="0"
   bordercolor="#666666"
   pagecolor="#ffffff" />

 <defs
   id="defs12">
  <style
   id="style10"
   type="text/css">
   <![CDATA[
    .fil0 {fill:white}
   ]]>
  </style>

 </defs>

 <g
   transform="translate(0,-0.02)"
   id="Слой_x0020_1">
  <metadata
   id="CorelCorpID_0Corel-Layer" />

  <g
   id="_966532128">
   <path
   inkscape:connector-curvature="0"
   id="path15"
   d="m 1185.59,760.83 c -329.86,58.52 -585.24,300.6 -649.08,606.52 -31.93,148.97 50.54,438.93 111.72,587.9 0,-10.64 5.32,-345.83 29.26,-441.59 53.21,-207.49 226.12,-361.78 545.34,-332.52 266.02,26.6 534.7,47.88 800.71,61.18 109.07,7.98 223.46,-10.64 335.19,-18.62 -133.01,-175.57 -420.31,-343.16 -675.69,-425.63 -159.61,-53.2 -329.86,-66.5 -497.45,-37.24 z m 1630.69,313.9 c 45.22,-53.2 77.14,-93.11 140.99,-167.59 C 2691.25,638.46 2393.31,388.41 2071.43,199.53 1957.04,133.03 1837.33,63.86 1712.3,34.6 1419.68,-37.22 1049.92,122.39 919.57,234.12 1568.65,114.41 2289.56,537.38 2816.28,1074.73 Z m 212.81,-263.36 c 34.58,-39.9 79.81,-133.01 -10.64,-252.71 C 2739.13,196.87 2358.73,18.64 1925.12,0.02 c 492.13,212.81 798.05,465.53 1103.97,811.35 z"
   class="fil0" />

   <path
   inkscape:connector-curvature="0"
   id="path17"
   d="m 3414.82,2093.58 c -23.94,-156.95 -66.51,-212.82 -212.82,-255.38 -2.66,-31.92 -2.66,-63.84 0,-93.11 37.25,-156.95 31.93,-316.56 23.95,-476.17 -5.33,-138.33 -53.21,-271.33 -141,-380.4 -109.06,135.67 -212.81,266.02 -313.9,388.38 39.91,63.85 93.11,111.73 101.09,170.26 21.28,133 42.56,271.33 21.28,407 -10.64,58.53 -10.64,117.05 -5.32,175.57 15.96,138.33 42.56,276.66 63.85,417.65 37.24,-34.58 45.22,-87.78 58.52,-138.33 21.28,-79.8 34.58,-159.61 61.18,-236.75 10.64,-55.87 63.85,-93.11 119.71,-82.47 h 2.66 c 66.51,7.98 109.07,45.23 111.73,111.73 10.64,223.45 2.66,446.91 -103.75,651.74 -23.94,47.88 -50.54,101.09 -90.44,130.35 -34.59,26.6 -87.79,23.94 -146.31,37.24 -79.81,212.82 -167.59,430.95 -242.08,654.41 -101.22,301.05 -282.77,570.03 -523.96,776.77 -79.81,66.5 -178.23,106.41 -279.32,111.73 -66.51,5.32 -133.01,5.32 -199.52,2.66 -250.05,-7.98 -481.49,-130.35 -627.8,-332.52 C 930.3,3921.12 802.61,3684.37 714.83,3431.65 656.3,3261.4 605.76,3088.49 549.9,2915.57 408.91,2928.88 371.67,2907.59 310.48,2766.6 238.57,2604.33 217.28,2426.1 201.32,2250.53 196,2192 225.27,2128.16 243.89,2066.98 c 10.64,-45.23 50.54,-79.81 98.42,-77.15 50.55,0 71.83,34.58 85.13,71.83 23.94,71.82 42.56,146.3 63.84,220.79 15.96,58.52 21.28,122.37 79.81,175.57 7.98,-39.9 13.3,-69.16 21.28,-98.43 7.98,-45.22 7.98,-93.1 26.6,-133 31.92,-63.85 31.92,-114.39 34.58,-170.26 -5.32,-2.66 -10.64,-5.32 -18.62,-7.98 5.32,2.66 13.3,5.32 18.62,7.98 -63.84,-58.52 -122.36,-180.89 -143.65,-220.79 -156.95,-300.6 -117.04,-627.8 106.41,-877.86 279.32,-319.22 627.8,-399.03 1021.51,-313.9 289.96,61.19 707.61,367.11 936.38,555.98 47.88,0 135.67,-34.58 188.87,-63.85 C 2624.74,1021.53 2406.61,843.3 2270.94,744.87 1794.77,404.37 1299.98,258.06 861.05,364.46 597.69,425.65 347.63,670.38 278.47,835.31 c -77.15,191.54 -90.45,369.77 -79.8,548 10.64,151.63 55.86,300.6 135.67,430.95 -138.33,71.82 -146.31,71.82 -175.58,223.45 -53.2,297.94 -2.66,606.52 146.31,869.88 18.62,39.9 50.55,74.49 90.45,98.43 79.8,37.24 101.09,101.08 125.03,178.23 117.04,388.39 279.32,752.83 521.39,1082.69 244.74,335.18 686.33,449.57 1058.75,316.56 66.51,-23.94 127.69,-61.18 180.89,-109.07 260.7,-234.09 452.23,-532.03 558.64,-864.55 53.2,-167.59 119.71,-332.52 178.23,-497.46 13.3,-37.24 29.26,-66.5 71.83,-69.16 71.82,-2.66 114.38,-53.2 146.3,-106.41 53.21,-79.8 95.77,-162.27 133.01,-252.72 61.19,-188.87 79.81,-393.7 45.23,-590.55 z"
   class="fil0" />

  </g>

  <path
   inkscape:connector-curvature="0"
   id="path20"
   d="m 2998.23,4910.78 z m -176.36,105.82 -282.19,176.37 -738.73,426.57 273.14,216.84 c 129.27,-45.33 619.05,-449.88 762.89,-557.75 237.18,-177.87 574.51,-388.4 655.08,-685.31 z m -925.91,608.36 c 26.45,14.12 39.68,21.18 39.68,21.18 32.26,12.78 465.3,-267.68 1299.11,-841.39 -9.38,8.93 -455.65,282.33 -1338.79,820.21 z"
   class="fil0" />

  <path
   inkscape:connector-curvature="0"
   id="path22"
   d="m 1128.75,6224.96 c -43.99,126.01 -159.37,163.65 -302.96,121.55 -138.67,-40.66 -188.82,-191.35 -136.3,-318.93 89.77,-218.08 572.27,-183.64 439.26,197.38 z m -115.15,274.29 c -62.97,11.93 -122.96,11.01 -180.62,0 -15.53,-3.47 -25.15,-8.86 -42.27,-13.97 -335.73,-100.16 -327.79,-646.09 18.26,-698.96 221.61,-31.01 373.84,44.69 460.87,217.93 167.08,-110.13 155.85,-77.14 282.19,35.28 -35.82,31.35 -111.04,97.5 -172.09,145.37 -166.58,130.6 -234.54,273.04 -366.34,314.35 z M 968.3,5828.3 C 692.07,5788.84 522.15,6093.37 640.21,6351.28 613.55,6309.33 583.09,6237.2 581.64,6154.23 545.32,5878.76 821.88,5776.8 968.3,5828.3 Z"
   class="fil0" />

  <path
   inkscape:connector-curvature="0"
   id="path24"
   d="m 2843.84,6071.98 c 28.13,230.17 -63.59,340.42 -264.59,314.86 182.41,-8.45 274.13,-118.69 264.59,-314.86 z M 1693.12,5792.61 c -54.78,46.53 1.34,124.58 79.62,79.62 44.15,-77.12 -41.62,-106.72 -79.62,-79.62 z m 1021.97,705.47 c 50.43,-23.57 101.74,-65.06 154.02,-129.47 331.75,-408.73 -358.1,-939.25 -646.89,-364.36 C 1498.82,5519.34 782.8,4988.23 0,4593.32 c 97.23,344.7 905.12,883.04 1295.13,1174 49.28,36.76 201.68,169.41 235.91,189.05 174.08,99.89 90.2,-39.83 312.3,36.03 207.85,70.98 420.39,410.68 648.93,505.68 76.99,23.57 151.13,22.3 222.82,0 z m -105.88,-614.53 c 48.91,5.84 80.64,21.93 109.74,45.96 35.36,29.2 68.69,61.13 81.74,99.42 30.43,89.3 12.52,177.74 -47.62,256.47 -2.43,3.18 -4.97,6.23 -7.6,9.16 -41.75,46.44 -108.35,62.78 -150.36,63.59 -25.79,0.5 -45.87,-2.12 -69.72,-8.91 -39.32,-11.18 -77.8,-35.89 -106.06,-73.13 -57.09,-75.2 -74.2,-207.16 -23.91,-275.87 23.08,-31.55 60.46,-75.15 115.52,-99.26 27.89,-12.21 48.56,-23.37 98.27,-17.43 z"
   class="fil0" />

 </g>

</svg>
