<?xml version="1.0" encoding="UTF-8"?>
<!DOCTYPE svg PUBLIC "-//W3C//DTD SVG 1.1//EN" "http://www.w3.org/Graphics/SVG/1.1/DTD/svg11.dtd">
<!-- Creator: CorelDRAW X6 -->
<svg xmlns="http://www.w3.org/2000/svg" xml:space="preserve" width="59.9mm" height="18.5mm" version="1.1" style="shape-rendering:geometricPrecision; text-rendering:geometricPrecision; image-rendering:optimizeQuality; fill-rule:evenodd; clip-rule:evenodd"
viewBox="0 0 5990 1850"
 xmlns:xlink="http://www.w3.org/1999/xlink">
 <defs>
  <style type="text/css">
   <![CDATA[
    .str0 {stroke:#FEFEFE;stroke-width:20}
    .fil0 {fill:#FEFEFE}
   ]]>
  </style>
 </defs>
 <g id="Слой_x0020_1">
  <metadata id="CorelCorpID_0Corel-Layer"/>
  <polygon class="fil0 str0" points="925,25 1137,714 1825,713 1267,1137 1481,1825 925,1398 369,1825 583,1137 25,713 714,714 "/>
  <polygon class="fil0 str0" points="2995,25 3207,714 3895,713 3337,1137 3551,1825 2995,1398 2439,1825 2653,1137 2095,713 2784,714 "/>
  <polygon class="fil0 str0" points="5065,25 5277,714 5965,713 5407,1137 5621,1825 5065,1398 4509,1825 4723,1137 4165,713 4854,714 "/>
 </g>
</svg>
