<svg width="0" height="0" class="hidden">
  <symbol xmlns="http://www.w3.org/2000/svg" fill='none' viewBox="0 0 3970 1850" shape-rendering="geometricPrecision" text-rendering="geometricPrecision" image-rendering="optimizeQuality" fill-rule="evenodd" clip-rule="evenodd" id="star2gray">
    <path fill="#989d9d" stroke="#989d9d" d="M950 25l212 689 688-1-558 424 214 688-556-427-556 427 214-688L50 713l689 1zm2070 0l212 689 688-1-558 424 214 688-556-427-556 427 214-688-558-424 689 1z"></path>
  </symbol>
  <symbol xmlns="http://www.w3.org/2000/svg" viewBox="0 0 116 87" id="star1top">
    <g stroke-width="20" stroke="#fa8d17">
      <path d="M2105.014 2242.948c916.993-188.999 1086.028-1424.922 318-2069.95" transform="matrix(.03737 0 0 .0376 .001 0)" fill="none"></path>
      <path d="M3062.044 850.028c8.99 192.948-41.082 301.007-149.068 323.97 3.031-160.946 53-269.005 149.068-323.97zm-155.027 325.008c-33.034-166.036-114.05-273.056-257.055-320.02 70.04 192.012 155.028 299.032 257.055 320.02zm44.01-651.99c-102.028 56.94-130.984 174.973-84.988 354.932 97.95 1.04 125.966-116.994 84.988-354.932zm-361.069 95.903c50.073 142.035 142.065 228.066 276.08 259.03-38.991-139.023-131.088-224.95-276.08-259.03zm204.055-353.997c-95.023 103.072-102.027 216.014-19.966 339.035 74.952-64.004 80.91-176.947 19.966-339.035zM2469.95 461.016c115.095 123.956 228.099 124.995 254.024 96.007-38.992-94.032-123.98-126.034-254.023-96.007zm81.016-414.987c-35.96 73.979-14.008 184.012 66.067 330.93 83.943-85.927 61.99-197-66.067-330.93zm-219.944 238.976c65.022 91.019 159.94 121.982 286.011 91.954-57.077-85.927-151.996-116.994-286.011-91.954zM2232.967 0c21.012 155.958 91.992 222.975 215.031 198.974 0-112.943-72.025-179.96-215.031-198.974zm458.078 1420.039c-63.035 126.969-41.083 246.977 66.903 358.984 44.01-136.009 22.057-256.017-66.903-358.984zm-109.031 563.984c-98.055-100.994-97.01-209.988 3.031-328.021 87.915 96.006 85.929 205-3.031 328.02zm309.009-1.974c-72.026-77.096-185.03-61.095-340.057 48.003 107.986 90.915 220.99 74.914 340.057-48.003zm-437.066-136.009c50.073 122.917 1.045 231.91-147.92 326.982-34.078-95.071 14.95-204.065 147.92-326.982zM2667.002 2239c-160.986 97.98-268.031 75.018-321.031-68.991 141.02-36.99 247.019-14.027 321.03 68.991zm33.033-1100.018c41.92 235.028 101.923 336.021 180.952 302.98 17.04-118.968-42.964-219.962-180.952-302.98zm394.938 68.991c-45.996 204.065-113.944 283.031-205.936 235.028 14.008-97.98 81.956-177.05 205.936-235.028zm-325.003 565.023c63.035 99.02 149.069 43.016 257.995-168.01-101.922-12.988-187.956 41.976-257.995 168.01zm0 0"
        transform="matrix(.03737 0 0 .0376 .001 0)" fill-rule="evenodd" fill="#fa8d17"></path>
      <path d="M990.03 2250.949c-916.992-189-1086.027-1424.922-317.999-2070.99" transform="matrix(.03737 0 0 .0376 .001 0)" fill="none"></path>
      <path d="M33 856.99c-8.99 193.986 40.979 302.045 148.965 325.008-2.927-161.05-53-269.005-148.964-325.008zm155.028 325.008c32.929-164.998 113.944-272.953 256.95-320.02-69.935 193.05-155.027 299.031-256.95 320.02zm-44.01-650.951c102.968 56.939 130.984 174.972 84.988 353.997-98.055.935-125.966-116.995-84.988-353.997zm360.964 95.903c-49.968 141.1-141.02 227.027-275.976 258.094C267.998 746.022 359.99 659.99 504.982 626.949zm-203.95-353.997c94.919 103.071 101.923 216.013 19.966 339.034-74.012-64.004-81.016-176.946-19.966-339.034zm325.003 195.025C510 592.038 396.996 592.973 370.966 563.984c40.038-92.993 124.085-124.995 255.069-96.006zM545.02 52.99c35.019 73.98 12.962 185.051-67.008 331.97-84.048-86.967-61.99-197.935 67.007-331.97zm0 0"
        transform="matrix(.03737 0 0 .0376 .001 0)" fill-rule="evenodd" fill="#fa8d17"></path>
      <path d="M764.023 293.006c-63.976 91.019-160.045 121.982-286.011 91.954 56.972-86.967 151.995-116.995 286.01-91.954zm97.95-286.045c-19.966 156.998-91.992 223.08-214.926 200.013.94-113.981 71.92-179.96 214.926-200.013zM404 1427c63.035 126.97 40.978 246.977-67.008 360.023C292.982 1651.015 315.04 1531.007 404 1427zm109.031 563.984c97.95-99.954 97.01-209.987-3.031-326.982-86.975 94.968-86.034 203.961 3.031 326.982zm-309.009-1.974c72.025-76.992 185.97-60.99 339.952 48.003-106.94 91.954-220.99 75.953-339.952-48.003zm438.007-134.97c-51.014 121.982-1.986 230.976 146.978 326.982 33.974-96.006-15.053-205-146.978-326.981zm-213.045 391.922c160.045 99.019 266.986 76.056 319.986-68.992-141.02-36.99-247.02-13.923-319.986 68.992zM395.01 1146.047c-42.024 234.924-102.028 335.918-181.057 302.98-16.935-119.072 43.069-220.065 181.057-302.98zM-.033 1215.039c45.996 205 114.99 282.927 206.041 235.963-12.962-99.02-81.956-177.05-206.04-235.963zm325.003 564.919c-61.99 99.02-147.918 44.055-257.995-166.972 102.027-14.027 188.06 41.977 257.995 166.972zM1548.045 203.026l212 688.979 687.953-1.974-558.015 424.962 213.986 688.044-555.924-427.04-556.028 427.04 213.985-688.044-558.014-424.962 688.998 1.974zm0 0"
        transform="matrix(.03737 0 0 .0376 .001 0)" fill-rule="evenodd" fill="#fa8d17"></path>
    </g>
  </symbol>
  <symbol xmlns="http://www.w3.org/2000/svg" viewBox="0 0 1850 1850" shape-rendering="geometricPrecision" text-rendering="geometricPrecision" image-rendering="optimizeQuality" fill-rule="evenodd" clip-rule="evenodd" id="star1gray">
    <path fill="#989d9d" stroke="#989d9d" stroke-width="20" d="M925 25l212 689 688-1-558 424 214 688-556-427-556 427 214-688L25 713l689 1z"></path>
  </symbol>
  <symbol xmlns="http://www.w3.org/2000/svg" viewBox="0 0 1850 1850" shape-rendering="geometricPrecision" text-rendering="geometricPrecision" image-rendering="optimizeQuality" fill-rule="evenodd" clip-rule="evenodd" id="star1gold">
    <path fill="#fa8d17" stroke="#fa8d17" stroke-width="20" d="M925 25l212 689 688-1-558 424 214 688-556-427-556 427 214-688L25 713l689 1z"></path>
  </symbol>
  <symbol xmlns="http://www.w3.org/2000/svg" viewBox="0 0 5990 1850" shape-rendering="geometricPrecision" text-rendering="geometricPrecision" image-rendering="optimizeQuality" fill-rule="evenodd" clip-rule="evenodd" id="star3white">
    <path fill="#fff" stroke="#fff" d="M925 25l212 689 688-1-558 424 214 688-556-427-556 427 214-688L25 713l689 1zm2070 0l212 689 688-1-558 424 214 688-556-427-556 427 214-688-558-424 689 1zm2070 0l212 689 688-1-558 424 214 688-556-427-556 427 214-688-558-424 689 1z"></path>
  </symbol>
</svg>