<?xml version="1.0" encoding="UTF-8"?>
<!DOCTYPE svg PUBLIC "-//W3C//DTD SVG 1.1//EN" "http://www.w3.org/Graphics/SVG/1.1/DTD/svg11.dtd">
<!-- Creator: CorelDRAW X6 -->
<svg xmlns="http://www.w3.org/2000/svg" xml:space="preserve" width="13.856mm" height="9.915mm" version="1.1" style="shape-rendering:geometricPrecision; text-rendering:geometricPrecision; image-rendering:optimizeQuality; fill-rule:evenodd; clip-rule:evenodd"
viewBox="0 0 1386 991"
 xmlns:xlink="http://www.w3.org/1999/xlink">
 <defs>
  <style type="text/css">
   <![CDATA[
    .str0 {stroke:#FF8A00;stroke-width:75}
    .fil1 {fill:none}
    .fil0 {fill:#FF8A00}
   ]]>
  </style>
 </defs>
 <g id="Слой_x0020_1">
  <metadata id="CorelCorpID_0Corel-Layer"/>
  <path class="fil0" d="M685 777l-386 44c-13,-40 -20,-81 -20,-123 0,-221 185,-400 414,-400 228,0 413,179 413,400 0,44 -8,88 -22,130l-399 -51z"/>
  <path class="fil1 str0" d="M1385 991c-472,-258 -934,-268 -1385,-14"/>
  <polygon class="fil0" points="2,678 97,641 192,604 192,678 192,752 97,715 "/>
  <polygon class="fil0" points="695,0 732,95 769,190 695,190 621,190 658,95 "/>
  <polygon class="fil0" points="1386,686 1291,723 1196,760 1196,686 1196,611 1291,648 "/>
  <polygon class="fil0" points="1189,208 1148,302 1107,395 1054,342 1002,290 1095,249 "/>
  <polygon class="fil0" points="197,206 291,247 384,288 332,340 279,393 238,299 "/>
 </g>
</svg>
