<?xml version="1.0" encoding="UTF-8"?>
<!DOCTYPE svg PUBLIC "-//W3C//DTD SVG 1.1//EN" "http://www.w3.org/Graphics/SVG/1.1/DTD/svg11.dtd">
<!-- Creator: CorelDRAW X6 -->
<svg xmlns="http://www.w3.org/2000/svg" xml:space="preserve" width="20mm" height="20mm" version="1.1" style="shape-rendering:geometricPrecision; text-rendering:geometricPrecision; image-rendering:optimizeQuality; fill-rule:evenodd; clip-rule:evenodd"
viewBox="0 0 2000 2000"
 xmlns:xlink="http://www.w3.org/1999/xlink">
 <defs>
  <style type="text/css">
   <![CDATA[
    .fil1 {fill:black}
    .fil0 {fill:url(#id0)}
   ]]>
  </style>
  <linearGradient id="id0" gradientUnits="userSpaceOnUse" x1="-0" y1="1000" x2="2000" y2="1000">
   <stop offset="0" style="stop-color:#EBECEC"/>
   <stop offset="1" style="stop-color:#B2B3B3"/>
  </linearGradient>
 </defs>
 <g id="Слой_x0020_1">
  <metadata id="CorelCorpID_0Corel-Layer"/>
  <circle class="fil0" cx="1000" cy="1000" r="1000"/>
  <path class="fil1" d="M1483 738c1,-4 2,-7 2,-11l6 -32c3,-14 6,-28 9,-43 2,-6 3,-12 4,-19 0,-2 1,-4 1,-6 1,-4 2,-10 3,-15 0,-2 1,-3 1,-5 1,-6 3,-13 4,-20l0 -2 3 -17c0,-2 0,-3 1,-5 1,-5 1,-11 1,-17l0 -3c1,-6 1,-13 1,-20l0 -25c-1,-34 -7,-68 -20,-100 -1,-4 -6,-5 -12,-9 -12,14 -23,27 -42,50 5,-71 -17,-124 -47,-174 -29,-48 -63,-92 -129,-105 54,94 59,112 55,165 -53,-158 -136,-230 -258,-222 27,29 66,49 75,93 -61,-58 -131,-96 -208,-109 -39,5 -72,8 -104,16 -32,7 -63,19 -108,33 119,16 182,44 244,105 -28,-10 -53,-25 -81,-36 -58,-21 -115,-46 -181,-25 -155,52 -242,194 -219,359 73,-143 168,-207 277,-188 -4,2 -9,4 -14,6 -154,18 -266,152 -220,327 25,95 39,194 39,293l1 0 0 32c-1,55 -1,111 -1,167 0,46 1,92 1,138 8,13 18,27 19,29 0,102 31,188 35,276 5,100 59,165 140,213 7,5 16,10 27,18 7,-14 11,-19 17,-30 12,17 24,34 36,50 108,58 239,58 347,0 12,-16 24,-33 36,-50 6,11 10,17 16,30 12,-8 20,-13 28,-18 80,-49 135,-114 140,-213 3,-88 35,-175 35,-276 2,-3 11,-16 19,-29 0,-46 0,-92 1,-138 0,-55 0,-112 -1,-167l0 -9c-2,-88 6,-175 21,-262l0 0zm-137 120c-3,-2 -7,-4 -12,-5 -1,0 -2,-1 -3,-1 -5,-2 -8,-3 -13,-4 -5,-1 -10,-2 -15,-3 -1,0 -3,0 -4,-1 -49,-5 -98,-4 -146,5 -22,5 -44,12 -65,22 -21,10 -38,27 -47,49l-58 0c-9,-22 -25,-39 -47,-49 -21,-10 -43,-17 -65,-22 -65,-12 -149,-13 -193,9 -25,11 -53,12 -79,2 7,-73 14,-142 18,-211 3,-45 15,-84 49,-114 10,-8 21,-15 33,-19 99,40 204,60 311,60 53,0 105,-6 156,-15l2 0c12,-3 25,-5 37,-9 2,-1 5,-1 7,-2 10,-3 22,-6 32,-9 5,-1 10,-2 15,-4 8,-3 17,-5 24,-8 14,-5 27,-10 40,-14 59,32 75,79 79,135 5,69 11,138 18,211 -20,9 -49,8 -74,-3l0 0zm-194 627c-25,3 -52,2 -77,-4 -39,-12 -81,-12 -121,0 -26,6 -52,7 -78,4 -12,-1 -25,-16 -40,-26 21,-16 45,-29 70,-38l2 0c35,-14 73,-21 106,-37 32,16 71,23 106,37l2 0c25,9 49,22 70,38 -16,10 -27,24 -40,26zm260 -370c-11,22 -24,42 -41,60 -52,57 -82,122 -100,199 8,10 15,22 24,34 -76,-41 -131,-114 -225,-120 -18,7 -38,16 -57,26 -19,-9 -39,-18 -57,-26 -94,7 -149,80 -225,120 9,-11 17,-24 24,-34 -18,-77 -48,-141 -100,-199 -17,-18 -31,-38 -42,-60 -14,-28 -22,-58 -25,-89 -4,-39 -8,-56 12,-89 22,55 26,102 59,138 55,59 145,40 206,34 62,-6 80,-60 106,-109 11,-20 13,-52 41,-54 28,3 30,34 41,54 27,49 44,102 106,109 62,6 151,25 206,-34 19,-21 28,-46 38,-75 4,-12 7,-26 12,-40 0,-1 1,-3 1,-4 2,-7 5,-12 7,-19 2,4 4,8 6,11 1,1 1,1 2,2 1,3 1,5 2,7 0,1 1,2 1,3l3 9c1,2 1,5 1,8l0 13c0,10 -2,21 -3,35 0,32 -8,62 -23,90l0 0z"/>
 </g>
</svg>
