<?xml version="1.0" encoding="UTF-8" standalone="no"?>
<svg
   xmlns:dc="http://purl.org/dc/elements/1.1/"
   xmlns:cc="http://creativecommons.org/ns#"
   xmlns:rdf="http://www.w3.org/1999/02/22-rdf-syntax-ns#"
   xmlns:svg="http://www.w3.org/2000/svg"
   xmlns="http://www.w3.org/2000/svg"
   xmlns:sodipodi="http://sodipodi.sourceforge.net/DTD/sodipodi-0.dtd"
   xmlns:inkscape="http://www.inkscape.org/namespaces/inkscape"
   inkscape:version="1.0beta1 (32d4812, 2019-09-19)"
   sodipodi:docname="мое место.svg"
   id="svg91"
   viewBox="0 0 4908.5693 4908.5693"
   style="clip-rule:evenodd;fill-rule:evenodd;image-rendering:optimizeQuality;shape-rendering:geometricPrecision;text-rendering:geometricPrecision"
   version="1.1"
   height="49.085693mm"
   width="49.085693mm"
   xml:space="preserve"><metadata
   id="metadata95">
  <rdf:RDF>
    <cc:Work
       rdf:about="">
      <dc:format>image/svg+xml</dc:format>
      <dc:type
         rdf:resource="http://purl.org/dc/dcmitype/StillImage" />
    </cc:Work>
  </rdf:RDF>
</metadata>
<sodipodi:namedview
   inkscape:current-layer="svg91"
   inkscape:window-maximized="1"
   inkscape:window-y="23"
   inkscape:window-x="0"
   inkscape:cy="88.911953"
   inkscape:cx="49.739081"
   inkscape:zoom="2.5026684"
   showgrid="false"
   id="namedview93"
   inkscape:window-height="786"
   inkscape:window-width="1440"
   inkscape:pageshadow="2"
   inkscape:pageopacity="0"
   guidetolerance="10"
   gridtolerance="10"
   objecttolerance="10"
   borderopacity="1"
   inkscape:document-rotation="0"
   bordercolor="#666666"
   pagecolor="#ffffff" />

 <defs
   id="defs63">
  <style
   id="style61"
   type="text/css">
   <![CDATA[
    .str0 {stroke:#252627;stroke-width:75;stroke-miterlimit:22.9256}
    .str1 {stroke:#FEFEFE;stroke-width:25;stroke-miterlimit:22.9256}
    .fil0 {fill:none}
    .fil4 {fill:#FEFEFE}
    .fil1 {fill:#252627}
    .fil2 {fill:#FDFDFD}
    .fil3 {fill:#FA8D17;fill-rule:nonzero}
   ]]>
  </style>

 </defs>

 <g
   transform="translate(54.285485,54.280609)"
   id="Слой_x0020_1">
  <metadata
   id="CorelCorpID_0Corel-Layer" />

  <rect
   y="0"
   x="0"
   id="rect66"
   height="3534.8401"
   width="3122.0801"
   transform="matrix(0.768716,-0.768716,0.678956,0.678956,0.0022154,2400)"
   class="fil0 str0" />

  <rect
   y="0"
   x="0"
   id="rect68"
   height="3534.8401"
   width="3122.0801"
   transform="matrix(0.720671,-0.720671,0.636522,0.636522,150.002,2400)"
   class="fil1 str0" />

  <rect
   y="0"
   x="0"
   id="rect70"
   height="3534.8401"
   width="3122.0801"
   transform="matrix(0.711062,-0.711062,0.628035,0.628035,180.002,2400)"
   class="fil0 str1" />

  <path
   inkscape:connector-curvature="0"
   id="path72"
   d="m 2302.32,1911.86 h -25.6 c -7.08,-2.08 -15.66,-5.56 -26.35,-10.69 16.02,-59.95 52.03,-47.11 96.2,-85.5 -122.34,-10.18 -534.4,-250.45 -534.4,-384.77 0,-25.01 17.73,-42.75 42.75,-42.75 68.52,0 79.48,18.67 157.57,88.26 40.33,35.94 79.9,67.19 124.81,99.64 90.29,65.24 184.37,109.92 291.54,157.91 67.57,30.25 122.6,0.98 137.39,-51.33 16.36,-57.86 -15.73,-47.12 36.44,-81.13 l 331.73,-213.35 c 24.66,36.82 40.86,42.16 53.44,96.19 -47.05,70.27 -468.41,300.13 -492,320.28 -87.49,74.72 -77.67,1.09 -155.47,69.05 -19.68,17.19 -26.39,32.42 -38.05,38.19 z m 155.54,-119.7 c 0.62,-10.91 -55.96,-49.97 -71.02,-42.97 -33.24,15.42 6.7,29.35 71.02,42.97 z m -515.89,-327.91 c 34.89,23.12 63.07,49.73 100.63,78.23 l 275.9,173 c 40.46,19.53 39.03,7.75 49.44,46.75 -154.88,-81.96 -193.4,-88.66 -337.44,-196.96 -35.52,-26.7 -68.25,-60.17 -111.45,-70.24 z m 618.36,276.6 c 55.1,-82.29 16.96,-63.82 42.75,-117.57 32.84,24.07 17.24,-6.88 21.37,42.76 58.07,-30.73 112.59,-71.64 168.89,-109 31.45,-20.87 50.5,-35.59 81.55,-57.4 34.84,-24.47 42.16,-22.92 57.26,-49.62 l 12.94,-29.81 c 7.73,33.17 13.65,30.96 21.38,64.13 -86.63,58.01 -332.56,239.37 -406.14,256.51 z m -651.97,-267.19 h -10.69 l -20.81,11.59 c -5.84,-64.33 -11.52,-21.65 -43.31,-65.04 37.42,-17.95 74.94,3.07 96.19,32.07 z"
   class="fil2" />

  <path
   inkscape:connector-curvature="0"
   id="path74"
   d="m 1255.65,2372.8 -29.81,-17.15 v -193.02 c 0,-21.61 2.98,-39.5 -17.14,-40.24 -23.1,-0.75 -51.42,-0.75 -84.96,0 -22.36,0 -20.12,15.65 -26.08,49.19 -2.98,13.41 -4.47,23.84 -5.97,32.04 -5.21,23.85 -11.17,56.64 -18.63,96.14 l -17.88,96.88 c 0,2.99 -0.75,4.48 -1.49,5.97 -5.22,11.92 -15.65,10.43 -18.64,1.49 -2.98,-8.95 -5.21,-15.65 -5.96,-19.38 l -38.75,-196 -10.43,-51.43 c -2.24,-9.68 -8.2,-14.9 -16.4,-14.9 h -90.92 c -18.63,0.74 -16.4,19.38 -16.4,40.99 v 192.27 l -29.81,17.15 c -3.72,2.23 -5.96,5.96 -5.96,10.43 0,5.22 2.24,8.2 5.96,10.43 l 29.81,17.14 v 190.05 c 0,24.59 -2.23,40.24 15.65,42.48 18.63,1.49 37.27,1.49 55.15,0 18.63,-2.99 17.14,-20.87 17.14,-41.74 V 2474.9 c 0,-12.67 1.49,-21.62 3.73,-26.09 0.74,-2.98 8.2,-5.96 11.18,0 3.72,8.2 5.96,14.16 7.45,18.63 4.47,19.38 11.18,46.21 18.63,80.49 2.98,10.44 14.16,57.39 18.63,76.76 2.99,14.16 7.46,17.89 22.36,18.64 20.87,1.49 43.97,0.74 49.93,-4.48 2.99,-2.98 5.97,-8.94 8.2,-17.14 2.98,-13.41 7.45,-32.04 12.67,-57.38 l 15.65,-77.51 c 2.24,-11.18 5.22,-18.63 8.2,-22.36 1.49,-1.49 2.98,-2.23 5.22,-2.23 2.23,0 3.72,0.74 4.47,2.98 4.47,11.18 7.45,25.34 7.45,43.22 v 96.89 c 0,18.63 -1.49,35.77 13.42,37.26 20.12,2.24 39.49,2.24 58.87,0 17.14,-2.24 15.65,-21.61 15.65,-42.48 v -189.3 l 29.81,-17.14 c 3.73,-2.23 5.96,-5.21 5.96,-10.43 0,-4.47 -2.23,-8.2 -5.96,-10.43 z"
   class="fil3" />

  <path
   inkscape:connector-curvature="0"
   d="m 1611.88,2371.31 -29.81,-17.15 v -99.12 c 0,-39.49 -9.69,-81.97 -40.99,-111.04 -31.3,-29.81 -68.56,-38.01 -127.44,-29.06 -9.68,1.49 -17.88,5.21 -26.83,11.92 -43.22,31.3 -64.09,68.56 -62.6,112.53 0,20.87 0.75,60.37 0,114.77 l -29.81,17.15 c -4.47,2.98 -5.96,5.96 -5.96,11.17 0,4.48 1.49,7.46 5.96,10.44 l 29.81,17.14 v 108.81 c 0,23.85 3.73,43.22 12.67,59.62 47.7,89.43 171.41,95.39 230.29,0.74 3.72,-6.7 6.7,-12.67 7.45,-19.37 5.96,-30.56 8.2,-49.94 8.2,-58.13 l -0.75,-91.67 29.81,-17.14 c 4.47,-2.98 5.96,-5.96 5.96,-10.44 0,-5.21 -1.49,-8.94 -5.96,-11.17 z m -127.44,160.97 c -13.41,29.81 -56.64,29.07 -68.56,-1.49 -2.98,-5.96 -3.73,-17.14 -3.73,-32.05 v -242.95 c 0,-11.92 0,-19.38 0.75,-23.85 5.22,-38.01 60.36,-42.48 72.29,-5.96 2.23,7.45 3.72,15.65 3.72,26.08 v 251.9 c 0,11.93 -1.49,21.61 -4.47,28.32 z"
   class="fil3"
   id="1" />

  <path
   inkscape:connector-curvature="0"
   d="m 1915.2,2570.29 c -2.23,-17.14 -17.14,-14.91 -39.49,-15.65 h -73.04 c -24.59,-0.75 -31.3,-8.2 -32.79,-32.05 -0.75,-23.1 -0.75,-43.22 0.74,-61.11 1.49,-32.04 8.95,-35.77 37.27,-35.77 21.61,0 38.75,0 49.93,-0.75 10.43,-0.74 16.39,-5.96 16.39,-16.39 1.5,-15.65 1.5,-31.3 0.75,-46.95 -0.75,-17.89 -5.22,-23.11 -23.1,-23.11 -5.22,-0.74 -14.16,-0.74 -26.09,-0.74 -23.1,0 -39.5,0.74 -48.44,-7.45 -3.73,-4.48 -6.71,-11.93 -6.71,-21.62 -1.49,-23.84 -1.49,-48.44 -0.74,-73.78 1.49,-23.1 8.2,-30.55 32.79,-31.3 h 73.78 c 21.61,0 37.26,1.49 38.75,-16.39 1.49,-17.14 2.24,-54.41 -4.47,-61.12 -3.72,-2.98 -13.41,-5.21 -30.55,-5.21 H 1719.2 c -36.52,0 -37.26,1.49 -37.26,38.75 v 194.51 l -29.81,17.15 c -3.73,2.23 -5.96,5.96 -5.96,10.43 0,5.22 2.23,8.2 5.96,10.43 l 29.81,17.14 v 184.08 c 0,27.58 -0.75,37.27 5.96,43.23 6.71,5.96 19.38,5.96 29.81,5.96 h 161.72 c 15.65,0 33.54,1.49 35.03,-16.4 2.23,-17.88 2.23,-36.51 0.74,-55.89 z"
   class="fil3"
   id="2" />

  <path
   inkscape:connector-curvature="0"
   d="m 2557.62,2372.8 -29.81,-17.15 v -193.02 c 0,-21.61 2.98,-39.5 -17.14,-40.24 -23.1,-0.75 -51.42,-0.75 -84.96,0 -22.36,0 -20.12,15.65 -26.08,49.19 -2.98,13.41 -4.47,23.84 -5.97,32.04 -5.21,23.85 -11.17,56.64 -18.63,96.14 l -17.88,96.88 c 0,2.99 -0.75,4.48 -1.49,5.97 -5.22,11.92 -15.65,10.43 -18.64,1.49 -2.98,-8.95 -5.21,-15.65 -5.96,-19.38 l -38.75,-196 -10.43,-51.43 c -2.24,-9.68 -8.2,-14.9 -16.4,-14.9 h -90.92 c -18.63,0.74 -16.4,19.38 -16.4,40.99 v 192.27 l -29.81,17.15 c -3.72,2.23 -5.96,5.96 -5.96,10.43 0,5.22 2.24,8.2 5.96,10.43 l 29.81,17.14 v 190.05 c 0,24.59 -2.23,40.24 15.65,42.48 18.63,1.49 37.27,1.49 55.15,0 18.63,-2.99 17.14,-20.87 17.14,-41.74 V 2474.9 c 0,-12.67 1.49,-21.62 3.73,-26.09 0.74,-2.98 8.2,-5.96 11.18,0 3.72,8.2 5.96,14.16 7.45,18.63 4.47,19.38 11.18,46.21 18.63,80.49 2.98,10.44 14.16,57.39 18.63,76.76 2.99,14.16 7.46,17.89 22.36,18.64 20.87,1.49 43.97,0.74 49.93,-4.48 2.99,-2.98 5.97,-8.94 8.2,-17.14 2.98,-13.41 7.45,-32.04 12.67,-57.38 l 15.65,-77.51 c 2.24,-11.18 5.22,-18.63 8.2,-22.36 1.49,-1.49 2.98,-2.23 5.22,-2.23 2.23,0 3.72,0.74 4.47,2.98 4.47,11.18 7.45,25.34 7.45,43.22 v 96.89 c 0,18.63 -1.49,35.77 13.42,37.26 20.12,2.24 39.49,2.24 58.87,0 17.14,-2.24 15.65,-21.61 15.65,-42.48 v -189.3 l 29.81,-17.14 c 3.73,-2.23 5.96,-5.21 5.96,-10.43 0,-4.47 -2.23,-8.2 -5.96,-10.43 z"
   class="fil3"
   id="3" />

  <path
   inkscape:connector-curvature="0"
   d="m 2860.19,2570.29 c -2.23,-17.14 -17.14,-14.91 -39.49,-15.65 h -73.04 c -24.59,-0.75 -31.3,-8.2 -32.79,-32.05 -0.75,-23.1 -0.75,-43.22 0.74,-61.11 1.49,-32.04 8.95,-35.77 37.27,-35.77 21.61,0 38.75,0 49.93,-0.75 10.43,-0.74 16.39,-5.96 16.39,-16.39 1.5,-15.65 1.5,-31.3 0.75,-46.95 -0.75,-17.89 -5.22,-23.11 -23.1,-23.11 -5.22,-0.74 -14.16,-0.74 -26.09,-0.74 -23.1,0 -39.5,0.74 -48.44,-7.45 -3.73,-4.48 -6.71,-11.93 -6.71,-21.62 -1.49,-23.84 -1.49,-48.44 -0.74,-73.78 1.49,-23.1 8.2,-30.55 32.79,-31.3 h 73.78 c 21.61,0 37.26,1.49 38.75,-16.39 1.49,-17.14 2.24,-54.41 -4.47,-61.12 -3.72,-2.98 -13.41,-5.21 -30.55,-5.21 h -160.98 c -36.52,0 -37.26,1.49 -37.26,38.75 v 194.51 l -29.81,17.15 c -3.73,2.23 -5.96,5.96 -5.96,10.43 0,5.22 2.23,8.2 5.96,10.43 l 29.81,17.14 v 184.08 c 0,27.58 -0.75,37.27 5.96,43.23 6.71,5.96 19.38,5.96 29.81,5.96 h 161.72 c 15.65,0 33.54,1.49 35.03,-16.4 2.23,-17.88 2.23,-36.51 0.74,-55.89 z"
   class="fil3"
   id="4" />

  <path
   inkscape:connector-curvature="0"
   d="m 3182.15,2463.72 c 0,-10.44 -5.97,-16.4 -16.4,-17.14 -17.14,-0.75 -34.28,-0.75 -49.93,0 -15.65,0 -19.38,5.21 -20.87,21.61 v 40.99 c -0.75,27.57 -20.12,49.19 -43.22,47.7 -23.11,-1.5 -34.29,-22.36 -36.52,-40.99 -1.49,-8.95 -1.49,-18.64 -1.49,-29.07 -0.75,-58.13 -0.75,-129.67 0,-216.12 0,-18.64 -1.49,-35.78 13.41,-52.17 7.45,-8.2 16.4,-12.67 26.83,-12.67 20.87,0 39.5,19.37 40.99,47.69 0.75,46.96 -2.98,49.94 17.89,51.43 15.65,0.74 30.55,0.74 46.2,0 17.89,0 23.11,-4.47 23.85,-22.36 0.75,-22.36 4.47,-80.49 -17.89,-107.32 -24.59,-29.06 -46.2,-46.2 -64.09,-52.91 -5.96,-2.24 -13.41,-2.98 -20.12,-3.73 -9.69,0 -25.34,-0.74 -46.95,0 -7.45,0 -15.65,1.49 -25.34,5.22 -48.44,17.89 -79.74,67.07 -78.25,112.53 1.49,20.13 1.49,57.39 0.74,117.01 l -29.81,17.14 c -3.72,2.98 -5.96,5.96 -5.96,11.18 0,4.47 2.24,7.45 5.96,10.43 l 29.81,17.14 v 122.23 c 0,24.59 4.47,43.97 15.65,58.13 76.77,104.33 213.89,62.6 234.02,-41.74 2.98,-14.9 3.72,-42.48 1.49,-84.21 z"
   class="fil3"
   id="5" />

  <path
   inkscape:connector-curvature="0"
   d="m 3460.13,2120.9 h -178.86 c -17.14,0 -26.09,-1.49 -32.05,3.72 -2.23,2.24 -4.47,6.71 -4.47,12.67 -0.75,17.14 -0.75,34.29 0,49.94 0.74,14.9 5.96,18.63 20.87,19.37 2.98,0.75 8.94,0.75 17.14,0.75 14.9,0 29.81,0 37.26,8.2 6.71,7.45 6.71,17.14 6.71,42.48 v 94.64 l -34.28,19.38 c -3.73,2.98 -5.22,5.96 -5.22,10.43 0,5.22 1.49,8.95 5.22,11.18 l 34.28,19.38 v 188.55 c 0,22.36 -2.98,40.24 16.39,40.99 17.89,0.75 36.52,0.75 55.9,0 17.88,-1.49 15.65,-18.63 15.65,-45.46 v -184.83 l 32.79,-18.63 c 3.73,-2.23 5.96,-5.96 5.96,-11.18 0,-4.47 -2.23,-7.45 -5.96,-10.43 l -32.79,-18.63 v -87.94 c 0,-29.07 -0.75,-41.74 8.2,-49.93 8.94,-8.95 24.59,-8.2 39.5,-8.2 13.41,0 23.84,0 29.81,-5.22 2.23,-2.98 3.72,-7.45 3.72,-14.16 0.75,-5.96 0.75,-17.14 0.75,-32.04 0,-35.03 -1.49,-35.03 -36.52,-35.03 z"
   class="fil3"
   id="6" />

  <path
   inkscape:connector-curvature="0"
   d="m 3846.92,2371.31 -29.81,-17.15 v -99.12 c 0,-39.49 -9.69,-81.97 -40.99,-111.04 -31.3,-29.81 -68.56,-38.01 -127.44,-29.06 -9.68,1.49 -17.88,5.21 -26.83,11.92 -43.22,31.3 -64.09,68.56 -62.6,112.53 0,20.87 0.75,60.37 0,114.77 l -29.81,17.15 c -4.47,2.98 -5.96,5.96 -5.96,11.17 0,4.48 1.49,7.46 5.96,10.44 l 29.81,17.14 v 108.81 c 0,23.85 3.73,43.22 12.67,59.62 47.7,89.43 171.41,95.39 230.29,0.74 3.72,-6.7 6.7,-12.67 7.45,-19.37 5.96,-30.56 8.2,-49.94 8.2,-58.13 l -0.75,-91.67 29.81,-17.14 c 4.47,-2.98 5.96,-5.96 5.96,-10.44 0,-5.21 -1.49,-8.94 -5.96,-11.17 z m -127.44,160.97 c -13.41,29.81 -56.64,29.07 -68.56,-1.49 -2.98,-5.96 -3.73,-17.14 -3.73,-32.05 v -242.95 c 0,-11.92 0,-19.38 0.75,-23.85 5.22,-38.01 60.36,-42.48 72.29,-5.96 2.23,7.45 3.72,15.65 3.72,26.08 v 251.9 c 0,11.93 -1.49,21.61 -4.47,28.32 z"
   class="fil3"
   id="7" />

  <path
   inkscape:connector-curvature="0"
   d="m 3977.34,2448.07 -5.21,67.07 c -1.49,9.69 -5.97,14.91 -14.91,14.91 -11.92,0.74 -23.85,0.74 -38.01,0 -8.19,-0.75 -12.67,-5.22 -12.67,-14.16 -0.74,-4.48 -1.49,-14.16 -3.72,-29.81 -2.24,-12.67 -2.98,-23.11 -2.24,-30.56 0,-7.45 0,-46.21 0,-115.52 v -189.29 c 0,-28.32 2.24,-29.81 31.3,-29.81 h 28.32 c 11.93,0.74 15.65,5.21 17.14,18.63 0,2.24 0,7.45 0,14.9 z m -0.74,157.99 c 0,-32.04 2.98,-38.01 -12.67,-38.75 -16.4,-0.75 -32.05,-0.75 -48.44,0 -8.95,0 -13.42,4.47 -14.16,12.67 -1.49,17.14 -1.49,34.28 0.74,50.68 0,6.7 3.73,11.17 11.18,11.92 16.4,1.49 33.54,1.49 50.68,0 15.65,-1.49 12.67,-8.2 12.67,-36.52 z"
   class="fil3"
   id="8" />

  <polygon
   id="polygon84"
   points="2481.13,2969.86 2415.4,3014.56 2440.62,3087.03 2375.08,3042.1 2309.54,3087.03 2334.75,3014.56 2269.03,2969.86 2350.16,2970.01 2375.08,2897.45 2400,2970.01 "
   class="fil4" />

  <polygon
   id="polygon86"
   points="2572.43,2969.2 2572.43,2994.42 2572.43,3019.64 3063.65,3007.03 3554.87,2994.42 3063.65,2981.81 "
   class="fil4" />

  <polygon
   id="polygon88"
   points="2184.87,2969.2 2184.87,2994.42 2184.87,3019.64 1693.65,3007.03 1202.43,2994.42 1693.65,2981.81 "
   class="fil4" />

 </g>

</svg>
