<?xml version="1.0" encoding="utf-8"?>
<!-- Generator: Adobe Illustrator 24.0.3, SVG Export Plug-In . SVG Version: 6.00 Build 0)  -->
<svg version="1.1" id="Слой_1" xmlns="http://www.w3.org/2000/svg" xmlns:xlink="http://www.w3.org/1999/xlink" x="0px" y="0px"
	 viewBox="0 0 778.9 29.3" style="enable-background:new 0 0 778.9 29.3;" xml:space="preserve">
<style type="text/css">
	.st0{enable-background:new    ;}
	.st1{fill:#21262E;}
</style>
<g class="st0">
	<path class="st1" d="M19.1,11.5c0.2,0.1,0.3,0.3,0.3,0.5c0,0.2-0.1,0.4-0.3,0.5l-1.3,0.8v8.3c0,0.9,0.1,1.8-0.7,1.9
		c-0.9,0.1-1.7,0.1-2.6,0c-0.7-0.1-0.6-0.8-0.6-1.6l0-4.5c0-1.6-0.1-2.3-0.5-2.3c-0.3,0-0.5,0.4-0.7,1.4l-0.7,3.7
		c-0.2,1.1-0.4,1.9-0.6,2.5c-0.1,0.4-0.2,0.6-0.4,0.8C11,23.4,10,23.4,9,23.4c-0.7,0-0.9-0.2-1-0.8c-0.2-0.9-0.7-2.9-0.8-3.4
		c-0.5-2-0.7-3.4-1.1-4.4c-0.1-0.3-0.5-0.1-0.5,0C5.5,15,5.4,15.4,5.4,16v5.6c0,0.9,0.1,1.7-0.8,1.8c-0.8,0.1-1.6,0.1-2.4,0
		c-0.8-0.1-0.7-0.8-0.7-1.9v-8.3l-1.3-0.8C0.1,12.3,0,12.2,0,11.9c0-0.2,0.1-0.4,0.3-0.5l1.3-0.8V2.3c0-0.9-0.1-1.8,0.7-1.8h4
		c0.4,0,0.6,0.2,0.7,0.7l0.5,2.3L9.2,12c0,0.2,0.1,0.5,0.2,0.9s0.7,0.4,0.9-0.1c0,0,1.9-10.1,1.9-10.1c0.3-1.5,0.2-2.2,1.1-2.2
		c1.5,0,2.7,0,3.7,0c0.9,0,0.8,0.8,0.8,1.8v8.5L19.1,11.5z M5.9,16.4L6,21.5c0,1.9,0.1,2.2-1.3,2.4c-0.5,0-1,0.1-1.5,0
		c0,0.6,0.1,0.9,0.7,1c0.8,0.1,1.3,0.1,2.1,0c1.1-0.1,1-1.3,1-2.2v-1.9c-0.2-0.7-0.3-1.4-0.4-1.6l-0.6-2.9
		C6.1,16.2,5.9,16.2,5.9,16.4z M7.8,2.1l1.6,8c0.1,0.5,0.2,1.3,0.3,1.7c0,0.2,0.2,0.2,0.3,0l0.3-2L8.8,2.7C8.7,2.2,8.5,2.1,8.1,2.1
		H7.8z M13.4,21.7l0.2-5.1c0-0.2-0.2-0.2-0.2,0L12.7,20c-0.2,1.1-0.4,1.9-0.6,2.5c-0.1,0.4-0.3,0.9-0.5,1.1c-0.3,0.3-1,0.3-2,0.3
		c0,0.7,0.4,1,1,1c0.9,0.1,1.9,0,2.2-0.2c0.1-0.1,0.3-0.4,0.4-0.8l0.2-1C13.3,22.6,13.4,22.1,13.4,21.7z M20.8,13.1l-1-0.6
		c-0.1,0.1-0.2,0.3-0.4,0.4l-1,0.6v8c0,1.7,0.1,2.3-1.2,2.5C16.7,24,16.1,24,15.6,24c0,0.5,0.1,0.9,0.6,1c0.9,0.1,1.2,0,2.1,0
		c0.9-0.1,1.2-0.9,1.2-1.8v-8.3l1.3-0.8c0.2-0.1,0.3-0.2,0.3-0.5C21,13.4,20.9,13.2,20.8,13.1z M18.4,10.4l1,0.6V3.9
		c0-1.2,0.1-1.8-1-1.8V10.4z"/>
	<path class="st1" d="M34.5,16.1c0,1.5,0,2.4,0,2.5c-0.3,4-3.7,4.8-5.7,4.8h-3.8c-1.6,0-1.7,0-1.7-1.6V2c0-0.8-0.1-1.5,0.7-1.6
		c1-0.1,2.6-0.1,2.9,0.2c0.1,0.1,0.2,0.5,0.2,1.1v4.6c0,1-0.2,1.8,0.9,2c0.2,0,0.7,0.1,1.4,0.1c0.6,0,1,0.1,1.4,0.2
		c2.1,0.8,3.4,2.6,3.5,5.3V16.1z M34.9,12.2c0.1,0.5,0.2,1.1,0.2,1.7v2.2c0,1.6,0,2.2,0,2.5c-0.3,3.3-2.7,5.4-6.3,5.4H25
		c0,1,0.3,1,1.7,1h2.1c4.5,0,7.3-2.1,7.3-7.3v-2.2c0-0.7-0.1-1.2-0.3-1.8c-0.2-0.6-0.5-1.2-0.8-1.7C35,11.9,34.8,12,34.9,12.2z
		 M30.8,14.5c0-1.8-1.4-2.7-2.6-2.5c-0.6,0.1-0.9,0.4-0.9,0.9c0,2,0,1.2,0,3.1c0,2.7-0.4,3.5,1.4,3.3C31.1,19.3,30.8,16.7,30.8,14.5
		z M28.3,12.7c-0.3,0-0.4,0.1-0.4,0.4c0,0.8,0,2.1,0,3.1c0,3-0.3,2.8,0.8,2.8c0.1,0,0.2,0,0.3,0c0-0.5,0-1.1,0-1.9
		c0-1.9,0-1.1,0-3.1c0-0.4,0.2-0.7,0.6-0.9C29.2,12.7,28.8,12.6,28.3,12.7z M28.3,7.7c0,0,0.3,0,0.6,0.1V3.4c0-0.6-0.1-1-0.2-1.1
		c-0.1-0.1-0.4-0.2-0.8-0.2v4.3C27.8,7.7,27.8,7.6,28.3,7.7z M41,2.3v19.4c0,1.6-0.1,1.7-1.7,1.7c-0.6,0-1.1,0-1.4,0
		c-0.9-0.1-0.8-0.9-0.8-1.8V2c0-0.8,0.1-1.3,0.2-1.4c0.3-0.3,2.3-0.3,2.9-0.2C41.1,0.4,41,1.2,41,2.3z M41.9,2h-0.3v19.7
		c0,2.3,0,2.3-2.3,2.3h-0.6c0,0.6,0.2,1,0.8,1c0.3,0,0.8,0,1.4,0c1.3,0,1.7-0.3,1.7-1.7V3.9C42.7,2.8,42.8,2.1,41.9,2z"/>
	<path class="st1" d="M62.2,11.7c0,0.6,1.8,0.7,1.8,3.7v3c0,1.1-0.6,2.6-1.1,3.2c-1.4,1.9-2.8,2-4.8,2c-2.8,0-5.1-1.8-5.7-4.5
		c-0.1-0.7-0.2-1.7-0.2-2.5c0-0.5,0.3-0.7,0.7-0.8c0.4,0,0.8,0,1.1,0c0.4,0,0.8,0,1.1,0c0.7,0,0.9,0.2,0.9,0.9v0.6
		c0,1.2,0.8,2.1,2.1,2.1c1.1,0,1.9-0.8,2-1.8c0.1-0.4,0.1-0.8,0.1-1.3v-1.6c0-1.1-0.5-1.3-1.9-1.3c-0.2,0-1,0-1.5,0
		c-0.5,0-0.7-0.3-0.7-0.7c0-0.4-0.1-0.8-0.1-1.2c0-1.5,0-1.9,1-1.9c0.3,0,0.8,0,1.5,0c0.6,0,0.7,0,1-0.3c0.1-0.2,0.2-0.4,0.3-0.7V7
		c0-0.8,0.1-1.6-0.6-2.3c-0.3-0.4-0.7-0.6-1.2-0.6c-0.9,0-1.8,0.9-1.8,2.1c0,1.1,0.1,1.2-0.8,1.3c-0.3,0-0.7,0-1,0s-0.7,0-1,0
		c-0.8,0-1-0.2-1-1c0-0.3,0-0.6,0-1c0-0.9,0.3-2.3,1-3.1c1.1-1.3,1.9-1.7,2.7-2c0.3-0.1,0.6-0.1,0.9-0.2c0.4,0,1.1,0,2.1,0
		c0.3,0,0.7,0.1,1.1,0.2c2.1,0.8,3.4,2.7,3.4,4.6v3.7C63.7,11.5,62.2,11.1,62.2,11.7z M58.3,4.7c-0.7,0-1.2,0.7-1.2,1.5
		C57,7.9,56.9,8,55.7,8.1c-0.3,0-0.7,0-1,0h-0.4v0c0,0.8,0.3,1,1,1h1.3c1.2,0,1.5-0.3,1.5-1.4c0-1.8,0.4-1.8,1.3-1.8
		c-0.1-0.3-0.2-0.5-0.4-0.8C58.8,4.8,58.6,4.7,58.3,4.7z M57.1,17.5h-0.4c0.1,0.8,0.6,1.5,1.3,1.5v-0.7C58,17.7,57.8,17.5,57.1,17.5
		z M65.7,18.4V17c0-0.7-0.1-1.3-0.2-1.7c-0.2-0.8-0.5-1.2-0.7-1.4c-0.1-0.1-0.3,0-0.2,0.2c0,0.4,0.1,0.8,0.1,1.3v3
		c0,1-0.5,2.7-1.2,3.5c-1.5,2.1-3.2,2.3-4.9,2.3c-0.4,0-0.8,0-1.1-0.1c-0.2-0.1-0.3,0.2-0.1,0.3c1,0.5,1.7,0.6,2.9,0.6
		c1.4,0,3-0.9,4-2.2C64.6,22.2,65.7,20.2,65.7,18.4z M58.4,14.2h-0.6v0.3c0,0.5,0.3,0.7,0.8,0.7c0.3,0,0.6,0,0.9,0v-0.3
		C59.5,14.3,59.4,14.2,58.4,14.2z M65,5.1c-0.1-0.4-0.2-0.6-0.5-0.9c-0.1-0.2-0.4-0.3-0.3,0.1c0,0.2,0.1,0.6,0.1,0.9v3.7
		c0,1.6-0.6,2.3-1,2.6c-0.3,0.2-0.3,0.2,0,0.5c0.1,0.1,0.3,0.3,0.5,0.5c0.5-0.5,1.7-1,1.7-3.6V6.8C65.3,6.2,65.2,5.6,65,5.1z"/>
	<path class="st1" d="M79.8,2v19.5c0,1.7-0.1,1.8-1.9,1.8c-0.6,0-1,0-1.3,0c-0.8-0.1-0.7-0.8-0.7-1.7l0-5.7c0-0.6,0-1-0.1-1.3
		c-0.3-0.9-1.7-0.8-2.6-0.7c-0.9,0.1-0.9,0.9-0.9,1.8v6c0,1.5-0.1,1.7-1.7,1.7c-1.1,0-1.7,0-1.9-0.2c-0.2-0.3-0.2-0.7-0.2-1.9V2
		c0-0.8,0.1-1.3,0.2-1.4c0.3-0.3,2.3-0.3,2.9-0.2c0.9,0.1,0.8,0.8,0.8,1.8v5.4c0,1-0.1,1.7,0.3,2.1C73,10,74.1,10,75,9.8
		c1-0.1,0.9-1.1,0.9-2.1V4.9c0-1.3,0-2.3,0-2.9c0-0.8,0.1-1.3,0.2-1.4c0.3-0.3,2.3-0.3,2.9-0.2C79.9,0.4,79.8,1.1,79.8,2z
		 M73.4,14.5c-0.3,0-0.5,0.3-0.5,1.2v6c0,2.3,0,2.3-2.3,2.3H70c0,0.4,0.1,0.7,0.2,0.8c0.3,0.3,0.8,0.2,1.9,0.2
		c1.5,0,1.7-0.3,1.7-1.7v-6c0-0.9-0.1-1.8,0.9-1.8c0.2,0,0.3,0,0.5,0c0-0.3,0-0.6-0.1-0.7C75.1,14.5,74.8,14.4,73.4,14.5z M72.9,7.5
		c0,1,0,1.4,0.2,1.6c0.2,0.2,0.4,0.2,0.9,0.2V3.8c0-1,0.1-1.8-0.8-1.8h-0.3V7.5z M80.7,2h-0.3v19.6c0,2.4,0,2.4-2.5,2.4h-0.4
		c0,0.6,0.1,1,0.7,1c0.3,0,0.7,0,1.3,0c1.6,0,1.9-0.6,1.9-2.1V3.6C81.4,2.8,81.5,2,80.7,2z"/>
	<path class="st1" d="M96.1,23.1c-0.3,0.3-2.6,0.2-2.9,0.2c-0.3,0-0.5-0.1-0.7-0.2c-0.3-0.3-0.3-0.8-0.5-1.8
		c-0.1-0.5-0.1-0.9-0.2-1.1c0-0.3-0.1-1.9-1.2-1.9c-0.2,0-0.3,0-0.3,0c-1.7,0-2,0.1-2.2,1.7c0,0.3-0.2,1.1-0.5,2.7
		c-0.1,0.5-0.4,0.7-0.8,0.7c-1,0-1.9,0-2.6,0c-0.9,0-0.7-0.7-0.6-1.7c0.8-4.5,3.1-18.1,3.4-19.9c0.2-1.1,0.5-1.3,1.5-1.3h3
		c0.3,0,0.6,0.1,0.7,0.2c0.2,0.2,0.4,0.8,0.5,1.3c0.9,5.4,3.2,19.1,3.3,19.4C96.4,22.3,96.3,22.9,96.1,23.1z M91.2,19.8
		c-1.3,0-1.4,0.2-1.6,1.7c0,0.3-0.1,0.6-0.3,2c-0.1,0.5-0.4,1.3-1.4,1.3c-1,0-1.2,0-1.9,0s-0.7-0.4-0.7-1h0.2c0.4,0,0.9,0,1.4,0
		c0.8,0,1.3-0.4,1.4-1.2l0.3-1.4c0.1-0.7,0.2-1.1,0.2-1.3c0-0.3,0.1-0.9,0.3-1.1c0.1-0.1,0.8-0.1,1.3-0.1h0.1l0,0h0.1
		C90.8,18.8,91.1,18.8,91.2,19.8z M91,13.6c-0.1-0.6-0.4-2.3-0.4-2.4c0-0.1-0.1-0.3-0.2-0.5c-0.2-0.4-0.6-0.2-0.7,0
		c-0.2,0.6-0.4,1.6-0.5,3c0,0.2,0,0.3,0,0.4c0,0.5,1.8,0.5,1.9,0C91,14.1,91,13.9,91,13.6z M90.1,13.9h-0.3c0,0,0,0,0,0v-0.1
		c0.1-0.9,0.2-1.5,0.3-2c0,0.1,0,0.2,0.1,0.3c0.1,0.5,0.3,1.3,0.3,1.7v0.2C90.3,13.9,90.2,13.9,90.1,13.9z M98.1,24.6
		C97.6,25,97.5,25,94.8,25c-0.3,0-0.5-0.1-0.7-0.2c-0.2-0.2-0.3-0.4-0.3-0.8c0.1,0,0.2,0,0.4,0c1.5,0,2.2,0,2.6-0.5
		c0.2-0.3,0.2-1,0-2.2c0-0.1-0.1-0.5-0.3-1.6c-0.3-1.5-2.1-12.1-2.4-14c-0.2-1-0.4-2.3-0.6-3.6c0.5,0,0.6,0.1,0.8,0.2
		c0.2,0.2,0.4,0.8,0.5,1.3c0,0,3.3,19.4,3.3,19.4C98.3,23.9,98.3,24.4,98.1,24.6z"/>
	<path class="st1" d="M110.5,20.1c0.1,0.9,0.1,1.7,0,2.5c-0.1,0.8-0.9,0.7-1.5,0.7h-7.1c-0.5,0-1,0-1.3-0.3
		c-0.3-0.3-0.3-0.7-0.3-1.9v-19c0-1.6,0-1.7,1.6-1.7h7.1c0.8,0,1.2,0.1,1.3,0.2c0.3,0.3,0.3,1.9,0.2,2.7c-0.1,0.8-0.8,0.7-1.7,0.7
		h-3.2c-1.1,0-1.4,0.4-1.4,1.4c0,1.1,0,2.2,0,3.2c0,0.4,0.1,0.8,0.3,0.9c0.4,0.4,1.1,0.3,2.1,0.3c0.5,0,0.9,0,1.1,0c0.8,0,1,0.2,1,1
		c0,0.7,0,1.4,0,2.1c0,0.5-0.3,0.7-0.7,0.7c-0.5,0-1.2,0-2.2,0c-1.2,0-1.6,0.2-1.6,1.6c-0.1,0.8-0.1,1.7,0,2.7
		c0.1,1,0.4,1.4,1.4,1.4h3.2C109.7,19.5,110.4,19.4,110.5,20.1z M112,21.8c0-0.6-0.4-0.7-0.9-0.7c0,0.5,0,1-0.1,1.5
		c-0.1,1.3-0.9,1.2-2.1,1.2h-7c0,0.4,0.1,0.6,0.3,0.8c0.3,0.3,0.9,0.3,1.3,0.3l6.3,0C111.8,24.9,112,24.3,112,21.8z M109.3,13.1
		c-0.1,1.1-0.2,1.3-1.3,1.3h-2.2c-0.7,0-1,0.3-1,1c-0.1,0.7-0.1,1.5,0,2.6c0,0.8,0.1,0.8,0.9,0.9h0.2c0-0.7,0-1.7,0-2.2
		c0.1-1.4,0.1-1.2,1.3-1.2c1,0,1.7,0,2.2,0c0.5,0,1-0.3,1-0.8c0.1-0.7,0.1-1.3,0-2c0-0.8-0.1-1-0.9-1
		C109.3,12.1,109.3,12.6,109.3,13.1z M111.1,3.4c0,1.4-0.9,1.3-2.4,1.3h-3.2c-0.7,0-0.8,0.1-0.8,0.8c0,1.1,0,2,0,3.2
		c0,0.7,0.2,0.7,1,0.7c0-0.8,0-1.8,0-2.6c0.1-1,0-1.1,1.1-1.1h3.2c1.1,0,1.8-0.3,1.9-1.2c0.1-0.8,0.1-1.9-0.2-2.2
		c-0.1-0.1-0.2-0.2-0.6-0.2V3.4z"/>
	<path class="st1" d="M130.6,2.2v19.2c0,0.9,0.1,1.8-0.7,1.9c-0.9,0.1-1.7,0.1-2.6,0c-0.7-0.1-0.6-0.8-0.6-1.6l0-4.5
		c0-1.6-0.1-2.3-0.5-2.3c-0.3,0-0.5,0.4-0.7,1.4l-0.7,3.7c-0.2,1.1-0.4,1.9-0.6,2.5c-0.1,0.4-0.2,0.6-0.4,0.8
		c-0.3,0.2-1.3,0.3-2.2,0.2c-0.7,0-0.9-0.2-1-0.8c-0.2-0.9-0.7-2.9-0.8-3.4c-0.5-2-0.7-3.4-1.1-4.4c-0.1-0.3-0.5-0.1-0.5,0
		c-0.1,0.2-0.2,0.6-0.2,1.1v5.6c0,0.9,0.1,1.7-0.8,1.8c-0.8,0.1-1.6,0.1-2.4,0c-0.8-0.1-0.7-0.8-0.7-1.9V2.3c0-0.9-0.1-1.8,0.7-1.8
		h4c0.4,0,0.6,0.2,0.7,0.7l0.5,2.3l1.7,8.6c0,0.2,0.1,0.5,0.2,0.9s0.7,0.4,0.9-0.1c0,0,1.9-10.1,1.9-10.1c0.3-1.5,0.2-2.2,1.1-2.2
		c1.5,0,2.7,0,3.7,0C130.7,0.5,130.6,1.3,130.6,2.2z M118.7,16.4l0.1,5.1c0,1.9,0.1,2.2-1.3,2.4c-0.5,0-1,0.1-1.5,0
		c0,0.6,0.1,0.9,0.7,1c0.8,0.1,1.3,0.1,2.1,0c1.1-0.1,1-1.3,1-2.2v-1.9c-0.2-0.7-0.3-1.4-0.4-1.6l-0.6-2.9
		C118.8,16.2,118.7,16.2,118.7,16.4z M120.5,2.1l1.6,8c0.1,0.5,0.2,1.3,0.3,1.7c0,0.2,0.2,0.2,0.3,0l0.3-2l-1.4-7.1
		c-0.1-0.4-0.4-0.6-0.7-0.6H120.5z M126.1,21.7l0.2-5.1c0-0.2-0.2-0.2-0.2,0l-0.6,3.5c-0.2,1.1-0.4,1.9-0.6,2.5
		c-0.1,0.4-0.3,0.9-0.5,1.1c-0.3,0.3-1,0.3-2,0.3c0,0.7,0.4,1,1,1c0.9,0.1,1.9,0,2.2-0.2c0.1-0.1,0.3-0.4,0.4-0.8l0.2-1
		C126.1,22.6,126.1,22.1,126.1,21.7z M131.1,2.1v19.3c0,1.7,0.1,2.3-1.2,2.5c-0.5,0.1-1.1,0.1-1.6,0.1c0,0.5,0.1,0.9,0.6,1
		c0.9,0.1,1.2,0,2.1,0c0.9-0.1,1.2-0.9,1.2-1.8V3.9C132.2,2.6,132.3,2.1,131.1,2.1z"/>
	<path class="st1" d="M135.1,26.3c-0.5,0-0.7-0.2-0.6-0.7c0-0.1,0-0.3,0.1-0.4c0.5-1.4,0.4-1.8-0.1-2c-0.3-0.1-0.4-0.3-0.4-0.7
		c0-0.9,0-1.5,0-1.9c0-0.4,0.2-0.5,0.6-0.6c0.7,0,1.3,0,2,0c0.4,0,0.5,0.1,0.6,0.5c0,0.3,0,0.7,0,1.3c0,0.9-0.1,1.7-1.1,3.8
		C136,26.2,135.6,26.4,135.1,26.3z M136.3,27.5c-0.6,0-0.6-0.4-0.6-0.7c0.6,0,1-0.6,1.2-1.3c0.7-1.7,1-2.6,1-3.6v-0.4
		c0.7,0,0.6,0.3,0.6,1.9c0,0.9-0.2,1.5-1.2,3.6C137,27.4,136.9,27.5,136.3,27.5z"/>
	<path class="st1" d="M157.4,23.3c-0.9,0.1-1.5-0.3-1.8-1.2c0-0.1-0.3-0.8-0.7-1.9c-0.8-2-1.2-3.2-1.4-3.5c-0.2-0.5-0.4-0.8-0.6-1
		c-0.2-0.2-0.5-0.2-0.7,0c-0.3,0.3-0.4,0.8-0.4,1.3c0-0.1,0,1,0,3.2v2.2c-0.1,0.7-0.3,0.9-0.9,0.9c-0.6,0-1.3,0-1.9,0
		c-0.6,0-0.8-0.2-0.8-0.8c0-0.2,0-0.6,0-1.2v-19c0-1-0.1-1.8,0.7-1.8c0.7,0,1.4,0,2.2,0s0.7,0.8,0.7,1.5v1.3c0,1,0,1.6,0.2,2.3
		c0.1,0.3,0.5,0.4,0.7,0.2c0.2-0.1,0.4-0.5,0.6-0.9c0.2-0.4,0.5-0.9,0.8-1.5c0.4-0.7,0.6-1.2,0.8-1.6c0.4-0.7,0.6-1.2,1.1-1.3
		c1.2-0.1,2.3-0.1,3.2,0c0.2,0,0.4,0.3,0.3,0.5c-0.1,0.3-0.3,0.6-0.4,0.9c-0.4,0.9-1.5,3-3.2,6.4c-0.3,0.6-0.5,0.9-0.4,0.8
		c-0.3,0.5-0.3,1,0,1.5c0.2,0.5,0.5,1.2,0.9,2c1.2,2.9,2.4,6,3.8,9.3c0.1,0.3,0.2,0.6,0.3,0.9c0.1,0.3-0.1,0.5-0.4,0.6
		c-0.5,0.1-0.7,0.1-1.7,0.1H157.4z M152.8,16.8l0.6,1.5v0.3c0,0,0,1,0,3.2V24c-0.1,0.7-0.3,0.9-0.9,0.9c-0.6,0-1.3,0-1.9,0
		c-0.6,0-0.8-0.2-0.8-0.8c0-0.1,0-0.1,0-0.2h1.1c0.9-0.1,1.3-0.5,1.4-1.5v-2.2l0.1-3c0-0.2,0-0.4,0-0.6
		C152.5,16.4,152.6,16.3,152.8,16.8z M152.3,4.8c0-0.4,0-0.9,0-1.5V2.1h0.4c0.7,0,0.7,0.6,0.7,1.2c-0.2,0.4-0.6,1.1-0.8,1.6
		C152.5,5.1,152.3,5.1,152.3,4.8z M161.3,24.9H159c-0.8,0-1.4-0.2-1.8-1h1c3,0,3.3,0.1,2.3-2.4c-1.3-3.3-2.6-6.4-3.8-9.3
		c-0.3-0.8-0.7-1.5-0.9-2c-0.2-0.4-0.1-0.7,0-1c2.7-5.4,3-5.9,3.6-7.1l0.1-0.1h0.7c0.2,0,0.4,0.3,0.3,0.5c-0.1,0.3-0.3,0.6-0.4,0.9
		c-0.4,0.9-1.2,2.4-2.9,5.7c-0.3,0.6-0.3,0.6,0.4,2.3c0.2,0.5,0.8,1.8,1.1,2.7c1.2,2.9,2.3,5.7,3.6,8.9
		C162.9,24.3,162.6,24.9,161.3,24.9z"/>
	<path class="st1" d="M173.1,2c0,0.7,0,1.1,0,1.4c0,0.3-0.1,0.5-0.2,0.6c-0.3,0.2-0.7,0.2-1.3,0.2c-0.7,0-1.3,0-1.7,0.4
		c-0.4,0.4-0.4,0.9-0.4,2.2v14.6c0,1.2,0.1,1.9-0.7,2c-0.9,0-1.7,0-2.5,0c-0.9,0-0.7-0.8-0.7-1.8V6.4c0-1.1,0-1.5-0.3-1.9
		c-0.3-0.4-1-0.4-1.6-0.4c-0.4,0-0.6,0-0.8,0c-0.7,0-0.9-0.2-0.9-0.9c0-0.7,0-1.4,0-2.2c0-0.3,0.1-0.5,0.2-0.6
		c0.3-0.2,0.7-0.2,1.4-0.2h7.9C173,0.4,173.1,0.4,173.1,2z M164.9,5c0.1,0.1,0.1,0.2,0.1,0.9c-0.2,0-0.4,0-0.5,0
		c-0.7,0-0.9-0.2-0.9-0.9V4.8h0C164.5,4.8,164.7,4.8,164.9,5z M174.7,3.6c0,0.9,0,1.2-0.4,1.6c-0.4,0.4-0.9,0.5-1.5,0.5
		c-1,0-1.3,0-1.5,0.2c-0.2,0.2-0.2,0.6-0.2,2.5V23c0,1.2-0.2,1.9-1.4,2c-0.9,0.1-1,0-1.7,0c-0.6,0-0.7-0.4-0.7-1c0.5,0,1,0,1.6,0
		c1.4-0.1,1.2-1.4,1.2-2.6V6.8c0-1.3,0-1.6,0.2-1.8c0.1-0.2,0.4-0.2,1.3-0.2c0.6,0,1.4,0.1,1.8-0.4c0.2-0.2,0.3-0.6,0.3-1
		c0-0.3,0-0.8,0-1.3C174.7,2.1,174.7,2.2,174.7,3.6z"/>
	<path class="st1" d="M187.7,6.3l0,10.8c0,0.4-0.1,1.2-0.4,2.6c0,0.3-0.2,0.6-0.3,0.8c-2.6,4.2-8,3.9-10.1,0
		c-0.4-0.7-0.6-1.6-0.6-2.6c0-9.6,0-11.4,0-12.3c-0.1-1.9,0.9-3.6,2.8-4.9c0.4-0.3,0.8-0.5,1.2-0.5c2.6-0.4,4.2,0,5.6,1.3
		C187.2,2.7,187.7,4.6,187.7,6.3z M183.4,18.5c0.1-0.3,0.2-0.7,0.2-1.2V6.2c0-0.5-0.1-0.8-0.2-1.1c-0.5-1.6-2.9-1.4-3.2,0.3
		c0,0.2,0,0.5,0,1V17c0,0.7,0,1.1,0.2,1.4C180.9,19.8,182.8,19.8,183.4,18.5z M189.3,17.2l0-9.3c0-1.3-0.2-2.7-1-3.9
		c-0.2-0.3-0.4-0.2-0.3,0.1c0.2,0.7,0.2,1.4,0.2,2.1l0,10.8c0,1-0.2,2.7-0.8,3.7c-1.6,2.5-4.2,3.5-6.7,3.2c-0.3,0-0.4,0.3-0.1,0.3
		C184.9,25.6,189.4,23.6,189.3,17.2z M180.8,5.4c0,0.5,0,0.6,0,1V17c0,0.7,0,1,0.1,1.2c0.2,0.5,0.7,0.7,1.1,0.7
		c-0.1-0.2-0.2-0.8-0.2-1.4V6.7c0-0.5,0-0.9,0-1c0.1-0.4,0.3-0.8,0.6-1C181.9,4.3,180.9,4.5,180.8,5.4z"/>
	<path class="st1" d="M203.1,19.9c0,0.3-0.2,1.1-0.5,2.7c-0.1,0.5-0.4,0.7-0.8,0.7c-1,0-1.9,0-2.6,0c-0.9,0-0.7-0.7-0.6-1.7
		c0.8-4.5,1.2-7.2,1.4-8.4c1.2-6.8,1.7-9.8,2-11.6c0.2-1.1,0.5-1.3,1.5-1.3h3c0.3,0,0.6,0.1,0.7,0.2c0.2,0.2,0.4,0.8,0.5,1.3
		c0.9,5.4,3.2,19.1,3.3,19.4c0.2,0.9,0.1,1.5-0.1,1.8c-0.3,0.3-2.6,0.2-2.9,0.2c-0.3,0-0.5-0.1-0.7-0.2c-0.3-0.3-0.3-0.8-0.5-1.8
		c-0.1-0.5-0.1-0.9-0.2-1.1c0-0.3-1.3-8.9-1.3-9c0-0.1-0.1-0.3-0.2-0.5c-0.2-0.4-0.6-0.2-0.7,0C204.4,11.3,204.2,12.3,203.1,19.9z
		 M203.7,20c0,0.3-0.2,1.1-0.5,2.7c-0.2,1.1-0.3,1.2-3,1.2c-0.1,0.6,0,1,0.7,1s1.5,0,2.6,0c0.5,0,0.7-0.2,0.8-0.7
		c0.3-1.5,0.4-2.4,0.5-2.7c0.4-2.6,0.6-4.4,0.8-5.7c-0.1-0.6-0.2-1.1-0.3-1.7c-0.1-0.6-0.2-1.5-0.3-2c0-0.2-0.2-0.2-0.3,0l-0.3,2
		L203.7,20z M213,23c0.1,0.6-2.6-15.6-3.2-19.4c-0.1-0.5-0.2-1.1-0.5-1.3c-0.1-0.1-0.4-0.2-0.8-0.2c1,6,3,18.1,3.2,19.2
		c0.2,1.2,0.3,1.9-0.1,2.3c-0.4,0.4-1.2,0.3-2.9,0.3c0.1,0.4,0.1,0.7,0.3,0.8c0.1,0.1,0.6,0.2,0.9,0.2C213,25,213.3,24.8,213,23z"/>
	<path class="st1" d="M225.7,1.4c0,0.3-0.1,0.6-0.2,1c-0.1,0.4-1.1,5-2.6,10.8c-1.6,8.1-2.1,10.1-6.6,10.1c-0.7,0-0.9-0.2-0.9-0.9
		c0-0.4,0-0.7,0-1.1c0-0.4,0-0.8,0-1.1c0-0.3,0.1-0.5,0.2-0.6c0.3-0.2,0.3-0.2,0.8-0.2c0.7,0,1.1-0.5,1.1-1.3c0,0.3-4.1-15.4-4.3-16
		c-0.1-0.4-0.2-0.8-0.2-1c0-0.4,0.1-0.6,0.7-0.7c0.3,0,0.7,0,1.1,0s0.9,0,1.4,0c0.5,0,0.7,0.2,0.9,0.7c0.3,1.5,1.8,8.8,2,9.5
		c0.1,0.3,0.2,0.4,0.4,0.4c0.1,0,0.3-0.1,0.4-0.5c0.2-0.7,0.9-4,1.6-8.1c0.2-1.1,0.3-1.5,0.6-1.8c0.1-0.1,0.3-0.2,0.7-0.2h1
		c0.8,0,1.7,0,1.8,0.2C225.6,0.7,225.7,1,225.7,1.4z M226.8,2.2c-0.1-0.1-0.2-0.2-0.6-0.2l-0.1,0.4c-0.1,0.5-1.9,8.2-2.6,11.1
		c-1.5,7.4-2.2,10-6.4,10.3c0,0.6,0.4,1,1.4,0.8c3.2-0.8,4.3-2.8,5.7-9.6c0-0.2,2.6-11,2.6-11.1C226.9,3.4,227.1,2.5,226.8,2.2z
		 M219.1,2.7c-0.2-0.6-0.5-0.8-1.1-0.7l1.4,6.8c0,0.2,0.2,0.2,0.3,0c0.1-0.5,0.2-1,0.4-1.7C219.6,5.3,219.2,3.4,219.1,2.7z"/>
	<path class="st1" d="M239.7,2v19.5c0,1.7-0.1,1.8-1.9,1.8c-0.6,0-1,0-1.3,0c-0.8-0.1-0.7-0.8-0.7-1.7l0-5.3V15
		c0-0.7-0.1-0.9-0.5-0.9c-0.6,0-0.8,0.3-1.8,0.3c-2.6,0-5-1.6-5-5.1V2c0-0.8,0.1-1.3,0.2-1.4c0.2-0.2,1-0.2,1.8-0.2
		c0.5,0,0.9,0,1.1,0c0.9,0.1,0.8,0.8,0.8,1.8v5.8c0,2,0.2,3,2,3c1.1,0,1.2-0.3,1.3-0.6c0.1-0.2,0.1-1,0.1-2c0-1.2,0-2.6,0-3.5
		c0-1.3,0-2.3,0-2.9c0-0.8,0.1-1.3,0.2-1.4c0.2-0.2,1-0.2,1.8-0.2c0.5,0,0.9,0,1.1,0C239.9,0.4,239.7,1.1,239.7,2z M235.2,14.8
		c-0.3-0.1-0.4,0.2-1.6,0.1c-0.7,0-1.3-0.1-1.9-0.3c0.9,0.9,2.3,1.4,3.6,1.4C235.3,15,235.3,14.9,235.2,14.8z M233.1,7.9
		c0,1.8,0.2,2.4,1.1,2.4c0-0.2,0-0.5,0-0.8V3.8c0-1,0.1-1.7-0.8-1.8c-0.1,0-0.2,0-0.3,0V7.9z M240.6,2c-0.1,0-0.2,0-0.3,0v19.6
		c0,2.1-0.3,2.4-2.5,2.4h-0.4c0,0.6,0.1,1,0.7,1c0.3,0,0.7,0,1.3,0c1.5,0,1.9-0.4,1.9-1.8V3.6C241.4,2.8,241.5,2,240.6,2z"/>
	<path class="st1" d="M251.3,23.4c-2.9,0-5-0.1-5.4-0.1c-1,0-1.2-0.3-1.2-1.5V2.5c0-1.2,0-1.6,0.2-1.9c0.2-0.2,0.7-0.2,1.6-0.2
		c1.9,0,2.1,0,2.1,1.7v15.3c0,1-0.1,1.8,0.9,1.9c1.1,0.1,1.5,0.1,1.8-0.7c0.1-0.3,0.1-0.8,0.1-1.4V2.5c0-1.2,0-1.6,0.2-1.9
		c0.1-0.1,0.2-0.1,0.3-0.2c0.1,0,0.1,0,0.2,0c0.3,0,0.6,0,1.1,0h0.1h0.2c1.4,0,1.7,0,1.8,0.9c0,0.2,0,0.5,0,0.8v16
		c0,0.7,0.1,1.1,0.9,1.2c1.1,0.1,1.5,0.1,1.8-0.7c0.1-0.3,0.1-0.8,0.1-1.4l0-15.1c0-0.9-0.1-1.6,0.7-1.7c0.3,0,0.7,0,1.3,0
		c1.8,0,1.9,0.1,1.9,1.8v19.4c0,1.3-0.2,1.6-1.2,1.7c-0.4,0-1.7,0-2.7,0c-1.4,0-2.9,0-4.1,0L251.3,23.4z M263.5,3.8v19
		c0,1.3-0.5,2-1.6,2.1c-0.4,0-1.2,0-2.3,0c-1.4,0-2.9,0-4.1,0l-2.5,0c-2.9,0-5-0.1-5.4-0.1c-0.7,0-1.1-0.3-1.2-1
		c0.9,0,2.7,0.1,5,0.1l2.5,0c1.2,0,2.7,0,4.1,0c1,0,2.3,0,2.8,0c1.4-0.1,1.7-0.6,1.7-2.3V2.1C263.4,2.1,263.5,2.4,263.5,3.8z
		 M249.1,17.4V2.1c0.9,0.1,1,0.4,1,1.6v15.1c-0.2,0-0.4,0-0.7-0.1h0C249.1,18.7,249.1,18.6,249.1,17.4z M255.8,18.1v-16v0
		c0.7,0.1,0.9,0.2,1,0.9c0,0.2,0,0.5,0,0.8v15.1c-0.2,0-0.4,0-0.8-0.1C255.8,18.7,255.8,18.7,255.8,18.1z"/>
	<path class="st1" d="M277,20.1c0.1,0.9,0.1,1.7,0,2.5c-0.1,0.8-0.9,0.7-1.5,0.7h-7.1c-0.5,0-1,0-1.3-0.3c-0.3-0.3-0.3-0.7-0.3-1.9
		v-19c0-1.6,0-1.7,1.6-1.7h7.1c0.8,0,1.2,0.1,1.3,0.2c0.3,0.3,0.3,1.9,0.2,2.7c-0.1,0.8-0.8,0.7-1.7,0.7h-3.2
		c-1.1,0-1.4,0.4-1.4,1.4c0,1.1,0,2.2,0,3.2c0,0.4,0.1,0.8,0.3,0.9c0.4,0.4,1.1,0.3,2.1,0.3c0.5,0,0.9,0,1.1,0c0.8,0,1,0.2,1,1
		c0,0.7,0,1.4,0,2.1c0,0.5-0.3,0.7-0.7,0.7c-0.5,0-1.2,0-2.2,0c-1.2,0-1.6,0.2-1.6,1.6c-0.1,0.8-0.1,1.7,0,2.7
		c0.1,1,0.4,1.4,1.4,1.4h3.2C276.3,19.5,276.9,19.4,277,20.1z M278.5,21.8c0-0.6-0.4-0.7-0.9-0.7c0,0.5,0,1-0.1,1.5
		c-0.1,1.3-0.9,1.2-2.1,1.2h-7c0,0.4,0.1,0.6,0.3,0.8c0.3,0.3,0.9,0.3,1.3,0.3l6.3,0C278.3,24.9,278.5,24.3,278.5,21.8z M275.8,13.1
		c-0.1,1.1-0.2,1.3-1.3,1.3h-2.2c-0.7,0-1,0.3-1,1c-0.1,0.7-0.1,1.5,0,2.6c0,0.8,0.1,0.8,0.9,0.9h0.2c0-0.7,0-1.7,0-2.2
		c0.1-1.4,0.1-1.2,1.3-1.2c1,0,1.7,0,2.2,0c0.5,0,1-0.3,1-0.8c0.1-0.7,0.1-1.3,0-2c0-0.8-0.1-1-0.9-1
		C275.9,12.1,275.8,12.6,275.8,13.1z M277.7,3.4c0,1.4-0.9,1.3-2.4,1.3h-3.2c-0.7,0-0.8,0.1-0.8,0.8c0,1.1,0,2,0,3.2
		c0,0.7,0.2,0.7,1,0.7c0-0.8,0-1.8,0-2.6c0.1-1,0-1.1,1.1-1.1h3.2c1.1,0,1.8-0.3,1.9-1.2c0.1-0.8,0.1-1.9-0.2-2.2
		c-0.1-0.1-0.2-0.2-0.6-0.2V3.4z"/>
	<path class="st1" d="M300.3,16.1c0,0.4,0,1,0,1.8c0,1.3-0.4,2.5-1.3,3.5c-1.9,2.3-3.4,2-9.6,1.9c-0.4,0-0.6-0.1-0.8-0.3
		c-0.2-0.3-0.2-0.8-0.2-1.8V2c0-0.8,0.1-1.3,0.2-1.4c0.3-0.3,1-0.3,3.5-0.2c0.9,0,1.5,0,2.1,0c1.5,0,2.8,0.4,3.8,1.3
		c2.1,1.8,2.8,6.3,0.8,8.9c-0.5,0.6-0.5,0.9,0.1,1.5C299.8,13.1,300.3,14.5,300.3,16.1z M300.6,14.4c0.1,0.3,0.2,1.3,0.2,1.8
		c0,0.4,0,1,0,1.8c0,1.4-0.4,2.7-1.4,3.9c-2.1,2.5-3.9,2.2-10.1,2.1c0.1,0.7,0.4,1,1.2,1c6.2,0,7.5,0.1,9.6-2.5
		c0.7-0.8,1.4-1.9,1.4-3.2c0-0.8-0.1-1.8-0.1-2.3c0-1-0.2-1.8-0.4-2.3C300.8,14.3,300.6,14.3,300.6,14.4z M292.5,5.2
		c-0.2,1.6-0.4,4.8,1.9,4c0.4-0.1,0.7-0.4,0.9-0.7c0.6-1.1,0.5-2.2,0.3-3c-0.2-0.9-0.8-1.3-1.7-1.3C293.1,4.1,292.7,4.4,292.5,5.2z
		 M295.6,18.4c0.6-1.2,0.7-2.4,0.2-3.7c-0.4-1-1.6-1.8-2.6-1.3c-0.9,0.5-0.8,0.9-0.8,3.1c0,2.4-0.2,2.9,1,3
		C294.5,19.4,295.2,19.1,295.6,18.4z M293.9,4.8c-0.6,0-0.8,0-0.9,0.9c-0.3,2,0,3.2,0.9,3.1c0-0.6,0-1.2,0-2.3c0-1.1,0.6-1,0.9-1.1
		C294.7,5,294.3,4.8,293.9,4.8z M293.5,13.8c-0.5,0.3-0.4,0.2-0.4,2.6c0,2.5-0.1,2.4,0.4,2.4c0.2,0,0.4,0,0.6,0v-1v-2
		c0-0.5,0.1-0.9,0.2-1.1c0.2-0.3,0.3-0.4,0.5-0.5C294.6,13.8,293.9,13.6,293.5,13.8z M299.3,10.8c-0.3,0.4-0.3,0.3,0,0.8l0.3,0.4
		c0.1-0.1,0.1-0.1,0.4-0.4c1-1.3,1.3-3.5,0.9-5.4c-0.1-0.4-0.2-0.5-0.3-0.5c-0.1,0,0,0.2,0,0.5C300.6,7.8,300.2,9.5,299.3,10.8z"/>
	<path class="st1" d="M314.3,15.5c0.1,1.8,0.1,3-0.1,3.7c-0.9,4.6-6.9,6.4-10.3,1.8c-0.5-0.6-0.7-1.5-0.7-2.6c0-10.4,0-12.1,0-13
		c-0.1-2,1.3-4.2,3.4-4.9c0.4-0.2,0.8-0.2,1.1-0.2c1,0,1.6,0,2.1,0c0.3,0,0.6,0.1,0.9,0.2c0.8,0.3,1.7,1,2.8,2.3
		c1,1.2,0.8,3.7,0.8,4.7c0,0.8-0.3,1-1,1c-0.7,0-1.3,0-2,0c-0.9-0.1-0.8-0.2-0.8-2.3c-0.1-1.2-0.9-2.1-1.8-2.1
		c-0.5,0-0.9,0.2-1.2,0.6c-0.7,0.7-0.6,1.5-0.6,2.3c0,3.8,0,6.9,0,9.5c0,0.5,0,0.9,0.1,1.3c0.1,0.8,0.6,1.7,1.6,1.8s1.9-0.9,1.9-2.1
		v-1.8c0.1-0.7,0.2-0.9,0.9-0.9c0.7,0,1.4,0,2.2,0C314,14.7,314.3,15,314.3,15.5z M307.9,5.1c-0.5,0.5-0.4,1-0.4,1.9
		c0,3.8,0,6.9,0,9.5c0,0.5,0,0.9,0.1,1.2v0c0.1,0.8,0.5,1.2,1,1.3c0-0.3,0-0.6,0-0.9c0-2.6,0-6.8,0-10.6c0-1.2,0.1-2.1,0.8-2.5
		c-0.2-0.2-0.4-0.3-0.7-0.3C308.3,4.7,308.1,4.8,307.9,5.1z M315.1,16.3h-0.2c0.1,1.4,0,2.4-0.1,3c-0.7,3.7-4.1,5.4-7,4.9
		c-0.4-0.1-0.4,0.2-0.1,0.3c3.2,0.9,6.8-0.7,7.7-3.7c0.2-0.7,0.6-1.9,0.5-3.7C315.9,16.5,315.6,16.3,315.1,16.3z M314.9,7.5
		c0,1.4-0.1,1.6-2.8,1.6c0,0.8,0.1,0.9,0.8,0.9c0.7,0,1,0,1.7,0c0.7,0,1.2-0.4,1.2-1.2c0-1,0-3.1-0.7-4.5C315,4.2,314.9,4,314.8,4
		c-0.1,0-0.1,0.1,0,0.4C315,5.7,314.9,6.9,314.9,7.5z"/>
	<path class="st1" d="M328.4,20.1c0.1,0.9,0.1,1.7,0,2.5c-0.1,0.8-0.9,0.7-1.5,0.7h-7.1c-0.5,0-1,0-1.3-0.3
		c-0.3-0.3-0.3-0.7-0.3-1.9v-19c0-1.6,0-1.7,1.6-1.7h7.1c0.8,0,1.2,0.1,1.3,0.2c0.3,0.3,0.3,1.9,0.2,2.7c-0.1,0.8-0.8,0.7-1.7,0.7
		h-3.2c-1.1,0-1.4,0.4-1.4,1.4c0,1.1,0,2.2,0,3.2c0,0.4,0.1,0.8,0.3,0.9c0.4,0.4,1.1,0.3,2.1,0.3c0.5,0,0.9,0,1.1,0c0.8,0,1,0.2,1,1
		c0,0.7,0,1.4,0,2.1c0,0.5-0.3,0.7-0.7,0.7c-0.5,0-1.2,0-2.2,0c-1.2,0-1.6,0.2-1.6,1.6c-0.1,0.8-0.1,1.7,0,2.7
		c0.1,1,0.4,1.4,1.4,1.4h3.2C327.7,19.5,328.3,19.4,328.4,20.1z M330,21.8c0-0.6-0.4-0.7-0.9-0.7c0,0.5,0,1-0.1,1.5
		c-0.1,1.3-0.9,1.2-2.1,1.2h-7c0,0.4,0.1,0.6,0.3,0.8c0.3,0.3,0.9,0.3,1.3,0.3l6.3,0C329.7,24.9,330,24.3,330,21.8z M327.2,13.1
		c-0.1,1.1-0.2,1.3-1.3,1.3h-2.2c-0.7,0-1,0.3-1,1c-0.1,0.7-0.1,1.5,0,2.6c0,0.8,0.1,0.8,0.9,0.9h0.2c0-0.7,0-1.7,0-2.2
		c0.1-1.4,0.1-1.2,1.3-1.2c1,0,1.7,0,2.2,0c0.5,0,1-0.3,1-0.8c0.1-0.7,0.1-1.3,0-2c0-0.8-0.1-1-0.9-1
		C327.3,12.1,327.3,12.6,327.2,13.1z M329.1,3.4c0,1.4-0.9,1.3-2.4,1.3h-3.2c-0.7,0-0.8,0.1-0.8,0.8c0,1.1,0,2,0,3.2
		c0,0.7,0.2,0.7,1,0.7c0-0.8,0-1.8,0-2.6c0.1-1,0-1.1,1.1-1.1h3.2c1.1,0,1.8-0.3,1.9-1.2c0.1-0.8,0.1-1.9-0.2-2.2
		c-0.1-0.1-0.2-0.2-0.6-0.2V3.4z"/>
	<path class="st1" d="M341.7,23.4H341c-0.9,0.1-1.4-0.3-1.7-1.2c-0.1-0.2-0.4-1.2-1.1-3.2c-0.3-0.8-0.4-1.1-0.8-1.1
		c-0.2,0-0.4,0.1-0.5,0.5c0,0-0.4,1-1.1,3c-0.4,1.3-0.5,2-1.5,2c-1.4,0-2.2,0-2.6,0c-1-0.1-0.5-0.9-0.2-1.7c1.9-4.8,3-7.6,3.3-8.3
		c0.4-0.9,0.4-2,0-3c-0.4-1-1.5-3.8-3.3-8.3c-0.2-0.5-0.3-0.8-0.4-1c-0.1-0.4,0.1-0.7,0.5-0.8c0.9-0.1,1.9-0.1,3,0
		c0.4,0,0.7,0.3,0.9,0.9c0.2,0.5,0.6,1.6,1.2,3.3c0.2,0.6,0.3,0.9,0.4,1c0.2,0.5,0.7,0.4,0.9,0c0.1-0.2,0.2-0.5,0.4-0.8
		c0.7-1.9,1-3,1.1-3.3c0.3-0.7,0.7-1.1,1.4-1h1.2c0.5,0,0.9,0,1.2,0c0.5,0,0.7,0.4,0.6,0.8c-0.1,0.1-0.2,0.4-0.3,0.9
		c-0.8,1.9-3.3,8.4-3.5,8.8c-0.4,0.9-0.3,1.3,0,2.3c0.4,1,1.4,3.5,2.9,7.2l0.8,2.2C344,23.6,343.4,23.4,341.7,23.4z M337.6,19.1
		c-0.1-0.3-0.3-0.3-0.4,0c-0.2,0.6-0.8,2.2-0.9,2.5c-0.4,1.1-0.5,2.4-2.1,2.4h-1.4c-0.2,0.5-0.2,1,0.5,1c0.4,0,0.7,0,2.1,0
		c1,0,1.1-0.8,1.5-2c0.4-1.1,0.8-2.3,1-2.8C337.7,19.6,337.6,19.2,337.6,19.1z M337.5,4.7l0.4-1l-0.5-1.2c-0.2-0.5-0.9-0.4-1.1-0.4
		c0.2,0.6,0.5,1.3,0.8,2.3c0,0,0.1,0.2,0.1,0.3S337.5,4.9,337.5,4.7z M345.7,23.6l-0.6-1.7c-0.8-2.1-2.6-6.7-3.4-8.8
		c-0.4-0.9-0.4-1.2-0.2-1.8l3-7.6c0.3-0.9,0.5-1.1,0.3-1.4C344.6,2,344.2,2,344,2l-3.6,9c-0.3,0.7-0.2,1.1,0.2,2.1
		c0.6,1.4,1.9,5,2.7,6.9l0.8,2.2c0.6,1.5,0.3,1.7-2.4,1.7H341c0.3,0.8,0.9,1,1.6,1l1.3,0C345.4,24.9,346.1,24.6,345.7,23.6z"/>
	<path class="st1" d="M366.1,15.5c0.1,1.8,0.1,3-0.1,3.7c-0.9,4.6-6.9,6.4-10.3,1.8c-0.5-0.6-0.7-1.5-0.7-2.6c0-10.4,0-12.1,0-13
		c-0.1-2,1.3-4.2,3.4-4.9c0.4-0.2,0.8-0.2,1.1-0.2c1,0,1.6,0,2.1,0c0.3,0,0.6,0.1,0.9,0.2c0.8,0.3,1.7,1,2.8,2.3
		c1,1.2,0.8,3.7,0.8,4.7c0,0.8-0.3,1-1,1c-0.7,0-1.3,0-2,0c-0.9-0.1-0.8-0.2-0.8-2.3c-0.1-1.2-0.9-2.1-1.8-2.1
		c-0.5,0-0.9,0.2-1.2,0.6c-0.7,0.7-0.6,1.5-0.6,2.3c0,3.8,0,6.9,0,9.5c0,0.5,0,0.9,0.1,1.3c0.1,0.8,0.6,1.7,1.6,1.8s1.9-0.9,1.9-2.1
		v-1.8c0.1-0.7,0.2-0.9,0.9-0.9c0.7,0,1.4,0,2.2,0C365.9,14.7,366.1,15,366.1,15.5z M359.7,5.1c-0.5,0.5-0.4,1-0.4,1.9
		c0,3.8,0,6.9,0,9.5c0,0.5,0,0.9,0.1,1.2v0c0.1,0.8,0.5,1.2,1,1.3c0-0.3,0-0.6,0-0.9c0-2.6,0-6.8,0-10.6c0-1.2,0.1-2.1,0.8-2.5
		c-0.2-0.2-0.4-0.3-0.7-0.3C360.2,4.7,360,4.8,359.7,5.1z M367,16.3h-0.2c0.1,1.4,0,2.4-0.1,3c-0.7,3.7-4.1,5.4-7,4.9
		c-0.4-0.1-0.4,0.2-0.1,0.3c3.2,0.9,6.8-0.7,7.7-3.7c0.2-0.7,0.6-1.9,0.5-3.7C367.7,16.5,367.4,16.3,367,16.3z M366.7,7.5
		c0,1.4-0.1,1.6-2.8,1.6c0,0.8,0.1,0.9,0.8,0.9c0.7,0,1,0,1.7,0c0.7,0,1.2-0.4,1.2-1.2c0-1,0-3.1-0.7-4.5c-0.1-0.1-0.2-0.4-0.3-0.4
		c-0.1,0-0.1,0.1,0,0.4C366.8,5.7,366.8,6.9,366.7,7.5z"/>
	<path class="st1" d="M379.8,2c0,0.7,0,1.1,0,1.4c0,0.3-0.1,0.5-0.2,0.6c-0.3,0.2-0.7,0.2-1.3,0.2c-0.7,0-1.3,0-1.7,0.4
		c-0.4,0.4-0.4,0.9-0.4,2.2v14.6c0,1.2,0.1,1.9-0.7,2c-0.9,0-1.7,0-2.5,0c-0.9,0-0.7-0.8-0.7-1.8V6.4c0-1.1,0-1.5-0.3-1.9
		c-0.3-0.4-1-0.4-1.6-0.4c-0.4,0-0.6,0-0.8,0c-0.7,0-0.9-0.2-0.9-0.9c0-0.7,0-1.4,0-2.2c0-0.3,0.1-0.5,0.2-0.6
		c0.3-0.2,0.7-0.2,1.4-0.2h7.9C379.8,0.4,379.8,0.4,379.8,2z M371.7,5c0.1,0.1,0.1,0.2,0.1,0.9c-0.2,0-0.4,0-0.5,0
		c-0.7,0-0.9-0.2-0.9-0.9V4.8h0C371.3,4.8,371.5,4.8,371.7,5z M381.5,3.6c0,0.9,0,1.2-0.4,1.6c-0.4,0.4-0.9,0.5-1.5,0.5
		c-1,0-1.3,0-1.5,0.2c-0.2,0.2-0.2,0.6-0.2,2.5V23c0,1.2-0.2,1.9-1.4,2c-0.9,0.1-1,0-1.7,0c-0.6,0-0.7-0.4-0.7-1c0.5,0,1,0,1.6,0
		c1.4-0.1,1.2-1.4,1.2-2.6V6.8c0-1.3,0-1.6,0.2-1.8c0.1-0.2,0.4-0.2,1.3-0.2c0.6,0,1.4,0.1,1.8-0.4c0.2-0.2,0.3-0.6,0.3-1
		c0-0.3,0-0.8,0-1.3C381.5,2.1,381.5,2.2,381.5,3.6z"/>
	<path class="st1" d="M394.6,7.6v2.2c-0.1,2.2-1.5,4-3.5,4.8c-0.3,0.1-0.8,0.2-1.4,0.2c-0.8,0-1.2,0-1.4,0.1c-1.1,0.1-0.9,0.9-0.9,2
		V22c0,0.6-0.1,1-0.2,1.1c-0.3,0.3-1.9,0.3-2.9,0.2c-0.8-0.1-0.7-0.8-0.7-1.6V2c0-1.6,0-1.6,1.7-1.6h1.9h1.9c2,0,5.3,0.9,5.7,4.8
		C394.6,5.3,394.6,6.1,394.6,7.6z M396.1,6.8c-0.1-1.1-0.4-1.9-0.7-2.3c-0.2-0.3-0.4-0.3-0.3,0.1c0,0.2,0.1,0.4,0.1,0.6
		c0,0.3,0,0.9,0,2.5v2.2c0,2.4-1.6,4.5-3.9,5.3c-0.4,0.1-0.9,0.2-1.6,0.3h0c-1.5,0-1.8,0.1-1.8,1.7V22c0,0.7-0.1,1.3-0.4,1.5
		c-0.3,0.3-1.1,0.4-2.4,0.4c0,0.6,0.1,0.9,0.7,1c0.7,0,1.3,0,2,0c0.7-0.1,1.2-0.6,1.2-1.6v-4.8c0-1.9-0.2-1.9,1-2
		c0.7-0.1,2.2-0.5,2.6-0.7c1.9-0.9,3.7-2.7,3.7-6V9.2C396.2,7.7,396.1,6.9,396.1,6.8z M390.9,9.2c0.3-2.2,0.2-4.7-2.2-4.9
		c-1.7-0.1-1.4,0.6-1.4,3.3c0,1.9,0,0.5,0,2.6c0,0.5,0.3,0.9,0.9,0.9C389.5,11.3,390.7,10.5,390.9,9.2z M389.5,5.1
		c-0.2-0.2-0.5-0.2-0.9-0.3c-0.9-0.1-0.7-0.3-0.7,2.2v3.1c0,0.3,0.1,0.4,0.4,0.4c0.2,0,0.4,0,0.6,0c0-1.5,0-0.4,0-2.1
		C389,6.3,388.7,5.4,389.5,5.1z"/>
	<path class="st1" d="M399.1,0.4c0.5-0.1,1-0.1,1.6-0.1c1.6,0,1.7,0.1,1.7,1.7c0-0.1,0,2.3,0,7.1c0,1.1,0,1.3,0.2,1.8
		c0.1,0.4,0.6,0.4,0.7,0c0.1-0.1,0.1-0.3,0.2-0.5l2.4-8.2c0.2-0.6,0.3-1,0.4-1.2c0.1-0.5,0.4-0.7,0.8-0.7h3.1c0.8,0,0.7,0.8,0.7,1.8
		v19.1c0,1,0.1,1.9-0.9,2h-1.1c-1.8,0-1.9,0-1.9-1.8v-7.1c0-0.7,0-1.1-0.1-1.4c-0.2-0.4-0.7-0.6-0.8-0.1c-0.1,0.4-0.2,0.8-0.4,1.2
		c-0.1,0.5-0.7,2.3-2.5,7.4c-0.2,0.5-0.3,0.8-0.3,1c-0.4,1-1.8,0.8-2.6,0.8c-1.7,0-1.8-0.1-1.8-1.8V2C398.5,1.3,398.5,0.5,399.1,0.4
		z M406.5,14.6l-0.1,2.5c-0.5,1.8-0.9,3.1-2,6.2c-0.4,1.2-0.8,1.8-2.5,1.8c-1.4,0-1.8,0-1.8-1h0.2c0.7,0,2.7,0.3,3.2-1.2l0.3-1
		c0.8-2.3,1.4-3.8,1.7-5l0.7-2.3C406.3,14.3,406.5,14.4,406.5,14.6z M404,3.7v3l-0.2,0.8l-0.5,1.8c-0.1,0.3-0.3,0.3-0.3,0V7.4l0-5.3
		C404,2.1,404,2.3,404,3.7z M412.6,3.9v18.7c0,1.9,0,2.4-2,2.4c-1.5,0-1.8,0-1.9-1h1.4c1.7-0.2,1.4-1.6,1.4-2.6V2h0.4
		C412.6,2,412.6,2.9,412.6,3.9z"/>
	<path class="st1" d="M427.7,10.4c-0.5,1.1-0.5,1.7-0.1,2.7c0.9,2.1,2.1,4.6,3.6,8.5c0.3,0.8,0.8,1.6-0.2,1.7c-0.4,0-1.1,0-2.5,0
		c-1,0-1.1-0.6-1.5-1.9c-1-2.9-1.2-3.6-1.4-4c-0.2-0.4-0.6-0.4-0.6,0.2v4.8c-0.1,0.7-0.3,0.9-0.9,0.9c-0.6,0-1.3,0-1.9,0
		c-0.6,0-0.8-0.2-0.8-0.8c0-0.2,0-0.6,0-1.2v-3.7c0-0.6-0.5-0.6-0.6-0.2c-0.2,0.4-0.4,1.1-1.4,4c-0.5,1.3-0.5,1.9-1.5,1.9
		c-1.4,0-2.1,0-2.5,0c-1-0.1-0.5-0.9-0.2-1.7c1.5-3.8,2.7-6.3,3.5-8.2c0.5-1.2,0.5-1.9,0-3L415,2.1c-0.2-0.4-0.4-0.8-0.4-1
		c-0.1-0.4,0.1-0.7,0.5-0.7c0.9-0.1,1.9-0.1,2.9,0c0.4,0,0.7,0.3,0.9,0.9c0.3,0.6,1,3,1.8,5.3c0.2,0.4,0.6,0.3,0.6-0.1V2.2
		c0-1-0.1-1.8,0.7-1.8c0.7,0,1.4,0,2.2,0S425,1.2,425,2v4.5c0,0.4,0.5,0.5,0.6,0.1c0.9-2.2,1.6-4.7,1.8-5.3c0.2-0.5,0.5-0.8,0.9-0.9
		c1-0.1,2-0.1,2.9,0c0.4,0.1,0.6,0.4,0.5,0.7c0,0.2-0.2,0.6-0.4,1L427.7,10.4z M420.8,22.5c0,0.2,0.1,0.5,0.1,0.6
		c-0.4,1.2-0.5,1.8-1.5,1.8c-1.4,0-2.1,0-2.5,0c-0.7,0-0.7-0.5-0.5-1h1.3c1.5,0,1.7-1,2.1-2.3l0.7-2.2c0.1-0.2,0.3-0.1,0.3,0.1
		l-0.1,1.8C420.7,22,420.8,22.3,420.8,22.5z M420.9,4.5c0,0.2-0.2,0.3-0.3,0l-0.8-2.5c0.5,0,0.9,0,1,1L420.9,4.5z M425.8,19.9
		l0.8,2.3V24c-0.1,0.7-0.3,0.9-0.9,0.9c-0.6,0-1.3,0-1.9,0c-0.6,0-0.8-0.2-0.8-0.8c0-0.1,0-0.1,0-0.2h1.1c0.9-0.1,1.3-0.5,1.4-1.5
		v-2.6C425.6,19.7,425.8,19.6,425.8,19.9z M425.7,4.6c-0.1,0.2-0.3,0.2-0.3,0l0.1-2.5c0.4-0.1,0.7,0,0.9,0.2
		C426.3,2.8,426.1,3.3,425.7,4.6z M432,24.9c-0.4,0-0.5,0-1.9,0c-0.8,0-1-0.3-1.2-1c0.8,0,1.3,0,1.7,0c1.9,0,2-0.4,1.2-2.5
		c-1.5-3.8-2.6-6.2-3.5-8.1c-0.3-0.6-0.4-1-0.4-1.4c0-0.5,0.1-0.9,0.4-1.4L432,2h0.2c0.4,0,0.6,0.3,0.5,0.7c0,0.2-0.2,0.6-0.4,1
		l-3.2,7c-0.2,0.4-0.3,0.8-0.3,1.1c0,0.3,0.1,0.6,0.3,1l0.7,1.5c0.9,2.1,2,4.2,3.7,8.5C433.9,24.1,433.4,24.9,432,24.9z"/>
	<path class="st1" d="M445.8,20.1c0.1,0.9,0.1,1.7,0,2.5c-0.1,0.8-0.9,0.7-1.5,0.7h-7.1c-0.5,0-1,0-1.3-0.3
		c-0.3-0.3-0.3-0.7-0.3-1.9v-19c0-1.6,0-1.7,1.6-1.7h7.1c0.8,0,1.2,0.1,1.3,0.2c0.3,0.3,0.3,1.9,0.2,2.7c-0.1,0.8-0.8,0.7-1.7,0.7
		h-3.2c-1.1,0-1.4,0.4-1.4,1.4c0,1.1,0,2.2,0,3.2c0,0.4,0.1,0.8,0.3,0.9c0.4,0.4,1.1,0.3,2.1,0.3c0.5,0,0.9,0,1.1,0c0.8,0,1,0.2,1,1
		c0,0.7,0,1.4,0,2.1c0,0.5-0.3,0.7-0.7,0.7c-0.5,0-1.2,0-2.2,0c-1.2,0-1.6,0.2-1.6,1.6c-0.1,0.8-0.1,1.7,0,2.7
		c0.1,1,0.4,1.4,1.4,1.4h3.2C445.1,19.5,445.7,19.4,445.8,20.1z M447.4,21.8c0-0.6-0.4-0.7-0.9-0.7c0,0.5,0,1-0.1,1.5
		c-0.1,1.3-0.9,1.2-2.1,1.2h-7c0,0.4,0.1,0.6,0.3,0.8c0.3,0.3,0.9,0.3,1.3,0.3l6.3,0C447.1,24.9,447.4,24.3,447.4,21.8z M444.6,13.1
		c-0.1,1.1-0.2,1.3-1.3,1.3h-2.2c-0.7,0-1,0.3-1,1c-0.1,0.7-0.1,1.5,0,2.6c0,0.8,0.1,0.8,0.9,0.9h0.2c0-0.7,0-1.7,0-2.2
		c0.1-1.4,0.1-1.2,1.3-1.2c1,0,1.7,0,2.2,0c0.5,0,0.9-0.3,1-0.8c0.1-0.7,0.1-1.3,0-2c0-0.8-0.1-1-0.9-1
		C444.7,12.1,444.7,12.6,444.6,13.1z M446.5,3.4c0,1.4-0.9,1.3-2.4,1.3h-3.2c-0.7,0-0.8,0.1-0.8,0.8c0,1.1,0,2,0,3.2
		c0,0.7,0.2,0.7,1,0.7c0-0.8,0-1.8,0-2.6c0.1-1,0-1.1,1.1-1.1h3.2c1.1,0,1.8-0.3,1.9-1.2c0.1-0.8,0.1-1.9-0.2-2.2
		c-0.1-0.1-0.2-0.2-0.6-0.2V3.4z"/>
	<path class="st1" d="M459.5,2c0,0.7,0,1.1,0,1.4c0,0.3-0.1,0.5-0.2,0.6c-0.3,0.2-0.7,0.2-1.3,0.2c-0.7,0-1.3,0-1.7,0.4
		c-0.4,0.4-0.4,0.9-0.4,2.2v14.6c0,1.2,0.1,1.9-0.7,2c-0.9,0-1.7,0-2.5,0c-0.9,0-0.7-0.8-0.7-1.8V6.4c0-1.1,0-1.5-0.3-1.9
		c-0.3-0.4-1-0.4-1.6-0.4c-0.4,0-0.6,0-0.8,0c-0.7,0-0.9-0.2-0.9-0.9c0-0.7,0-1.4,0-2.2c0-0.3,0.1-0.5,0.2-0.6
		c0.3-0.2,0.7-0.2,1.4-0.2h7.9C459.4,0.4,459.5,0.4,459.5,2z M451.3,5c0.1,0.1,0.1,0.2,0.1,0.9c-0.2,0-0.4,0-0.5,0
		c-0.7,0-0.9-0.2-0.9-0.9V4.8h0C450.9,4.8,451.1,4.8,451.3,5z M461.1,3.6c0,0.9,0,1.2-0.4,1.6c-0.4,0.4-0.9,0.5-1.5,0.5
		c-1,0-1.3,0-1.5,0.2c-0.2,0.2-0.2,0.6-0.2,2.5V23c0,1.2-0.2,1.9-1.4,2c-0.9,0.1-1,0-1.7,0c-0.6,0-0.7-0.4-0.7-1c0.5,0,1,0,1.6,0
		c1.4-0.1,1.2-1.4,1.2-2.6V6.8c0-1.3,0-1.6,0.2-1.8c0.1-0.2,0.4-0.2,1.3-0.2c0.6,0,1.4,0.1,1.8-0.4c0.2-0.2,0.3-0.6,0.3-1
		c0-0.3,0-0.8,0-1.3C461.1,2.1,461.1,2.2,461.1,3.6z"/>
	<path class="st1" d="M471.3,0.4c0.5-0.1,1-0.1,1.6-0.1c1.6,0,1.7,0.1,1.7,1.7c0-0.1,0,2.3,0,7.1c0,1.1,0,1.3,0.2,1.8
		c0.1,0.4,0.6,0.4,0.7,0c0.1-0.1,0.1-0.3,0.2-0.5l2.4-8.2c0.2-0.6,0.3-1,0.4-1.2c0.1-0.5,0.4-0.7,0.8-0.7h3.1c0.8,0,0.7,0.8,0.7,1.8
		v19.1c0,1,0.1,1.9-0.9,2h-1.1c-1.8,0-1.9,0-1.9-1.8v-7.1c0-0.7,0-1.1-0.1-1.4c-0.2-0.4-0.7-0.6-0.8-0.1c-0.1,0.4-0.2,0.8-0.4,1.2
		c-0.1,0.5-0.7,2.3-2.5,7.4c-0.2,0.5-0.3,0.8-0.3,1c-0.4,1-1.8,0.8-2.6,0.8c-1.7,0-1.8-0.1-1.8-1.8V2C470.7,1.3,470.6,0.5,471.3,0.4
		z M478.7,14.6l-0.1,2.5c-0.5,1.8-0.9,3.1-2,6.2c-0.4,1.2-0.8,1.8-2.5,1.8c-1.4,0-1.8,0-1.8-1h0.2c0.7,0,2.7,0.3,3.2-1.2l0.3-1
		c0.8-2.3,1.4-3.8,1.7-5l0.7-2.3C478.5,14.3,478.7,14.4,478.7,14.6z M476.2,3.7v3L476,7.4l-0.5,1.8c-0.1,0.3-0.3,0.3-0.3,0V7.4
		l0-5.3C476.2,2.1,476.2,2.3,476.2,3.7z M484.8,3.9v18.7c0,1.9,0,2.4-2,2.4c-1.5,0-1.8,0-1.9-1h1.4c1.7-0.2,1.4-1.6,1.4-2.6V2h0.4
		C484.8,2,484.8,2.9,484.8,3.9z"/>
	<path class="st1" d="M503.2,8.6c2.1,0.8,3.4,2.6,3.5,5.3v2.2c0,1.5,0,2.4,0,2.5c-0.3,4-3.7,4.8-5.7,4.8h-3.8c-1.6,0-1.7,0-1.7-1.6
		V2c0-0.8-0.1-1.6,0.7-1.6h7.5c0.7,0,1.5-0.1,1.5,0.8c0,0.8,0,1.5,0,2.3c0,0.9-0.4,0.8-2.5,0.8c-2.8,0-3.4-0.2-3.4,1.2v0.9
		c0,1-0.2,1.8,0.9,2c0.2,0,0.7,0.1,1.4,0.1C502.4,8.4,502.9,8.5,503.2,8.6z M507.1,12.2c0.1,0.5,0.2,1.1,0.2,1.7v2.2
		c0,1.6,0,2.2,0,2.5c-0.3,3.3-2.7,5.4-6.3,5.4h-3.8c0,1,0.3,1,1.7,1h2.1c5.5,0,7.3-3.6,7.3-6.4v-3c0-0.7-0.1-1.3-0.3-1.9
		c-0.2-0.6-0.5-1.1-0.8-1.6C507.2,11.9,507,12,507.1,12.2z M503,14.5c0-1.8-1.4-2.7-2.6-2.5c-0.6,0.1-0.9,0.4-0.9,0.9
		c0,2,0,1.2,0,3.1c0,2.7-0.4,3.5,1.4,3.3C503.3,19.3,503,16.7,503,14.5z M500.5,12.7c-0.3,0-0.4,0.1-0.4,0.4l0,3.1
		c0,3-0.3,2.8,0.8,2.8c0.1,0,0.2,0,0.3,0c0-0.5,0-1,0-1.7c0-1.9,0-1.1,0-3.1c0-0.5,0.3-0.8,0.8-0.9
		C501.6,12.7,501.1,12.6,500.5,12.7z M506,3.6c0,1.2-0.4,1.3-3.1,1.3c-2.9,0-2.8-0.2-2.8,0.6v0.9c0,1.3,0,1.3,0.5,1.4
		c0,0,0.3,0,0.6,0.1V7.1c0-1.4,0.6-1.2,3.4-1.2c2.1,0,2.5-0.6,2.6-1.6c0-0.8,0-0.8,0-1.5c0-0.7-0.5-0.8-1-0.8C506,2.5,506,3,506,3.6
		z"/>
	<path class="st1" d="M521.5,7.6v2.2c-0.1,2.2-1.5,4-3.5,4.8c-0.3,0.1-0.8,0.2-1.4,0.2c-0.8,0-1.2,0-1.4,0.1c-1.1,0.1-1,0.9-1,2V22
		c0,0.6-0.1,1-0.2,1.1c-0.3,0.3-1.9,0.3-2.9,0.2c-0.8-0.1-0.7-0.8-0.7-1.6V2c0-1.6,0-1.6,1.7-1.6h1.9h1.9c2,0,5.3,0.9,5.7,4.8
		C521.5,5.3,521.5,6.1,521.5,7.6z M523,6.8c-0.1-1.1-0.4-1.9-0.7-2.3c-0.2-0.3-0.4-0.3-0.3,0.1c0,0.2,0.1,0.4,0.1,0.6
		c0,0.3,0,0.9,0,2.5v2.2c0,2.4-1.6,4.5-3.9,5.3c-0.4,0.1-0.9,0.2-1.6,0.3h0c-1.5,0-1.8,0.1-1.8,1.7V22c0,0.7-0.1,1.3-0.4,1.5
		c-0.3,0.3-1.1,0.4-2.4,0.4c0,0.6,0.1,0.9,0.7,1c0.7,0,1.3,0,2,0c0.7-0.1,1.2-0.6,1.2-1.6v-4.8c0-1.9-0.2-1.9,1-2
		c0.7-0.1,2.2-0.5,2.6-0.7c1.9-0.9,3.7-2.7,3.7-6V9.2C523.1,7.7,523,6.9,523,6.8z M517.8,9.2c0.3-2.2,0.2-4.7-2.2-4.9
		c-1.7-0.1-1.4,0.6-1.4,3.3c0,1.9,0,0.5,0,2.6c0,0.5,0.3,0.9,0.9,0.9C516.4,11.3,517.6,10.5,517.8,9.2z M516.4,5.1
		c-0.2-0.2-0.5-0.2-0.9-0.3c-0.9-0.1-0.7-0.3-0.7,2.2v3.1c0,0.3,0.1,0.4,0.4,0.4c0.2,0,0.4,0,0.6,0c0-1.5,0-0.4,0-2.1
		C515.8,6.3,515.6,5.4,516.4,5.1z"/>
	<path class="st1" d="M535.7,20.1c0.1,0.9,0.1,1.7,0,2.5c-0.1,0.8-0.9,0.7-1.5,0.7H527c-0.5,0-1,0-1.3-0.3c-0.3-0.3-0.3-0.7-0.3-1.9
		v-19c0-1.6,0-1.7,1.6-1.7h7.1c0.8,0,1.2,0.1,1.3,0.2c0.3,0.3,0.3,1.9,0.2,2.7C535.6,4.1,534.9,4,534,4h-3.2c-1.1,0-1.4,0.4-1.4,1.4
		c0,1.1,0,2.2,0,3.2c0,0.4,0.1,0.8,0.3,0.9c0.4,0.4,1.1,0.3,2.1,0.3c0.5,0,0.9,0,1.1,0c0.8,0,1,0.2,1,1c0,0.7,0,1.4,0,2.1
		c0,0.5-0.3,0.7-0.7,0.7c-0.5,0-1.2,0-2.2,0c-1.2,0-1.6,0.2-1.6,1.6c-0.1,0.8-0.1,1.7,0,2.7c0.1,1,0.4,1.4,1.4,1.4h3.2
		C534.9,19.5,535.6,19.4,535.7,20.1z M537.2,21.8c0-0.6-0.4-0.7-0.9-0.7c0,0.5,0,1-0.1,1.5c-0.1,1.3-0.9,1.2-2.1,1.2h-7
		c0,0.4,0.1,0.6,0.3,0.8c0.3,0.3,0.9,0.3,1.3,0.3l6.3,0C536.9,24.9,537.2,24.3,537.2,21.8z M534.5,13.1c-0.1,1.1-0.2,1.3-1.3,1.3
		H531c-0.7,0-1,0.3-1,1c-0.1,0.7-0.1,1.5,0,2.6c0,0.8,0.1,0.8,0.9,0.9h0.2c0-0.7,0-1.7,0-2.2c0.1-1.4,0.1-1.2,1.3-1.2
		c1,0,1.7,0,2.2,0c0.5,0,1-0.3,1-0.8c0.1-0.7,0.1-1.3,0-2c0-0.8-0.1-1-0.9-1C534.5,12.1,534.5,12.6,534.5,13.1z M536.3,3.4
		c0,1.4-0.9,1.3-2.4,1.3h-3.2c-0.7,0-0.8,0.1-0.8,0.8c0,1.1,0,2,0,3.2c0,0.7,0.2,0.7,1,0.7c0-0.8,0-1.8,0-2.6c0.1-1,0-1.1,1.1-1.1
		h3.2c1.1,0,1.8-0.3,1.9-1.2c0.1-0.8,0.1-1.9-0.2-2.2c-0.1-0.1-0.2-0.2-0.6-0.2V3.4z"/>
	<path class="st1" d="M549.8,20.1c0.1,0.9,0.1,1.7,0,2.5c-0.1,0.8-0.9,0.7-1.5,0.7h-7.1c-0.5,0-1,0-1.3-0.3
		c-0.3-0.3-0.3-0.7-0.3-1.9v-19c0-1.6,0-1.7,1.6-1.7h7.1c0.8,0,1.2,0.1,1.3,0.2c0.3,0.3,0.3,1.9,0.2,2.7C549.7,4.1,549,4,548.1,4
		h-3.2c-1.1,0-1.4,0.4-1.4,1.4c0,1.1,0,2.2,0,3.2c0,0.4,0.1,0.8,0.3,0.9c0.4,0.4,1.1,0.3,2.1,0.3c0.5,0,0.9,0,1.1,0c0.8,0,1,0.2,1,1
		c0,0.7,0,1.4,0,2.1c0,0.5-0.3,0.7-0.7,0.7c-0.5,0-1.2,0-2.2,0c-1.2,0-1.6,0.2-1.6,1.6c-0.1,0.8-0.1,1.7,0,2.7
		c0.1,1,0.4,1.4,1.4,1.4h3.2C549,19.5,549.7,19.4,549.8,20.1z M551.3,21.8c0-0.6-0.4-0.7-0.9-0.7c0,0.5,0,1-0.1,1.5
		c-0.1,1.3-0.9,1.2-2.1,1.2h-7c0,0.4,0.1,0.6,0.3,0.8c0.3,0.3,0.9,0.3,1.3,0.3l6.3,0C551,24.9,551.3,24.3,551.3,21.8z M548.5,13.1
		c-0.1,1.1-0.2,1.3-1.3,1.3H545c-0.7,0-1,0.3-1,1c-0.1,0.7-0.1,1.5,0,2.6c0,0.8,0.1,0.8,0.9,0.9h0.2c0-0.7,0-1.7,0-2.2
		c0.1-1.4,0.1-1.2,1.3-1.2c1,0,1.7,0,2.2,0c0.5,0,1-0.3,1-0.8c0.1-0.7,0.1-1.3,0-2c0-0.8-0.1-1-0.9-1
		C548.6,12.1,548.6,12.6,548.5,13.1z M550.4,3.4c0,1.4-0.9,1.3-2.4,1.3h-3.2c-0.7,0-0.8,0.1-0.8,0.8c0,1.1,0,2,0,3.2
		c0,0.7,0.2,0.7,1,0.7c0-0.8,0-1.8,0-2.6c0.1-1,0-1.1,1.1-1.1h3.2c1.1,0,1.8-0.3,1.9-1.2c0.1-0.8,0.1-1.9-0.2-2.2
		c-0.1-0.1-0.2-0.2-0.6-0.2V3.4z"/>
	<path class="st1" d="M563.4,2c0,0.7,0,1.1,0,1.4c0,0.3-0.1,0.5-0.2,0.6c-0.3,0.2-0.7,0.2-1.3,0.2c-0.7,0-1.3,0-1.7,0.4
		c-0.4,0.4-0.4,0.9-0.4,2.2v14.6c0,1.2,0.1,1.9-0.7,2c-0.9,0-1.7,0-2.5,0c-0.9,0-0.7-0.8-0.7-1.8V6.4c0-1.1,0-1.5-0.3-1.9
		c-0.3-0.4-1-0.4-1.6-0.4c-0.4,0-0.6,0-0.8,0c-0.7,0-0.9-0.2-0.9-0.9c0-0.7,0-1.4,0-2.2c0-0.3,0.1-0.5,0.2-0.6
		c0.3-0.2,0.7-0.2,1.4-0.2h7.9C563.3,0.4,563.4,0.4,563.4,2z M555.2,5c0.1,0.1,0.1,0.2,0.1,0.9c-0.2,0-0.4,0-0.5,0
		c-0.7,0-0.9-0.2-0.9-0.9V4.8h0C554.8,4.8,555.1,4.8,555.2,5z M565,3.6c0,0.9,0,1.2-0.4,1.6c-0.4,0.4-0.9,0.5-1.5,0.5
		c-1,0-1.3,0-1.5,0.2c-0.2,0.2-0.2,0.6-0.2,2.5V23c0,1.2-0.2,1.9-1.4,2c-0.9,0.1-1,0-1.7,0c-0.6,0-0.7-0.4-0.7-1c0.5,0,1,0,1.6,0
		c1.4-0.1,1.2-1.4,1.2-2.6V6.8c0-1.3,0-1.6,0.2-1.8c0.1-0.2,0.4-0.2,1.3-0.2c0.6,0,1.4,0.1,1.8-0.4c0.2-0.2,0.3-0.6,0.3-1
		c0-0.3,0-0.8,0-1.3C565,2.1,565,2.2,565,3.6z"/>
	<path class="st1" d="M586.4,16.1c0,0.4,0,1,0,1.8c0,1.3-0.4,2.5-1.3,3.5c-1.9,2.3-3.4,2-9.6,1.9c-0.4,0-0.6-0.1-0.8-0.3
		c-0.2-0.3-0.2-0.8-0.2-1.8V2c0-0.8,0.1-1.3,0.2-1.4c0.3-0.3,1-0.3,3.5-0.2c0.9,0,1.5,0,2.1,0c1.5,0,2.8,0.4,3.8,1.3
		c2.1,1.8,2.8,6.3,0.8,8.9c-0.5,0.6-0.5,0.9,0.1,1.5C586,13.1,586.5,14.5,586.4,16.1z M586.8,14.4c0.1,0.3,0.2,1.3,0.2,1.8
		c0,0.4,0,1,0,1.8c0,1.4-0.4,2.7-1.4,3.9c-2.1,2.5-3.9,2.2-10.1,2.1c0.1,0.7,0.4,1,1.2,1c6.2,0,7.5,0.1,9.6-2.5
		c0.7-0.8,1.4-1.9,1.4-3.2c0-0.8-0.1-1.8-0.1-2.3c0-1-0.2-1.8-0.4-2.3C586.9,14.3,586.7,14.3,586.8,14.4z M578.7,5.2
		c-0.2,1.6-0.4,4.8,1.9,4c0.4-0.1,0.7-0.4,0.9-0.7c0.6-1.1,0.5-2.2,0.3-3c-0.2-0.9-0.8-1.3-1.7-1.3C579.2,4.1,578.8,4.4,578.7,5.2z
		 M581.7,18.4c0.6-1.2,0.7-2.4,0.2-3.7c-0.4-1-1.6-1.8-2.6-1.3c-0.9,0.5-0.8,0.9-0.8,3.1c0,2.4-0.2,2.9,1,3
		C580.7,19.4,581.3,19.1,581.7,18.4z M580,4.8c-0.6,0-0.8,0-0.9,0.9c-0.3,2,0,3.2,1,3.1c0-0.6,0-1.2,0-2.3c0-1.1,0.6-1,0.9-1.1
		C580.8,5,580.5,4.8,580,4.8z M579.7,13.8c-0.5,0.3-0.4,0.2-0.4,2.6c0,2.5-0.1,2.4,0.4,2.4c0.2,0,0.4,0,0.6,0v-1v-2
		c0-0.5,0.1-0.9,0.2-1.1c0.2-0.3,0.3-0.4,0.5-0.5C580.7,13.8,580.1,13.6,579.7,13.8z M585.4,10.8c-0.3,0.4-0.3,0.3,0,0.8l0.3,0.4
		c0.1-0.1,0.1-0.1,0.4-0.4c1-1.3,1.3-3.5,0.9-5.4c-0.1-0.4-0.2-0.5-0.3-0.5c-0.1,0,0,0.2,0,0.5C586.8,7.8,586.4,9.5,585.4,10.8z"/>
	<path class="st1" d="M607.1,2c0,0.7,0,1.1,0,1.4c0,0.3-0.1,0.5-0.2,0.6c-0.3,0.2-0.7,0.2-1.3,0.2c-0.7,0-1.3,0-1.7,0.4
		c-0.4,0.4-0.4,0.9-0.4,2.2v14.6c0,1.2,0.1,1.9-0.7,2c-0.9,0-1.7,0-2.5,0c-0.9,0-0.7-0.8-0.7-1.8V6.4c0-1.1,0-1.5-0.3-1.9
		c-0.3-0.4-1-0.4-1.6-0.4c-0.4,0-0.6,0-0.8,0c-0.7,0-0.9-0.2-0.9-0.9c0-0.7,0-1.4,0-2.2c0-0.3,0.1-0.5,0.2-0.6
		c0.3-0.2,0.7-0.2,1.4-0.2h7.9C607,0.4,607.1,0.4,607.1,2z M598.9,5c0.1,0.1,0.1,0.2,0.1,0.9c-0.2,0-0.4,0-0.5,0
		c-0.7,0-0.9-0.2-0.9-0.9V4.8h0C598.5,4.8,598.8,4.8,598.9,5z M608.7,3.6c0,0.9,0,1.2-0.4,1.6c-0.4,0.4-0.9,0.5-1.5,0.5
		c-1,0-1.3,0-1.5,0.2c-0.2,0.2-0.2,0.6-0.2,2.5V23c0,1.2-0.2,1.9-1.4,2c-0.9,0.1-1,0-1.7,0c-0.6,0-0.7-0.4-0.7-1c0.5,0,1,0,1.6,0
		c1.4-0.1,1.2-1.4,1.2-2.6V6.8c0-1.3,0-1.6,0.2-1.8c0.1-0.2,0.4-0.2,1.3-0.2c0.6,0,1.4,0.1,1.8-0.4c0.2-0.2,0.3-0.6,0.3-1
		c0-0.3,0-0.8,0-1.3C608.7,2.1,608.7,2.2,608.7,3.6z"/>
	<path class="st1" d="M622.5,16.1c0,0.4,0,1,0,1.8c0,1.3-0.4,2.5-1.3,3.5c-1.9,2.3-3.4,2-9.6,1.9c-0.4,0-0.6-0.1-0.8-0.3
		c-0.2-0.3-0.2-0.8-0.2-1.8V2c0-0.8,0.1-1.3,0.2-1.4c0.3-0.3,1-0.3,3.5-0.2c0.9,0,1.5,0,2.1,0c1.5,0,2.8,0.4,3.8,1.3
		c2.1,1.8,2.8,6.3,0.8,8.9c-0.5,0.6-0.5,0.9,0.1,1.5C622.1,13.1,622.5,14.5,622.5,16.1z M622.8,14.4c0.1,0.3,0.2,1.3,0.2,1.8
		c0,0.4,0,1,0,1.8c0,1.4-0.4,2.7-1.4,3.9c-2.1,2.5-3.9,2.2-10.1,2.1c0.1,0.7,0.4,1,1.2,1c6.2,0,7.5,0.1,9.6-2.5
		c0.7-0.8,1.4-1.9,1.4-3.2c0-0.8-0.1-1.8-0.1-2.3c0-1-0.2-1.8-0.4-2.3C623,14.3,622.8,14.3,622.8,14.4z M614.8,5.2
		c-0.2,1.6-0.4,4.8,1.9,4c0.4-0.1,0.7-0.4,0.9-0.7c0.6-1.1,0.5-2.2,0.3-3c-0.2-0.9-0.8-1.3-1.7-1.3C615.3,4.1,614.9,4.4,614.8,5.2z
		 M617.8,18.4c0.6-1.2,0.7-2.4,0.2-3.7c-0.4-1-1.6-1.8-2.6-1.3c-0.9,0.5-0.8,0.9-0.8,3.1c0,2.4-0.2,2.9,1,3
		C616.7,19.4,617.4,19.1,617.8,18.4z M616.1,4.8c-0.6,0-0.8,0-0.9,0.9c-0.3,2,0,3.2,0.9,3.1c0-0.6,0-1.2,0-2.3c0-1.1,0.6-1,0.9-1.1
		C616.9,5,616.6,4.8,616.1,4.8z M615.7,13.8c-0.5,0.3-0.4,0.2-0.4,2.6c0,2.5-0.1,2.4,0.4,2.4c0.2,0,0.4,0,0.6,0v-1v-2
		c0-0.5,0.1-0.9,0.2-1.1c0.2-0.3,0.3-0.4,0.5-0.5C616.8,13.8,616.1,13.6,615.7,13.8z M621.5,10.8c-0.3,0.4-0.3,0.3,0,0.8l0.3,0.4
		c0.1-0.1,0.1-0.1,0.4-0.4c1-1.3,1.3-3.5,0.9-5.4c-0.1-0.4-0.2-0.5-0.3-0.5c-0.1,0,0,0.2,0,0.5C622.8,7.8,622.5,9.5,621.5,10.8z"/>
	<path class="st1" d="M636.7,6.3l0,10.8c0,0.4-0.1,1.2-0.4,2.6c0,0.3-0.2,0.6-0.3,0.8c-2.6,4.2-8,3.9-10.1,0
		c-0.4-0.7-0.6-1.6-0.6-2.6c0-9.6,0-11.4,0-12.3c-0.1-1.9,0.9-3.6,2.8-4.9c0.4-0.3,0.8-0.5,1.2-0.5c2.6-0.4,4.2,0,5.6,1.3
		C636.3,2.7,636.7,4.6,636.7,6.3z M632.5,18.5c0.1-0.3,0.2-0.7,0.2-1.2V6.2c0-0.5-0.1-0.8-0.2-1.1c-0.5-1.6-2.9-1.4-3.2,0.3
		c0,0.2,0,0.5,0,1V17c0,0.7,0,1.1,0.2,1.4C630,19.8,631.9,19.8,632.5,18.5z M638.4,17.2l0-9.3c0-1.3-0.2-2.7-1-3.9
		c-0.2-0.3-0.4-0.2-0.3,0.1c0.2,0.7,0.2,1.4,0.2,2.1l0,10.8c0,1-0.2,2.7-0.8,3.7c-1.6,2.5-4.2,3.5-6.7,3.2c-0.3,0-0.4,0.3-0.1,0.3
		C634,25.6,638.4,23.6,638.4,17.2z M629.9,5.4c0,0.5,0,0.6,0,1V17c0,0.7,0,1,0.1,1.2c0.2,0.5,0.7,0.7,1.1,0.7
		c-0.1-0.2-0.2-0.8-0.2-1.4V6.7c0-0.5,0-0.9,0-1c0.1-0.4,0.3-0.8,0.6-1C630.9,4.3,630,4.5,629.9,5.4z"/>
	<path class="st1" d="M651.6,20.1c0.1,0.9,0.1,1.7,0,2.5c-0.1,0.8-0.9,0.7-1.5,0.7h-7.1c-0.5,0-1,0-1.3-0.3
		c-0.3-0.3-0.3-0.7-0.3-1.9v-19c0-1.6,0-1.7,1.6-1.7h7.1c0.8,0,1.2,0.1,1.3,0.2c0.3,0.3,0.3,1.9,0.2,2.7c-0.1,0.8-0.8,0.7-1.7,0.7
		h-3.2c-1.1,0-1.4,0.4-1.4,1.4c0,1.1,0,2.2,0,3.2c0,0.4,0.1,0.8,0.3,0.9c0.4,0.4,1.1,0.3,2.1,0.3c0.5,0,0.9,0,1.1,0c0.8,0,1,0.2,1,1
		c0,0.7,0,1.4,0,2.1c0,0.5-0.3,0.7-0.7,0.7c-0.5,0-1.2,0-2.2,0c-1.2,0-1.6,0.2-1.6,1.6c-0.1,0.8-0.1,1.7,0,2.7
		c0.1,1,0.4,1.4,1.4,1.4h3.2C650.9,19.5,651.5,19.4,651.6,20.1z M653.2,21.8c0-0.6-0.4-0.7-0.9-0.7c0,0.5,0,1-0.1,1.5
		c-0.1,1.3-0.9,1.2-2.1,1.2h-7c0,0.4,0.1,0.6,0.3,0.8c0.3,0.3,0.9,0.3,1.3,0.3l6.3,0C652.9,24.9,653.2,24.3,653.2,21.8z M650.4,13.1
		c-0.1,1.1-0.2,1.3-1.3,1.3h-2.2c-0.7,0-1,0.3-1,1c-0.1,0.7-0.1,1.5,0,2.6c0,0.8,0.1,0.8,0.9,0.9h0.2c0-0.7,0-1.7,0-2.2
		c0.1-1.4,0.1-1.2,1.3-1.2c1,0,1.7,0,2.2,0c0.5,0,1-0.3,1-0.8c0.1-0.7,0.1-1.3,0-2c0-0.8-0.1-1-0.9-1
		C650.5,12.1,650.4,12.6,650.4,13.1z M652.3,3.4c0,1.4-0.9,1.3-2.4,1.3h-3.2c-0.7,0-0.8,0.1-0.8,0.8c0,1.1,0,2,0,3.2
		c0,0.7,0.2,0.7,1,0.7c0-0.8,0-1.8,0-2.6c0.1-1,0-1.1,1.1-1.1h3.2c1.1,0,1.8-0.3,1.9-1.2c0.1-0.8,0.1-1.9-0.2-2.2
		c-0.1-0.1-0.2-0.2-0.6-0.2V3.4z"/>
	<path class="st1" d="M671.7,2.2v19.2c0,0.9,0.1,1.8-0.7,1.9c-0.9,0.1-1.7,0.1-2.6,0c-0.7-0.1-0.6-0.8-0.6-1.6l0-4.5
		c0-1.6-0.1-2.3-0.5-2.3c-0.3,0-0.5,0.4-0.7,1.4l-0.7,3.7c-0.2,1.1-0.4,1.9-0.6,2.5c-0.1,0.4-0.2,0.6-0.4,0.8
		c-0.3,0.2-1.3,0.3-2.2,0.2c-0.7,0-0.9-0.2-1-0.8c-0.2-0.9-0.7-2.9-0.8-3.4c-0.5-2-0.7-3.4-1.1-4.4c-0.1-0.3-0.5-0.1-0.5,0
		c-0.1,0.2-0.2,0.6-0.2,1.1v5.6c0,0.9,0.1,1.7-0.8,1.8c-0.8,0.1-1.6,0.1-2.4,0c-0.8-0.1-0.7-0.8-0.7-1.9V2.3c0-0.9-0.1-1.8,0.7-1.8
		h4c0.4,0,0.6,0.2,0.7,0.7l0.5,2.3l1.7,8.6c0,0.2,0.1,0.5,0.2,0.9s0.7,0.4,0.9-0.1c0,0,1.9-10.1,1.9-10.1c0.3-1.5,0.2-2.2,1.1-2.2
		c1.5,0,2.7,0,3.7,0C671.8,0.5,671.7,1.3,671.7,2.2z M659.8,16.4l0.1,5.1c0,1.9,0.1,2.2-1.3,2.4c-0.5,0-1,0.1-1.5,0
		c0,0.6,0.1,0.9,0.7,1c0.8,0.1,1.3,0.1,2.1,0c1.1-0.1,1-1.3,1-2.2v-1.9c-0.2-0.7-0.3-1.4-0.4-1.6l-0.6-2.9
		C660,16.2,659.8,16.2,659.8,16.4z M661.7,2.1l1.6,8c0.1,0.5,0.2,1.3,0.3,1.7c0,0.2,0.2,0.2,0.3,0l0.3-2l-1.4-7.1
		c-0.1-0.4-0.4-0.6-0.7-0.6H661.7z M667.2,21.7l0.2-5.1c0-0.2-0.2-0.2-0.2,0l-0.6,3.5c-0.2,1.1-0.4,1.9-0.6,2.5
		c-0.1,0.4-0.3,0.9-0.5,1.1c-0.3,0.3-1,0.3-2,0.3c0,0.7,0.4,1,1,1c0.9,0.1,1.9,0,2.2-0.2c0.1-0.1,0.3-0.4,0.4-0.8l0.2-1
		C667.2,22.6,667.2,22.1,667.2,21.7z M672.3,2.1v19.3c0,1.7,0.1,2.3-1.2,2.5c-0.5,0.1-1.1,0.1-1.6,0.1c0,0.5,0.1,0.9,0.6,1
		c0.9,0.1,1.2,0,2.1,0c0.9-0.1,1.2-0.9,1.2-1.8V3.9C673.3,2.6,673.5,2.1,672.3,2.1z"/>
	<path class="st1" d="M685.9,23.4c-1.6,0-1.6-0.1-1.6-1.7V2c0-1.5,0.1-1.5,1.5-1.5h6.7c0.7,0,1.5-0.1,1.5,0.8c0,0.8,0,1.5,0,2.3
		c0,0.9-0.4,0.8-2.5,0.8c-2.8,0.1-3.2-0.2-3.3,1.2c0,0.2,0,0.7,0,1.3v14.6c0,1.2,0.1,2-0.8,2C687,23.4,686.5,23.4,685.9,23.4z
		 M695.6,4.2c0,0.9-0.4,1.7-2.5,1.7c-2.8,0.1-3.2-0.2-3.3,1.2c0,0.2-0.1,0.7-0.1,1.3V23c0,1.2-0.2,1.9-1.4,2c-0.9,0.1-1,0-1.7,0
		c-0.6,0-0.7-0.4-0.7-1c0.5,0,1,0,1.6,0c1.4-0.1,1.2-1.4,1.2-2.6V6.8c0-0.6,0-1,0-1.3c0.1-0.9,0.1-0.6,2.8-0.6
		c2.9,0,3.1-0.1,3.1-1.3c0-0.5,0-1,0-1.5c0.5,0,1,0.1,1,0.8C695.7,3.6,695.7,3.4,695.6,4.2z"/>
	<path class="st1" d="M708.7,6.3l0,10.8c0,0.4-0.1,1.2-0.4,2.6c0,0.3-0.2,0.6-0.3,0.8c-2.6,4.2-8,3.9-10.1,0
		c-0.4-0.7-0.6-1.6-0.6-2.6c0-9.6,0-11.4,0-12.3c-0.1-1.9,0.9-3.6,2.8-4.9c0.4-0.3,0.8-0.5,1.2-0.5c2.6-0.4,4.2,0,5.6,1.3
		C708.2,2.7,708.7,4.6,708.7,6.3z M704.4,18.5c0.1-0.3,0.2-0.7,0.2-1.2V6.2c0-0.5-0.1-0.8-0.2-1.1c-0.5-1.6-2.9-1.4-3.2,0.3
		c0,0.2,0,0.5,0,1V17c0,0.7,0,1.1,0.2,1.4C701.9,19.8,703.8,19.8,704.4,18.5z M710.3,17.2l0-9.3c0-1.3-0.2-2.7-1-3.9
		c-0.2-0.3-0.4-0.2-0.3,0.1c0.2,0.7,0.2,1.4,0.2,2.1l0,10.8c0,1-0.2,2.7-0.8,3.7c-1.6,2.5-4.2,3.5-6.7,3.2c-0.3,0-0.4,0.3-0.1,0.3
		C705.9,25.6,710.4,23.6,710.3,17.2z M701.8,5.4c0,0.5,0,0.6,0,1V17c0,0.7,0,1,0.1,1.2c0.2,0.5,0.7,0.7,1.1,0.7
		c-0.1-0.2-0.2-0.8-0.2-1.4V6.7c0-0.5,0-0.9,0-1c0.1-0.4,0.3-0.8,0.6-1C702.9,4.3,701.9,4.5,701.8,5.4z"/>
	<path class="st1" d="M724.4,7.6v2.2c-0.1,2.2-1.5,4-3.5,4.8c-0.3,0.1-0.8,0.2-1.4,0.2c-0.8,0-1.2,0-1.4,0.1c-1.1,0.1-1,0.9-1,2V22
		c0,0.6-0.1,1-0.2,1.1c-0.3,0.3-1.9,0.3-2.9,0.2c-0.8-0.1-0.7-0.8-0.7-1.6V2c0-1.6,0-1.6,1.7-1.6h1.9h1.9c2,0,5.3,0.9,5.7,4.8
		C724.4,5.3,724.4,6.1,724.4,7.6z M725.9,6.8c-0.1-1.1-0.4-1.9-0.7-2.3c-0.2-0.3-0.4-0.3-0.3,0.1c0,0.2,0.1,0.4,0.1,0.6
		c0,0.3,0,0.9,0,2.5v2.2c0,2.4-1.6,4.5-3.9,5.3c-0.4,0.1-0.9,0.2-1.6,0.3h0c-1.5,0-1.8,0.1-1.8,1.7V22c0,0.7-0.1,1.3-0.4,1.5
		c-0.3,0.3-1.1,0.4-2.4,0.4c0,0.6,0.1,0.9,0.7,1c0.7,0,1.3,0,2,0c0.7-0.1,1.2-0.6,1.2-1.6v-4.8c0-1.9-0.2-1.9,1-2
		c0.7-0.1,2.2-0.5,2.6-0.7c1.9-0.9,3.7-2.7,3.7-6V9.2C726.1,7.7,726,6.9,725.9,6.8z M720.7,9.2c0.3-2.2,0.2-4.7-2.2-4.9
		c-1.7-0.1-1.4,0.6-1.4,3.3c0,1.9,0,0.5,0,2.6c0,0.5,0.3,0.9,0.9,0.9C719.3,11.3,720.5,10.5,720.7,9.2z M719.3,5.1
		c-0.2-0.2-0.5-0.2-0.9-0.3c-0.9-0.1-0.7-0.3-0.7,2.2v3.1c0,0.3,0.1,0.4,0.4,0.4c0.2,0,0.4,0,0.6,0c0-1.5,0-0.4,0-2.1
		C718.8,6.3,718.6,5.4,719.3,5.1z"/>
	<path class="st1" d="M739.4,6.3l0,10.8c0,0.4-0.1,1.2-0.4,2.6c0,0.3-0.2,0.6-0.3,0.8c-2.6,4.2-8,3.9-10.1,0
		c-0.4-0.7-0.6-1.6-0.6-2.6c0-9.6,0-11.4,0-12.3c-0.1-1.9,0.9-3.6,2.8-4.9c0.4-0.3,0.8-0.5,1.2-0.5c2.6-0.4,4.2,0,5.6,1.3
		C738.9,2.7,739.4,4.6,739.4,6.3z M735.1,18.5c0.1-0.3,0.2-0.7,0.2-1.2V6.2c0-0.5-0.1-0.8-0.2-1.1c-0.5-1.6-2.9-1.4-3.2,0.3
		c0,0.2,0,0.5,0,1V17c0,0.7,0,1.1,0.2,1.4C732.6,19.8,734.5,19.8,735.1,18.5z M741,17.2l0-9.3c0-1.3-0.2-2.7-1-3.9
		c-0.2-0.3-0.4-0.2-0.3,0.1c0.2,0.7,0.2,1.4,0.2,2.1l0,10.8c0,1-0.2,2.7-0.8,3.7c-1.6,2.5-4.2,3.5-6.7,3.2c-0.3,0-0.4,0.3-0.1,0.3
		C736.6,25.6,741.1,23.6,741,17.2z M732.5,5.4c0,0.5,0,0.6,0,1V17c0,0.7,0,1,0.1,1.2c0.2,0.5,0.7,0.7,1.1,0.7
		c-0.1-0.2-0.2-0.8-0.2-1.4V6.7c0-0.5,0-0.9,0-1c0.1-0.4,0.3-0.8,0.6-1C733.6,4.3,732.6,4.5,732.5,5.4z"/>
	<path class="st1" d="M755.3,27.6c-0.7,0-1.1,0-1.4,0c-0.9-0.1-0.8-0.8-0.8-2c0-0.4,0-1,0-1.1c-0.1-1.3-0.5-1.2-2.9-1.2h-1.7
		c-2.1,0-2.4-0.2-2.6,1.2c0,0.1,0,0.7,0,1.1c0,1.2,0.1,2-0.8,2c-0.3,0-0.8,0-1.4,0c-1.6,0-1.6-0.1-1.6-1.7v-5c0-1.3,0.5-1.5,0.9-1.5
		c0.7-0.1,0.8-0.5,0.9-1.4c0.4-1.8,2.7-14.6,3-16.4c0.2-1.1,0.5-1.3,1.6-1.3h2.8c0.4,0,0.6,0.1,0.8,0.2c0.2,0.2,0.4,0.8,0.5,1.3
		c0.7,3.7,1.4,7.3,2,11c0.3,1.9,0.5,3.8,0.7,5.7c0.1,0.6,0.3,0.8,0.9,0.9c0.6,0.1,0.8,0.5,0.8,1.4v5
		C756.9,27.6,756.9,27.6,755.3,27.6z M752.5,24.5V25h-2.4c-2.4,0-2.6-0.2-2.6,1.2v0.7c0,2-0.6,2.4-2.2,2.4c-1.4,0-1.6,0-1.6-1
		c0.7,0,1.1,0,1.5,0c1.5-0.1,1.3-1.4,1.3-2.6c0-0.4,0-0.9,0-1c0.1-0.8-0.1-0.6,2-0.6h1.7C752.5,23.9,752.4,23.7,752.5,24.5z
		 M751.1,18c-0.5-3.9-0.8-6.5-1.3-7.7c-0.2-0.4-0.6-0.2-0.7,0c-0.3,0.6-0.6,2.9-1.2,7.2c-0.2,1.2-0.3,1.9,1,1.9h1.3
		C750.8,19.5,751.2,19,751.1,18z M749.5,11.1c0.1,0.5,0.3,1.6,0.5,3c-0.2,1.1-0.4,2.7-0.7,4.7h-0.4c-0.6,0-0.6,0-0.4-1.2
		C749,14.2,749.3,12.1,749.5,11.1z M755.9,18.6c-0.7-5.4-1.2-8.7-2.7-16.5c0.5,0,0.6,0.1,0.8,0.2c0.2,0.2,0.4,0.8,0.5,1.3
		c1.2,7,1.8,10.1,2.5,15.7l-0.7-0.3C755.9,18.9,755.9,18.9,755.9,18.6z M758.6,22.6v5c0,1.2-0.5,1.7-1.6,1.7c-0.7,0-1.1,0-1.4,0
		c-0.6,0-0.8-0.4-0.8-1h0.6c2,0,2.2-0.1,2.2-2.3v-4.8c0.1,0,0.1,0,0.2,0.1C758.4,21.4,758.6,21.7,758.6,22.6z"/>
	<path class="st1" d="M770.8,20.1c0.1,0.9,0.1,1.7,0,2.5c-0.1,0.8-0.9,0.7-1.5,0.7h-7.1c-0.5,0-1,0-1.3-0.3
		c-0.3-0.3-0.3-0.7-0.3-1.9v-19c0-1.6,0-1.7,1.6-1.7h7.1c0.8,0,1.2,0.1,1.3,0.2c0.3,0.3,0.3,1.9,0.2,2.7c-0.1,0.8-0.8,0.7-1.7,0.7
		h-3.2c-1.1,0-1.4,0.4-1.4,1.4c0,1.1,0,2.2,0,3.2c0,0.4,0.1,0.8,0.3,0.9c0.4,0.4,1.1,0.3,2.1,0.3c0.5,0,0.9,0,1.1,0c0.8,0,1,0.2,1,1
		c0,0.7,0,1.4,0,2.1c0,0.5-0.3,0.7-0.7,0.7c-0.5,0-1.2,0-2.2,0c-1.2,0-1.6,0.2-1.6,1.6c-0.1,0.8-0.1,1.7,0,2.7
		c0.1,1,0.4,1.4,1.4,1.4h3.2C770.1,19.5,770.7,19.4,770.8,20.1z M772.3,21.8c0-0.6-0.4-0.7-0.9-0.7c0,0.5,0,1-0.1,1.5
		c-0.1,1.3-0.9,1.2-2.1,1.2h-7c0,0.4,0.1,0.6,0.3,0.8c0.3,0.3,0.9,0.3,1.3,0.3l6.3,0C772.1,24.9,772.3,24.3,772.3,21.8z M769.6,13.1
		c-0.1,1.1-0.2,1.3-1.3,1.3h-2.2c-0.7,0-1,0.3-1,1c-0.1,0.7-0.1,1.5,0,2.6c0,0.8,0.1,0.8,0.9,0.9h0.2c0-0.7,0-1.7,0-2.2
		c0.1-1.4,0.1-1.2,1.3-1.2c0.9,0,1.7,0,2.2,0c0.5,0,1-0.3,1-0.8c0.1-0.7,0.1-1.3,0-2c0-0.8-0.1-1-0.9-1
		C769.7,12.1,769.6,12.6,769.6,13.1z M771.5,3.4c0,1.4-0.9,1.3-2.4,1.3h-3.2c-0.7,0-0.8,0.1-0.8,0.8c0,1.1,0,2,0,3.2
		c0,0.7,0.2,0.7,1,0.7c0-0.8,0-1.8,0-2.6c0.1-1,0-1.1,1.1-1.1h3.2c1.1,0,1.8-0.3,1.9-1.2c0.1-0.8,0.1-1.9-0.2-2.2
		c-0.1-0.1-0.2-0.2-0.6-0.2V3.4z"/>
	<path class="st1" d="M777.3,14.7l-0.2,2.9c-0.1,0.4-0.3,0.7-0.7,0.7c-0.5,0-1,0-1.7,0c-0.4,0-0.6-0.2-0.6-0.6
		c0-0.2-0.1-0.6-0.2-1.3c-0.1-0.6-0.1-1-0.1-1.3c0-0.3,0-2,0-5V1.7c0-1.2,0.1-1.3,1.4-1.3h1.2c0.5,0,0.7,0.2,0.8,0.8
		c0,0.1,0,0.3,0,0.7V14.7z M776.7,23.3c-0.8,0.1-1.5,0.1-2.2,0c-0.2,0-0.4-0.2-0.5-0.5c-0.1-0.7-0.1-1.4,0-2.2
		c0-0.3,0.2-0.5,0.5-0.5c0.1,0,0.4,0,1.1-0.1c0.7,0.1,1,0.1,1.1,0.1c0.3,0,0.5,0.2,0.5,0.5c0.1,0.7,0.1,1.4,0,2.2
		C777.2,23.1,777,23.3,776.7,23.3z M777.9,24.9c-0.8,0.1-1.1,0.1-1.8,0c-0.2,0-0.4-0.2-0.5-0.5l-0.1-0.5c0.4,0,0.7,0,1.1,0h0
		c0.6-0.1,1-0.5,1-1.1c0.1-0.4,0.1-0.7,0.1-1.1c0.3,0,0.5,0,0.5,0.1c0.3,0,0.5,0.2,0.5,0.5c0.1,0.7,0.1,1,0,1.8
		C778.7,24.6,778.5,24.9,777.9,24.9z M778.1,2h-0.3v12.8l-0.2,3c-0.1,0.7-0.6,1.2-1.2,1.2c-0.2,0-0.5,0-0.7,0c0,0.2,0,0.3,0,0.4v0
		c0.3,0,0.6,0,0.9,0c0.6,0,0.9,0.1,1,0.6h0.3c0.4,0,0.6-0.2,0.7-0.7l0.2-2.9V2.9C778.8,2.3,778.7,2.1,778.1,2z"/>
</g>
</svg>
